<?xml version="1.0" standalone="no"?>
<!DOCTYPE svg PUBLIC "-//W3C//DTD SVG 20010904//EN"
 "http://www.w3.org/TR/2001/REC-SVG-20010904/DTD/svg10.dtd">
<svg version="1.0" xmlns="http://www.w3.org/2000/svg"
 width="700.000000pt" height="700.000000pt" viewBox="0 0 700.000000 700.000000"
 preserveAspectRatio="xMidYMid meet">
<metadata>
Created by potrace 1.14, written by Peter Selinger 2001-2017
</metadata>
<g transform="translate(0.000000,700.000000) scale(0.100000,-0.100000)"
fill="#000000" stroke="none">
<path d="M0 3500 l0 -3500 3500 0 3500 0 0 3500 0 3500 -3500 0 -3500 0 0
-3500z m2870 272 c568 -1311 607 -1397 630 -1397 23 0 62 86 630 1397 l605
1398 503 0 502 0 0 -1630 0 -1630 -340 0 -340 0 0 1306 0 1305 -22 -3 c-19 -3
-95 -173 -579 -1303 l-558 -1300 -401 0 -401 0 -558 1300 c-484 1130 -560
1300 -579 1303 l-22 3 0 -1305 0 -1306 -340 0 -340 0 0 1630 0 1630 503 0 502
0 605 -1398z"/>
</g>
</svg>
