<svg width="1060" height="466" viewBox="0 0 1060 466" fill="none" xmlns="http://www.w3.org/2000/svg">
<path d="M84.7477 434.2L147.798 434.2C153.864 434.2 158.198 432.9 160.798 430.3C163.831 427.7 165.348 423.367 165.348 417.3L165.348 330.2L0.247657 330.2L0.247657 306.8L201.748 9.74996L225.148 9.74996L225.148 306.8L303.798 306.8L303.798 330.2L225.148 330.2L225.148 417.3C225.148 423.367 226.448 427.7 229.048 430.3C232.081 432.9 236.631 434.2 242.698 434.2L305.748 434.2L305.748 455L84.7477 455L84.7477 434.2ZM30.1477 306.8L165.348 306.8L165.348 107.9L30.1477 306.8ZM529.398 465.4C498.632 465.4 471.332 454.35 447.498 432.25C423.665 410.15 405.032 381.333 391.598 345.8C378.598 309.833 372.098 272.133 372.098 232.7C372.098 193.267 378.598 155.783 391.598 120.25C405.032 84.2833 423.665 55.25 447.498 33.15C471.332 11.05 498.632 -3.05202e-05 529.398 -3.04929e-05C559.732 -3.04661e-05 586.815 11.05 610.648 33.15C634.915 55.25 653.548 84.2833 666.548 120.25C679.982 155.783 686.698 193.267 686.698 232.7C686.698 272.133 679.982 309.833 666.548 345.8C653.548 381.333 634.915 410.15 610.648 432.25C586.815 454.35 559.732 465.4 529.398 465.4ZM529.398 444.6C565.365 444.6 588.982 424.233 600.248 383.5C611.948 342.767 617.798 292.5 617.798 232.7C617.798 172.9 611.948 122.633 600.248 81.9C588.982 41.1666 565.365 20.8 529.398 20.8C493.432 20.8 469.598 41.1666 457.898 81.9C446.632 122.2 440.998 172.467 440.998 232.7C440.998 292.933 446.632 343.417 457.898 384.15C469.598 424.45 493.432 444.6 529.398 444.6ZM838.849 434.2L901.899 434.2C907.966 434.2 912.299 432.9 914.899 430.3C917.933 427.7 919.449 423.367 919.449 417.3L919.449 330.2L754.349 330.2L754.349 306.8L955.849 9.74996L979.249 9.74996L979.249 306.8L1057.9 306.8L1057.9 330.2L979.249 330.2L979.249 417.3C979.249 423.367 980.549 427.7 983.149 430.3C986.183 432.9 990.733 434.2 996.799 434.2L1059.85 434.2L1059.85 455L838.849 455L838.849 434.2ZM784.249 306.8L919.449 306.8L919.449 107.9L784.249 306.8Z" fill="#363636"/>
</svg>
