<svg width="137" height="21" viewBox="0 0 137 21" fill="none" xmlns="http://www.w3.org/2000/svg">
<path fill-rule="evenodd" clip-rule="evenodd" d="M88.1148 11.4428V0.305041H94.0813L94.1045 7.83892L88.1148 11.4428ZM0.228516 0.28418H10.9002C12.6786 0.28418 14.0427 0.779583 14.9933 1.76962C15.9439 2.76043 16.4193 3.98697 16.4193 5.44769C16.4193 6.67422 16.0807 7.72609 15.4045 8.60329C14.9539 9.18835 14.2908 9.65052 13.4174 9.98981C14.7452 10.3476 15.7198 10.9613 16.342 11.8323C16.9634 12.7026 17.2748 13.7969 17.2748 15.1139C17.2748 16.1874 17.053 17.1512 16.6109 18.0075C16.1673 18.8631 15.5606 19.5416 14.7885 20.0401C14.3086 20.3508 13.5883 20.5757 12.6284 20.7179C11.3392 20.9065 10.4867 20.9993 10.0725 20.9993H0.228516V0.28418ZM5.96008 8.43017H8.45566C9.34368 8.43017 9.96352 8.25859 10.3129 7.91466C10.6622 7.57151 10.8376 7.07534 10.8376 6.42613C10.8376 5.82407 10.6622 5.35417 10.3129 5.01642C9.96352 4.67791 9.35914 4.50788 8.49817 4.50788H5.96008V8.43017ZM5.96008 16.5252H8.86373C9.84063 16.5252 10.5308 16.3312 10.935 15.9424C11.3384 15.5544 11.5417 15.0312 11.5417 14.3758C11.5417 13.7676 11.3415 13.2776 10.9427 12.9081C10.5432 12.5379 9.84604 12.3525 8.85059 12.3525H5.96008V16.5252ZM38.0819 0.28418H43.434L50.4006 11.7396V0.28418H55.7812V21H50.4006L43.4618 9.59256V21H38.0819V0.28418Z" fill="white"/>
<path fill-rule="evenodd" clip-rule="evenodd" d="M55.5581 0.28418H72.9553V5.4129H67.1225V21H61.3901V5.4129H55.5581V0.28418Z" fill="white"/>
<path fill-rule="evenodd" clip-rule="evenodd" d="M72.8397 0.283929H88.1247V4.70858H78.5713V8.02803H87.4716V12.251H78.5713V16.324H88.4269V20.9998H72.8397V0.283929ZM114.101 0.283929H123.564C125.63 0.283929 127.178 0.836523 128.201 1.94327C129.226 3.04923 129.739 4.62279 129.739 6.66392C129.739 8.76302 129.178 10.4023 128.062 11.584C126.945 12.7649 125.239 13.3562 122.948 13.3562H119.834V20.999H114.101V0.283929ZM119.834 9.13322H121.215C122.293 9.13322 123.054 8.91914 123.494 8.48943C123.936 8.06049 124.158 7.51098 124.158 6.84091C124.158 6.19093 123.966 5.6391 123.586 5.18698C123.204 4.73408 122.489 4.50686 121.438 4.50686H119.834V9.13322ZM130.326 0.283929H136.058V20.9998H130.326V0.283929ZM37.982 10.4857C37.982 16.2768 33.2544 20.972 27.4231 20.972C21.5919 20.972 16.8643 16.2768 16.8643 10.4857C16.8643 4.69466 21.5919 -0.000488281 27.4231 -0.000488281C33.2544 -0.000488281 37.982 4.69466 37.982 10.4857ZM27.4231 5.52472C26.7643 5.51309 26.1097 5.63281 25.4976 5.87691C24.8855 6.121 24.3282 6.48457 23.8581 6.94639C23.3881 7.40822 23.0147 7.95905 22.7599 8.56673C22.505 9.17441 22.3738 9.82678 22.3738 10.4857C22.3738 11.1447 22.505 11.7971 22.7599 12.4047C23.0147 13.0124 23.3881 13.5633 23.8581 14.0251C24.3282 14.4869 24.8855 14.8505 25.4976 15.0946C26.1097 15.3387 26.7643 15.4584 27.4231 15.4468C28.7237 15.4238 29.9633 14.891 30.8749 13.9632C31.7865 13.0353 32.2974 11.7865 32.2974 10.4857C32.2974 9.18496 31.7865 7.93619 30.8749 7.00832C29.9633 6.08045 28.7237 5.54768 27.4231 5.52472Z" fill="white"/>
<path fill-rule="evenodd" clip-rule="evenodd" d="M88.125 18.2502V12.2258L106.872 1.10889V6.98111L88.125 18.2502ZM112.925 10.4405V20.8958H107.079L107.052 14.0234L112.925 10.4405ZM112.925 3.75518V9.77811L94.1781 20.8958V15.0235L112.925 3.75518Z" fill="white"/>
</svg>
