<svg width="108" height="38" viewBox="0 0 108 38" fill="none" xmlns="http://www.w3.org/2000/svg">
<g clip-path="url(#clip0_522_838)">
<path d="M10.4194 0.23291C12.6068 0.23291 14.3385 0.419413 15.7056 0.839045C17.0272 1.21205 18.0753 1.81819 18.8044 2.51757C19.5336 3.26358 20.0348 4.14947 20.3083 5.17524C20.5817 6.20101 20.7184 7.36665 20.7184 8.62555C20.7184 10.1642 20.5361 11.4697 20.2171 12.5887C19.8981 13.7078 19.3057 14.6403 18.4854 15.3397C17.6652 16.0857 16.5715 16.5986 15.2043 16.9716C13.8372 17.3446 12.1055 17.4844 10.0093 17.4844H0.166016V0.23291H10.4194ZM9.18901 14.9667C10.2827 14.9667 11.1941 14.8734 11.8777 14.6403C12.5612 14.4538 13.0625 14.0808 13.4727 13.6145C13.8828 13.1482 14.1106 12.4955 14.2474 11.7028C14.3841 10.9102 14.4296 9.93107 14.4296 8.76542C14.4296 7.78628 14.3841 6.90039 14.2474 6.15438C14.1106 5.40837 13.8828 4.80223 13.5182 4.28935C13.1537 3.77647 12.6068 3.40346 11.9233 3.17033C11.2397 2.9372 10.2827 2.79733 9.09787 2.79733H6.45477V14.9667H9.18901Z" fill="white"/>
<path d="M29.6045 0.419922H23.6348V17.5316H29.6045V0.419922Z" fill="white"/>
<path d="M41.1338 0.419922H44.5972V3.40397H41.1338V12.6825C41.1338 13.3819 41.2706 13.8481 41.544 14.1279C41.8174 14.4077 42.4098 14.5475 43.2757 14.5475C43.5035 14.5475 43.7314 14.5475 43.9592 14.5475C44.1871 14.5475 44.4149 14.5009 44.5972 14.5009V17.5316C43.9136 17.5316 43.2757 17.5316 42.6832 17.5782C42.0453 17.6248 41.4073 17.6248 40.7237 17.6248C39.5844 17.6248 38.6275 17.5782 37.8983 17.4383C37.1692 17.3451 36.5768 17.1119 36.2122 16.7389C35.8021 16.4126 35.5742 15.9463 35.3919 15.3402C35.2552 14.7807 35.1641 14.0346 35.1641 13.1954V3.40397H32.1108V0.419922H35.1641H41.1338Z" fill="white"/>
<path d="M52.481 0.419632V2.75092H52.5721C53.1646 1.91166 53.9393 1.2589 54.8051 0.746012C55.671 0.233129 56.7191 0 57.9951 0C58.1773 0 58.3596 0 58.5419 0C58.7242 0 58.9065 0 59.0888 0.0466258V4.28957C58.7698 4.24294 58.4508 4.24295 58.1318 4.24295C57.8128 4.24295 57.4938 4.24295 57.1748 4.24295C56.6735 4.24295 56.1267 4.28957 55.6254 4.38282C55.1241 4.47607 54.6228 4.66258 54.2127 4.89571C53.757 5.12883 53.438 5.45521 53.1646 5.82822C52.8911 6.20123 52.7544 6.71411 52.7544 7.27362V17.5313H46.7847V0.419632H52.481Z" fill="white"/>
<path d="M69.3877 17.8579C67.2003 17.8579 65.5142 17.5782 64.2838 17.0653C63.0534 16.5524 62.142 15.853 61.5952 14.9671C61.0027 14.0812 60.6382 13.1487 60.547 12.0297C60.4103 10.9573 60.3647 9.8849 60.3647 8.81251C60.3647 7.64686 60.4559 6.57447 60.6837 5.50208C60.9116 4.42969 61.3217 3.49717 62.0053 2.65791C62.6433 1.81864 63.6003 1.16588 64.8307 0.699626C66.0611 0.233368 67.6561 -0.0463867 69.7067 -0.0463867C71.4384 -0.0463867 72.8967 0.140116 73.9904 0.559748C75.0841 0.97938 75.9955 1.53889 76.6335 2.2849C77.2715 3.03091 77.7272 3.96343 77.955 5.03582C78.1829 6.10821 78.3196 7.27386 78.3196 8.62601V9.60515H66.4256V10.9573C66.4256 11.4702 66.4712 11.9364 66.5624 12.4493C66.6535 12.9156 66.8358 13.3352 67.0636 13.7082C67.2915 14.0812 67.6105 14.361 67.9751 14.5941C68.3396 14.8272 68.8409 14.9205 69.3877 14.9205V17.8579ZM72.3043 5.31558C72.2131 4.80269 72.0764 4.38306 71.8486 4.05668C71.6207 3.7303 71.3017 3.45055 70.9372 3.26404C70.527 3.07754 70.0257 2.98429 69.4333 2.98429C68.8409 2.98429 68.3396 3.07754 67.9295 3.26404C67.5193 3.45055 67.2004 3.7303 66.9725 4.05668C66.7446 4.38306 66.5624 4.75607 66.4712 5.12907C66.3801 5.54871 66.3345 5.92171 66.3345 6.34134V6.9941H72.4866C72.441 6.38797 72.3954 5.82846 72.3043 5.31558Z" fill="white"/>
<path d="M35.7115 20.5151H29.7417V37.6268H35.7115V20.5151Z" fill="white"/>
<path d="M46.648 20.5151H50.1114V23.4992H46.648V32.7311C46.648 33.4305 46.7847 33.8967 47.0581 34.1765C47.3316 34.4562 47.924 34.5961 48.7898 34.5961C49.0177 34.5961 49.2455 34.5961 49.4734 34.5961C49.7012 34.5961 49.9291 34.5495 50.1114 34.5495V37.5802C49.4278 37.5802 48.7898 37.5802 48.1974 37.6268C47.5594 37.6734 46.9214 37.6734 46.2379 37.6734C45.0986 37.6734 44.1416 37.6268 43.4125 37.4869C42.6833 37.3937 42.0909 37.1605 41.7264 36.7875C41.3162 36.4612 41.0884 35.9949 40.9061 35.3888C40.7694 34.8293 40.6782 34.0832 40.6782 33.244V23.4526H37.625V20.5151H40.6782H46.648Z" fill="white"/>
<path d="M60.4105 20.0957C62.1878 20.0957 63.646 20.2356 64.7397 20.4687C65.8334 20.7018 66.6993 21.0748 67.2917 21.5411C67.8841 22.0074 68.2943 22.5669 68.5221 23.2196C68.75 23.8724 68.8411 24.5718 68.8411 25.3178V34.3166C68.8411 35.1092 68.8867 35.762 68.9778 36.1816C69.069 36.6479 69.2968 37.1141 69.5702 37.627H63.8283C63.646 37.3472 63.4638 37.0675 63.3726 36.7411C63.2815 36.4147 63.1903 36.135 63.0992 35.8086H63.0536C62.3701 36.6945 61.5498 37.3006 60.6384 37.5337C59.727 37.8135 58.5421 37.9534 57.0839 37.9534C56.0357 37.9534 55.1699 37.8135 54.4408 37.5804C53.7116 37.3006 53.1192 36.9276 52.7091 36.508C52.2534 36.0417 51.9344 35.5288 51.7521 34.9227C51.5698 34.3632 51.4331 33.7571 51.4331 33.1975C51.4331 32.4049 51.5698 31.7055 51.7977 31.0994C52.0255 30.5399 52.3901 30.027 52.8458 29.6074C53.3015 29.1877 53.9395 28.8614 54.6686 28.5816C55.3978 28.3018 56.3092 28.0687 57.3573 27.8356L60.7295 27.1828C61.6409 26.9963 62.2334 26.7632 62.5979 26.4834C62.9625 26.2037 63.0992 25.7374 63.0992 25.1779C63.0992 24.5252 62.8713 24.0123 62.4612 23.6393C62.0511 23.2663 61.3219 23.0798 60.3194 23.0798L60.4105 20.0957ZM61.8232 29.654C61.3675 29.7939 60.9574 29.8871 60.5472 29.9337C59.3168 30.1202 58.451 30.4466 57.9497 30.8663C57.4484 31.3325 57.175 31.892 57.175 32.6847C57.175 33.3374 57.3573 33.8969 57.6763 34.3632C57.9953 34.8294 58.5877 35.0626 59.408 35.0626C59.8181 35.0626 60.2282 35.016 60.684 34.9227C61.1397 34.8295 61.5042 34.6896 61.8688 34.4564C62.2334 34.2233 62.5068 33.9902 62.7802 33.6172C63.0081 33.2908 63.1448 32.8712 63.1448 32.4049V29.0479C62.7346 29.3276 62.2789 29.5141 61.8232 29.654Z" fill="white"/>
<path d="M78.0918 14.9204H72.1221V37.6272H78.0918V14.9204Z" fill="white"/>
<path d="M87.3428 20.5151H81.373V37.6268H87.3428V20.5151Z" fill="white"/>
<path d="M97.9605 20.0957C99.7378 20.0957 101.196 20.2356 102.29 20.4687C103.383 20.7018 104.249 21.0748 104.842 21.5411C105.434 22.0074 105.844 22.5669 106.072 23.2196C106.3 23.8724 106.391 24.5718 106.391 25.3178V34.3166C106.391 35.1092 106.437 35.762 106.528 36.1816C106.619 36.6479 106.847 37.1141 107.12 37.627H101.378C101.196 37.3472 101.014 37.0675 100.923 36.7411C100.831 36.4147 100.74 36.135 100.649 35.8086H100.558C99.8745 36.6945 99.0542 37.3006 98.1428 37.5337C97.2314 37.8135 96.0465 37.9534 94.5883 37.9534C93.5401 37.9534 92.6743 37.8135 91.9452 37.5804C91.216 37.3006 90.6236 36.9276 90.2135 36.508C89.7578 36.0417 89.4388 35.5288 89.2565 34.9227C89.0742 34.3632 88.9375 33.7571 88.9375 33.1975C88.9375 32.4049 89.0742 31.7055 89.3021 31.0994C89.5299 30.5399 89.8945 30.027 90.3502 29.6074C90.8059 29.1877 91.4439 28.8614 92.173 28.5816C92.9021 28.3018 93.8136 28.0687 94.8617 27.8356L98.2339 27.1828C99.1453 26.9963 99.7378 26.7632 100.102 26.4834C100.467 26.2037 100.604 25.7374 100.604 25.1779C100.604 24.5252 100.376 24.0123 99.9656 23.6393C99.5555 23.2663 98.8263 23.0798 97.8238 23.0798L97.9605 20.0957ZM99.3732 29.654C98.9175 29.7939 98.5073 29.8871 98.0972 29.9337C96.8668 30.1202 96.001 30.4466 95.4997 30.8663C94.9984 31.3325 94.725 31.892 94.725 32.6847C94.725 33.3374 94.9073 33.8969 95.2263 34.3632C95.5908 34.8294 96.1377 35.0626 96.9579 35.0626C97.3681 35.0626 97.7782 35.016 98.2339 34.9227C98.6896 34.8295 99.0542 34.6896 99.4188 34.4564C99.7833 34.2233 100.057 33.9902 100.33 33.6172C100.558 33.2908 100.695 32.8712 100.695 32.4049V29.0479C100.285 29.3276 99.8745 29.5141 99.3732 29.654Z" fill="white"/>
</g>
<defs>
<clipPath id="clip0_522_838">
<rect width="107" height="38" fill="white" transform="translate(0.166016)"/>
</clipPath>
</defs>
</svg>
