<svg width="159" height="23" viewBox="0 0 159 23" fill="none" xmlns="http://www.w3.org/2000/svg">
<g clip-path="url(#clip0_522_1028)">
<path d="M5.6961 14.4469C5.6961 12.5063 6.55791 9.775 9.50246 9.775C12.447 9.775 13.6679 12.4344 13.6679 14.4469C13.6679 16.5312 12.6625 19.1906 9.57428 19.1906C6.55791 19.1906 5.6961 16.4594 5.6961 14.4469ZM13.8116 21.85H18.2643V0.359375H13.6679V8.76875H13.5961C12.2316 7.40312 10.5797 6.68438 8.28155 6.68438C2.89519 6.75625 0.884277 10.35 0.884277 14.4469C0.884277 18.4719 2.89519 22.2094 8.35337 22.2094C10.5079 22.2094 12.447 21.6344 13.8116 20.1969V21.85Z" fill="white"/>
<path d="M19.8442 14.5907C19.8442 18.8313 23.2197 22.2095 29.1088 22.2095C34.9979 22.2095 38.3733 18.8313 38.3733 14.5907C38.3733 9.70322 34.3515 6.75635 29.1088 6.75635C23.8661 6.75635 19.8442 9.70322 19.8442 14.5907ZM24.6561 14.0876C24.6561 11.8595 26.0924 9.70322 29.1088 9.70322C32.1251 9.70322 33.5615 11.7876 33.5615 14.0876C33.5615 16.5313 32.6279 19.1907 29.1088 19.1907C25.5897 19.1907 24.6561 16.5313 24.6561 14.0876Z" fill="white"/>
<path d="M40.0254 21.85H44.6936V7.11562H40.0972V21.85H40.0254ZM40.0254 4.38437H44.6936V0.71875H40.0972V4.38437H40.0254Z" fill="white"/>
<path d="M45.9858 21.8501H50.5822V14.7345C50.5822 12.7938 50.9413 9.7751 54.0295 9.7751C56.6867 9.7751 56.6867 11.7157 56.6867 13.0813V21.8501H61.2831V14.7345C61.2831 12.7938 61.6422 9.7751 64.7304 9.7751C67.3877 9.7751 67.3877 11.7157 67.3877 13.0813V21.8501H71.984V12.5063C71.984 9.2001 70.7631 6.75635 66.3822 6.75635C64.2277 6.75635 61.9295 7.61885 60.8522 9.34385C59.8467 7.54697 58.1231 6.75635 55.6095 6.75635C53.8858 6.75635 51.8031 7.33135 50.3668 9.12822H50.2949V7.11572H45.9858C45.9858 7.11572 45.9858 21.8501 45.9858 21.8501Z" fill="white"/>
<path d="M73.1328 14.5907C73.1328 18.8313 76.5083 22.2095 82.3974 22.2095C88.2864 22.2095 91.6619 18.8313 91.6619 14.5907C91.6619 9.70322 87.6401 6.75635 82.3974 6.75635C77.1546 6.75635 73.1328 9.70322 73.1328 14.5907ZM77.9446 14.0876C77.9446 11.8595 79.381 9.70322 82.3974 9.70322C85.4137 9.70322 86.8501 11.7876 86.8501 14.0876C86.8501 16.5313 85.9164 19.1907 82.3974 19.1907C78.8783 19.1907 77.9446 16.5313 77.9446 14.0876Z" fill="white"/>
<path d="M103.656 7.4749C103.153 7.33115 102.004 6.8999 100.352 6.8999C96.3306 6.8999 93.6016 10.0624 93.6016 14.5187C93.6016 18.5437 95.7561 22.1374 100.137 22.1374C101.43 22.1374 102.507 22.0655 103.656 21.6343L103.512 19.9812C102.507 20.4124 101.502 20.628 100.424 20.628C97.3361 20.628 95.4688 17.8249 95.4688 14.5187C95.4688 10.9968 97.3361 8.40928 100.568 8.40928C101.502 8.40928 102.579 8.69678 103.512 9.12803L103.656 7.4749Z" fill="white"/>
<path d="M115.793 7.25928H114.141V15.3093C114.141 17.753 113.208 20.628 110.119 20.628C107.821 20.628 106.888 18.8312 106.888 16.0999V7.25928H105.236V16.603C105.236 19.8374 106.529 22.2093 109.904 22.2093C112.705 22.2093 113.782 20.5562 114.285 19.2624H114.357V21.8499H116.009C115.937 20.6999 115.937 19.5499 115.937 18.3999L115.793 7.25928Z" fill="white"/>
<path d="M127.715 7.4749C127.212 7.33115 126.063 6.8999 124.411 6.8999C120.389 6.8999 117.66 10.0624 117.66 14.5187C117.66 18.5437 119.815 22.1374 124.196 22.1374C125.488 22.1374 126.566 22.0655 127.715 21.6343L127.571 19.9812C126.566 20.4124 125.56 20.628 124.483 20.628C121.395 20.628 119.527 17.8249 119.527 14.5187C119.527 10.9968 121.395 8.40928 124.627 8.40928C125.56 8.40928 126.637 8.69678 127.571 9.12803L127.715 7.4749Z" fill="white"/>
<path d="M129.223 21.8502H130.875V7.25957H129.223V21.8502ZM130.875 0.93457H129.223V3.30645H130.875V0.93457Z" fill="white"/>
<path d="M133.819 21.85H135.471V13.7281C135.471 11.2844 136.405 8.40937 139.493 8.40937C141.791 8.40937 142.725 10.2063 142.725 12.9375V21.7781H144.377V12.4344C144.377 9.2 143.084 6.82812 139.709 6.82812C136.908 6.82812 135.83 8.48125 135.328 9.775H135.256V7.1875H133.604C133.676 8.3375 133.676 9.4875 133.676 10.6375L133.819 21.85Z" fill="white"/>
<path d="M156.155 19.55C155.365 20.125 153.57 20.6281 152.349 20.6281C149.404 20.6281 147.896 18.1125 147.896 15.0219H157.232V14.0875C157.232 10.2062 155.652 6.82812 151.846 6.82812C148.399 6.82812 146.101 9.99063 146.101 14.4469C146.101 18.8312 147.752 22.0656 152.277 22.0656C153.498 22.0656 155.078 21.7781 156.227 21.275L156.155 19.55ZM147.824 13.5125C147.824 11.1406 149.332 8.48125 151.846 8.48125C154.36 8.48125 155.293 10.9969 155.293 13.5125H147.824Z" fill="white"/>
</g>
<defs>
<clipPath id="clip0_522_1028">
<rect width="158" height="23" fill="white" transform="translate(0.166016)"/>
</clipPath>
</defs>
</svg>
