<svg width="81" height="88" viewBox="0 0 81 88" fill="none" xmlns="http://www.w3.org/2000/svg">
<g clip-path="url(#clip0_522_1012)">
<path d="M32.8698 0.000976562H23.8784V9.8619H32.8698V0.000976562Z" fill="white"/>
<path d="M32.9913 65.638V78.0665H24V65.638V50.6296V15H32.9913V50.6296V65.638Z" fill="white"/>
<path d="M14.2438 13.8249C13.2738 13.8271 12.3173 14.0519 11.4474 14.4819C10.5775 14.9119 9.81738 15.5357 9.22522 16.3056V0.000976562H0.233887V77.6046H9.22522V75.7441C10.0383 76.7861 11.155 77.5486 12.4201 77.9257C13.6853 78.3027 15.0363 78.2756 16.2854 77.8481C17.5345 77.4206 18.6198 76.6139 19.3905 75.54C20.1613 74.4661 20.5794 73.1783 20.5866 71.8555V20.1942C20.5866 18.5071 19.9187 16.8889 18.7296 15.6948C17.5404 14.5007 15.9271 13.8282 14.2438 13.8249V13.8249ZM11.8737 50.1677V68.8414C11.8737 69.6228 11.3292 70.6151 10.5495 70.6151C9.76978 70.6151 9.22522 69.6228 9.22522 68.8414V23.3075C9.22522 22.5199 9.76978 21.5338 10.5495 21.5338C11.3292 21.5338 11.8737 22.5199 11.8737 23.3075V50.1677Z" fill="white"/>
<path d="M50.0236 13.8249C49.0536 13.8271 48.0971 14.0519 47.2272 14.4819C46.3573 14.9119 45.5972 15.5357 45.005 16.3056V0.000976562H36.0137V77.6046H45.005V75.744C45.8177 76.7924 46.9368 77.56 48.2061 77.9396C49.4753 78.3193 50.8312 78.292 52.0842 77.8615C53.3372 77.4311 54.4247 76.619 55.1947 75.5389C55.9647 74.4587 56.3787 73.1644 56.3788 71.8369V20.1942C56.3788 18.5049 55.7092 16.8849 54.5174 15.6904C53.3255 14.4959 51.7091 13.8249 50.0236 13.8249V13.8249ZM47.6535 50.1677V68.8414C47.6535 69.6228 47.109 70.6151 46.3293 70.6151C45.5496 70.6151 45.005 69.6228 45.005 68.8414V23.3075C45.005 22.5199 45.5496 21.5338 46.3293 21.5338C47.109 21.5338 47.6535 22.5199 47.6535 23.3075V50.1677Z" fill="white"/>
<path d="M72.8637 13.8682H66.8303C64.8937 13.8682 63.0364 14.6392 61.667 16.0116C60.2976 17.384 59.5283 19.2454 59.5283 21.1863V35.5622H68.5197V23.0345C68.5197 22.2468 69.0642 21.2608 69.8439 21.2608C70.6236 21.2608 71.1744 22.2468 71.1744 23.0345V36.7157C71.1744 38.7189 59.7944 41.5594 59.7944 49.3985V71.8554C59.7966 73.1826 60.2121 74.4761 60.9829 75.5554C61.7536 76.6347 62.8413 77.446 64.0941 77.8761C65.347 78.3063 66.7025 78.3338 67.9718 77.9549C69.241 77.5761 70.3606 76.8096 71.1744 75.7625V77.6231H80.1657V21.1863C80.1657 20.2253 79.9768 19.2737 79.6099 18.3858C79.2429 17.4979 78.705 16.6912 78.027 16.0116C77.3489 15.3321 76.544 14.793 75.6581 14.4252C74.7721 14.0575 73.8226 13.8682 72.8637 13.8682V13.8682ZM71.1744 50.1675V68.8413C71.1744 69.6227 70.6298 70.615 69.8439 70.615C69.058 70.615 68.5197 69.6227 68.5197 68.8413V50.1675C68.5197 47.2527 71.1744 47.2961 71.1744 45.8262V50.1675Z" fill="white"/>
<path d="M1.08789 86.1134C1.08789 86.9258 1.7067 87.2421 2.41833 87.2421C3.12997 87.2421 3.53219 86.8452 3.53219 86.4483C3.53844 86.3115 3.49934 86.1764 3.42098 86.0643C3.34262 85.9521 3.22942 85.869 3.09902 85.8281C2.72774 85.6854 2.25125 85.5924 1.52724 85.394C1.2041 85.3503 0.907857 85.1903 0.693788 84.9438C0.479719 84.6973 0.362454 84.3811 0.363876 84.0544C0.363876 83.0001 1.33541 82.5039 2.28838 82.5039C3.38368 82.5039 4.30571 83.0869 4.30571 84.1846H3.38368C3.34036 83.5086 2.88244 83.2543 2.25125 83.2543C1.82427 83.2543 1.28591 83.4094 1.28591 83.9427C1.28591 84.3148 1.53343 84.5195 1.90472 84.6249C1.98516 84.6249 3.14234 84.9474 3.42699 85.0281C3.72068 85.1095 3.97959 85.2852 4.16403 85.5283C4.34846 85.7714 4.44823 86.0685 4.44803 86.3739C4.44803 87.5522 3.40224 88.0297 2.35645 88.0297C1.15596 88.0297 0.18442 87.453 0.159668 86.1692L1.08789 86.1134Z" fill="white"/>
<path d="M15.0666 82.5972H16.0444L18.0741 87.8749H17.084L16.5889 86.4795H14.4911L13.9961 87.8749H13.0493L15.0666 82.5972ZM14.7387 85.7725H16.3476L15.5617 83.5088L14.7387 85.7725Z" fill="white"/>
<path d="M26.9731 82.5972H27.8952V87.0749H30.5684V87.8749H26.9731V82.5972Z" fill="white"/>
<path d="M44.368 85.239C44.368 86.7398 43.4212 87.9988 41.8433 87.9988C40.2653 87.9988 39.3247 86.7584 39.3247 85.239C39.3247 83.7195 40.2715 82.4854 41.8433 82.4854C43.4151 82.4854 44.368 83.7257 44.368 85.239ZM40.2467 85.239C40.2467 86.2499 40.717 87.2422 41.8433 87.2422C42.9695 87.2422 43.446 86.2499 43.446 85.239C43.446 84.2281 42.9757 83.2234 41.8433 83.2234C40.7108 83.2234 40.2467 84.2219 40.2467 85.239V85.239Z" fill="white"/>
<path d="M53.105 82.5972H57.3624V83.3972H55.6916V87.8749H54.7696V83.3972H53.105V82.5972Z" fill="white"/>
<path d="M65.8779 82.5972H70.1353V83.3972H68.4646V87.8749H67.5425V83.3972H65.8779V82.5972Z" fill="white"/>
<path d="M79.1445 82.5972H80.0666V87.8749H79.1445V82.5972Z" fill="white"/>
</g>
<defs>
<clipPath id="clip0_522_1012">
<rect width="80" height="88" fill="white" transform="translate(0.166016)"/>
</clipPath>
</defs>
</svg>
