<svg width="143" height="33" viewBox="0 0 143 33" fill="none" xmlns="http://www.w3.org/2000/svg">
<path d="M18.1883 23.4309C18.1512 24.1204 17.8219 31.5784 12.609 31.5784C11.6625 31.5784 7.15165 31.4189 7.04965 22.9494C7.04965 22.9494 6.45702 13.1864 12.5543 13.228C18.6481 13.2679 18.2293 22.7488 18.1883 23.4309ZM12.6346 12.4627C8.93353 12.4627 7.26163 15.7826 7.02857 16.2937L7.16761 0.240234H0.283972V1.03745H3.27277V31.0588H0.166016V31.824H6.88839L6.91688 28.9874C7.75739 30.5533 9.28968 32.305 12.1189 32.305C17.064 32.305 21.4683 29.4165 21.4683 22.4377C21.4688 15.3518 16.6446 12.4627 12.6346 12.4627Z" fill="white"/>
<path d="M41.4159 30.9897C40.4386 31.4529 39.1531 31.5994 38.561 30.3309C37.9627 29.0613 38.5359 20.9109 38.5826 19.8585C38.6299 18.8105 39.369 12.2432 31.5896 12.2432C23.8073 12.2432 25.2348 19.2026 26.9716 19.2248C28.7079 19.2482 29.0897 17.0748 28.7079 15.591C28.3296 14.0997 28.5649 12.9988 31.0408 12.903C33.5168 12.8044 35.0628 14.123 35.0628 17.4173C35.0628 20.7126 31.9457 21.7743 31.9457 21.7743C31.4437 21.9925 30.3998 22.4666 28.4709 23.1185C25.2598 24.2023 23.4027 26.2429 23.8068 28.4875C24.2136 30.7338 25.4251 32.1481 29.6596 32.1732C33.9516 32.1989 34.9397 29.4819 35.0508 29.128C34.9949 29.332 34.8092 30.3816 36.3489 31.6575C38.1102 33.1243 41.6541 31.3828 41.6541 31.3828L41.4159 30.9897ZM32.3264 30.9965C29.4818 31.9846 27.9244 30.5207 27.4942 28.2772C27.0674 26.0355 28.1398 24.2377 30.1622 23.363C32.0119 22.5549 34.6832 21.2249 34.6832 21.2249C35.0873 23.1282 35.2035 29.9987 32.3264 30.9965Z" fill="white"/>
<path d="M99.7783 30.9758L90.5965 19.1995L96.5154 13.6282H99.7886L99.6575 12.7854H92.9876V13.6356H95.6766L87.3684 21.0749L87.2613 21.5097L94.843 31.0094H92.069V31.8169H101.399L101.417 30.9781H99.78V30.9764H99.7783V30.9758ZM87.1655 0H80.5537V0.804603H83.5967L83.5796 30.8538H80.6016L80.6318 31.7211L89.5207 31.7132V30.8715H87.1655V0Z" fill="white"/>
<path d="M102.574 30.9731L102.6 31.8136H111.92V31.0073H109.148L116.734 21.5098L116.626 21.0705L108.317 13.6364H111.007V12.7862H104.333L104.207 13.629H107.475L113.398 19.1963L104.214 30.9748H102.576V30.9737H102.574V30.9731ZM116.829 30.8774H114.472V31.7145L123.356 31.7241L123.389 30.858H120.412L120.4 0.803062H123.439V0.00244141H116.828V30.8785L116.829 30.8774Z" fill="white"/>
<path d="M72.1607 31.431C67.4163 31.8265 66.0629 27.5977 65.8879 23.5251C65.6822 18.7025 65.9472 11.232 72.6457 12.7785C76.8083 13.7461 76.9924 19.1333 76.9764 22.6361C76.9519 26.0329 76.3314 31.0862 72.1607 31.431ZM80.9368 21.1574C80.539 16.1474 75.9644 11.8793 71.0398 12.0884C65.917 12.3061 61.3304 17.2905 61.6603 22.5905C61.9806 27.7373 66.6806 32.2105 71.7396 31.9718C76.7661 31.733 81.3471 26.2751 80.9368 21.1574Z" fill="white"/>
<path d="M133.82 31.431C129.072 31.8265 127.719 27.5977 127.548 23.5251C127.338 18.7025 127.607 11.232 134.305 12.7785C138.466 13.7461 138.654 19.1333 138.634 22.6361C138.61 26.0329 137.994 31.0863 133.82 31.431ZM142.6 21.1574C142.203 16.1417 137.626 11.8793 132.699 12.0884C127.575 12.3061 122.987 17.2905 123.318 22.5905C123.638 27.7373 128.345 32.2105 133.397 31.9718C138.417 31.733 143.004 26.2751 142.6 21.1574Z" fill="white"/>
<path d="M97.3993 19.4058L97.2613 19.465C96.8898 18.8758 96.6391 18.5584 96.2755 18.5584C95.8869 18.5584 95.48 19.0023 95.48 20.2503C95.48 21.4817 95.794 21.9438 96.2436 21.9438C96.6852 21.9438 96.7587 21.5449 96.7587 21.0891C96.7587 20.6868 96.6733 20.6537 96.3604 20.6286V20.4366H97.7372V20.6286C97.4021 20.6742 97.369 20.7865 97.369 21.1574V21.8823C97.0836 21.8891 97.0665 21.8982 96.8083 21.9911C96.5992 22.0686 96.4146 22.1296 96.1929 22.1296C95.3222 22.1296 94.7734 21.4253 94.7734 20.3756C94.7734 19.3801 95.3552 18.3618 96.2442 18.3618C96.3639 18.3618 96.4704 18.4011 96.5616 18.4325C96.6516 18.4729 96.7354 18.5077 96.8066 18.5077C96.9109 18.5077 97.0608 18.4325 97.1491 18.363L97.3993 19.4058Z" fill="white"/>
<path d="M62.0319 30.9758L52.8495 19.1984L58.7667 13.6271H62.0393L61.9094 12.7843H55.2349V13.6339H57.9217L49.6203 21.0732L49.5103 21.5079L57.096 31.0083H54.3203V31.8152H63.6463L63.6662 30.9764L62.0319 30.9758ZM49.4146 0H42.8027V0.804603H45.848L45.8286 30.8538H42.8529L42.8837 31.7211L51.7708 31.7132V30.8715H49.4146V0Z" fill="white"/>
<path d="M101.579 20.2424C101.579 21.4739 101.87 21.9394 102.304 21.9394C103.046 21.9394 103.106 20.9143 103.106 20.2459C103.106 18.9848 102.786 18.5563 102.353 18.5563C101.887 18.5563 101.579 19.0583 101.579 20.2424ZM100.873 20.2892C100.873 19.2452 101.425 18.3677 102.327 18.3677C103.241 18.3677 103.808 19.133 103.808 20.2128C103.808 21.2032 103.257 22.1269 102.323 22.1269C101.441 22.1303 100.873 21.3684 100.873 20.2892Z" fill="white"/>
<path d="M105.105 20.794C105.092 21.6795 105.332 21.9405 105.769 21.9405C106.352 21.9405 106.537 21.5012 106.537 20.7878V19.0646C106.537 18.7238 106.437 18.615 106.144 18.615V18.4537H107.142V18.615C106.846 18.615 106.748 18.7238 106.748 19.0646V20.8265C106.748 21.6807 106.441 22.1292 105.651 22.1292C104.84 22.1292 104.439 21.6898 104.439 20.9302V19.0634C104.439 18.7227 104.336 18.6138 104.048 18.6138V18.4531H105.497V18.6138C105.204 18.6138 105.105 18.7227 105.105 19.0634V20.794Z" fill="white"/>
<path d="M98.9454 20.0995C99.6155 20.0995 99.8167 19.834 99.8167 19.3166C99.8167 18.8191 99.5819 18.6419 99.1471 18.6419C98.8782 18.6419 98.8696 18.765 98.8696 19.0436V20.0995H98.9454ZM100.225 21.2142C100.374 21.5464 100.512 21.849 100.858 21.8797V22.041H99.8526C99.7837 21.9105 99.7364 21.7686 99.6799 21.6301L99.4452 21.017C99.2013 20.3811 99.0412 20.3275 98.8731 20.3275V21.4318C98.8731 21.7737 98.9711 21.8797 99.2651 21.8797V22.041H97.8154V21.8797C98.1032 21.8797 98.2069 21.7726 98.2069 21.4318V19.0619C98.2069 18.7194 98.1032 18.6146 97.8154 18.6146V18.4521H99.5557C100.16 18.4521 100.526 18.8431 100.526 19.3605C100.526 19.9007 100.135 20.1605 99.7466 20.2443C99.8708 20.3497 99.9386 20.5184 100.001 20.6842L100.225 21.2142Z" fill="white"/>
<path d="M108.332 20.205H108.573C109.059 20.205 109.28 19.9867 109.28 19.4146C109.28 18.8778 109.044 18.643 108.659 18.643C108.331 18.643 108.331 18.7946 108.331 19.1314V20.2038L108.332 20.205ZM108.332 20.3953V21.4318C108.332 21.7737 108.437 21.8797 108.73 21.8797V22.041H107.275V21.8797C107.571 21.8797 107.666 21.7726 107.666 21.4318V19.0619C107.666 18.7194 107.568 18.6146 107.275 18.6146V18.4521H108.733C109.645 18.4521 109.988 18.9131 109.988 19.4004C109.988 20.2996 109.263 20.393 108.685 20.393H108.333L108.332 20.3953Z" fill="white"/>
</svg>
