<svg width="157" height="41" viewBox="0 0 157 41" fill="none" xmlns="http://www.w3.org/2000/svg">
<g clip-path="url(#clip0_522_775)">
<path d="M58.8146 20.5311C59.6226 20.6555 60.3806 20.9913 61.0075 21.5025C61.3297 21.7921 61.5856 22.1446 61.7584 22.5369C61.9312 22.9292 62.017 23.3525 62.0103 23.7793C62.0062 24.4918 61.7689 25.1845 61.3328 25.7568C60.887 26.3848 60.2515 26.8622 59.5144 27.1229C58.3726 27.4594 57.1807 27.606 55.9888 27.5566H49.3701V27.1793H49.8916C50.1329 27.2003 50.3758 27.1612 50.5972 27.0656C50.8187 26.97 51.0115 26.821 51.1574 26.6328C51.3614 26.159 51.444 25.6441 51.3981 25.1324V16.2552C51.4615 15.7048 51.3577 15.1485 51.0995 14.6549C50.9432 14.5008 50.754 14.382 50.5452 14.3071C50.3365 14.2321 50.1133 14.2028 49.8916 14.2213H49.3701V13.844H55.4362C56.3459 13.8271 57.2548 13.9086 58.146 14.0868C59.0612 14.2637 59.8948 14.7193 60.5261 15.3878C61.0611 15.9694 61.3549 16.7236 61.3507 17.5041C61.3462 18.1762 61.1056 18.8266 60.6687 19.3472C60.187 19.9142 59.5409 20.3268 58.8146 20.5311ZM53.3904 19.9847C53.6848 20.0402 53.9825 20.0779 54.2818 20.0975C54.6072 20.0975 54.9593 20.1322 55.3604 20.1322C56.1336 20.1669 56.9066 20.058 57.6379 19.8112C58.1268 19.6197 58.5372 19.2768 58.8057 18.8355C59.0636 18.4009 59.1946 17.9061 59.1845 17.4044C59.1838 17.0122 59.0934 16.6251 58.92 16.2711C58.7465 15.9171 58.4944 15.605 58.1817 15.3575C57.341 14.741 56.299 14.4421 55.249 14.5161C54.6179 14.5083 53.9885 14.5812 53.377 14.733L53.3904 19.9847ZM53.3904 26.5244C54.169 26.7027 54.9661 26.793 55.766 26.7933C56.791 26.866 57.8082 26.5731 58.6274 25.9693C58.9384 25.7266 59.1884 25.418 59.3583 25.067C59.5282 24.7161 59.6136 24.332 59.608 23.9441C59.6054 23.4025 59.4513 22.8718 59.1623 22.4089C58.8163 21.8777 58.3014 21.4711 57.6959 21.251C56.9053 20.9451 56.0594 20.7976 55.2089 20.8174H54.108C53.8615 20.8267 53.6158 20.8513 53.3725 20.8911L53.3904 26.5244Z" fill="white"/>
<path d="M65.4286 21.7538C65.352 22.916 65.7186 24.0648 66.4582 24.9803C66.7479 25.3411 67.1176 25.6334 67.5398 25.8354C67.962 26.0374 68.4257 26.1439 68.8962 26.1469C69.4768 26.1601 70.0456 25.9863 70.5141 25.6525C71.0579 25.2012 71.4583 24.6086 71.6685 23.9439L71.9938 24.1434C71.8309 25.0877 71.3825 25.9634 70.7058 26.6586C70.3811 27.0217 69.9786 27.3112 69.5266 27.5068C69.0746 27.7023 68.584 27.7992 68.0895 27.7905C67.5328 27.7941 66.982 27.6796 66.4755 27.4549C65.969 27.2302 65.519 26.9008 65.1567 26.4895C64.3096 25.527 63.8727 24.2859 63.9355 23.0202C63.8552 21.6792 64.3012 20.3585 65.1835 19.3253C65.5768 18.9029 66.0591 18.5681 66.5975 18.3436C67.136 18.119 67.7178 18.0101 68.3034 18.0243C68.7894 18.0006 69.2752 18.0759 69.7295 18.2454C70.1839 18.4149 70.5969 18.6749 70.942 19.0087C71.2933 19.3746 71.5658 19.8052 71.7434 20.2752C71.921 20.7452 72.0001 21.245 71.976 21.7452L65.4286 21.7538ZM65.4286 21.1641H69.8233C69.8218 20.7406 69.7496 20.3203 69.6093 19.9194C69.4502 19.5473 69.18 19.23 68.8338 19.0087C68.5162 18.8043 68.1449 18.6929 67.7641 18.6878C67.4746 18.6904 67.1886 18.7502 66.9236 18.8635C66.6585 18.9768 66.4198 19.1413 66.222 19.347C65.7388 19.8436 65.4569 20.4938 65.4286 21.1771V21.1641Z" fill="white"/>
<path d="M76.518 13.1675V25.423C76.4963 25.8103 76.5399 26.1986 76.6473 26.5722C76.7274 26.7563 76.8686 26.909 77.0484 27.0058C77.3703 27.1277 77.7156 27.1795 78.0602 27.1576V27.5176H73.4204V27.1576C73.7241 27.1776 74.0286 27.1317 74.3118 27.0232C74.4813 26.9227 74.6115 26.7701 74.6817 26.5895C74.7964 26.2128 74.8431 25.8196 74.8199 25.4273V17.0358C74.8371 16.3945 74.8117 15.7528 74.7441 15.1147C74.7224 14.9315 74.6412 14.7598 74.5124 14.6246C74.3958 14.5324 74.2479 14.486 74.0979 14.4945C73.8638 14.5066 73.634 14.5611 73.4204 14.655L73.2466 14.3037L76.0813 13.1675H76.518Z" fill="white"/>
<path d="M82.4191 13.1675V25.423C82.3928 25.8104 82.4366 26.1994 82.5484 26.5722C82.6266 26.7575 82.7683 26.9107 82.9495 27.0058C83.2682 27.1276 83.6107 27.1795 83.9523 27.1576V27.5176H79.2992V27.1576C79.603 27.1793 79.9078 27.1333 80.1906 27.0232C80.3618 26.9235 80.4936 26.7708 80.565 26.5895C80.6818 26.2132 80.7286 25.8196 80.7032 25.4273V17.0358C80.7248 16.3945 80.6994 15.7525 80.6274 15.1147C80.6075 14.931 80.5261 14.7588 80.3956 14.6246C80.2824 14.5326 80.1373 14.486 79.99 14.4945C79.7559 14.5061 79.526 14.5606 79.3126 14.655L79.1343 14.3037L81.9645 13.1675H82.4191Z" fill="white"/>
<path d="M89.6973 17.9984C90.3625 17.979 91.0229 18.1136 91.6242 18.391C92.2255 18.6685 92.7505 19.0809 93.156 19.5943C93.8911 20.4798 94.2852 21.5873 94.2702 22.7254C94.2576 23.5953 94.0459 24.4516 93.6507 25.232C93.3136 26.0059 92.7455 26.6634 92.02 27.1196C91.2945 27.5758 90.445 27.8095 89.5814 27.7907C88.9191 27.8079 88.2626 27.6652 87.6707 27.3754C87.0789 27.0856 86.57 26.6576 86.1896 26.1297C85.4857 25.2241 85.111 24.1166 85.1244 22.9813C85.1463 22.1016 85.3782 21.239 85.8018 20.4617C86.1603 19.7034 86.736 19.062 87.4599 18.6142C88.1344 18.2152 88.9079 18.0023 89.6973 17.9984ZM89.3719 18.6576C88.9826 18.6659 88.6025 18.7752 88.271 18.9742C87.8574 19.2416 87.5445 19.6329 87.3796 20.0887C87.1339 20.7438 87.019 21.4386 87.0409 22.1356C87.008 23.341 87.2902 24.5347 87.861 25.605C88.0424 26.0255 88.3434 26.3869 88.7288 26.6466C89.1141 26.9062 89.5677 27.0534 90.036 27.0708C90.3582 27.0732 90.6764 27.0013 90.9646 26.8611C91.2527 26.7209 91.5027 26.5164 91.6941 26.2641C92.2149 25.4316 92.4521 24.4602 92.3715 23.4887C92.451 22.1157 92.0693 20.7549 91.284 19.6117C91.0738 19.3087 90.7883 19.0624 90.454 18.8956C90.1197 18.7288 89.7475 18.6469 89.3719 18.6576Z" fill="white"/>
<path d="M98.4201 15.2402V18.2759H100.649V18.9828H98.4201V24.9674C98.3765 25.3889 98.4684 25.8132 98.683 26.1817C98.7644 26.2798 98.8678 26.3585 98.9852 26.4119C99.1026 26.4653 99.2309 26.4918 99.3605 26.4896C99.6041 26.4928 99.8427 26.4215 100.042 26.2858C100.266 26.1332 100.439 25.9208 100.542 25.6743H100.943C100.755 26.2675 100.394 26.7949 99.9043 27.1921C99.5265 27.4954 99.0566 27.6692 98.5671 27.6865C98.2388 27.6832 97.9173 27.5949 97.6356 27.4307C97.3358 27.2623 97.0986 27.0057 96.9582 26.6978C96.7905 26.2226 96.7164 25.7209 96.7398 25.219V18.9828H95.2422V18.6445C95.6752 18.4658 96.0709 18.2115 96.4099 17.8943C96.817 17.5234 97.1722 17.102 97.4663 16.641C97.727 16.1908 97.9534 15.7226 98.1437 15.2402H98.4201Z" fill="white"/>
<path d="M104.321 15.2402V18.2759H106.549V18.9828H104.321V24.9674C104.277 25.3889 104.369 25.8132 104.584 26.1817C104.665 26.2806 104.768 26.3598 104.885 26.4133C105.003 26.4667 105.132 26.4928 105.261 26.4896C105.504 26.4934 105.741 26.422 105.939 26.2858C106.166 26.1365 106.34 25.9231 106.438 25.6743H106.844C106.655 26.2684 106.293 26.796 105.801 27.1921C105.422 27.4939 104.952 27.6661 104.464 27.6822C104.134 27.6784 103.811 27.5901 103.528 27.4263C103.225 27.2616 102.986 27.0039 102.85 26.6934C102.667 26.2186 102.583 25.7127 102.605 25.2059V18.9828H101.076V18.6445C101.507 18.4659 101.899 18.2115 102.235 17.8943C102.647 17.5257 103.006 17.104 103.3 16.641C103.558 16.1895 103.785 15.7215 103.978 15.2402H104.321Z" fill="white"/>
<path d="M110.704 17.9981V25.4226C110.677 25.8115 110.721 26.2019 110.833 26.5761C110.908 26.7594 111.044 26.9123 111.221 27.0098C111.512 27.1279 111.828 27.1783 112.143 27.1572V27.5172H107.548V27.1572C107.866 27.1801 108.186 27.1342 108.484 27.0228C108.653 26.9195 108.785 26.7681 108.863 26.5891C108.977 26.2124 109.024 25.8192 109.001 25.4269V21.8708C109.03 21.2193 109.003 20.5665 108.921 19.9193C108.895 19.7556 108.817 19.6039 108.698 19.4856C108.571 19.3903 108.412 19.3454 108.252 19.3599C108.019 19.3732 107.79 19.4245 107.575 19.5116L107.432 19.1517L110.294 18.0155L110.704 17.9981ZM109.843 13.1671C109.981 13.1653 110.118 13.1909 110.245 13.2424C110.372 13.2938 110.487 13.37 110.583 13.4663C110.779 13.6594 110.888 13.9195 110.888 14.1905C110.888 14.4615 110.779 14.7217 110.583 14.9148C110.489 15.0131 110.374 15.0909 110.247 15.1432C110.119 15.1955 109.982 15.2211 109.843 15.2183C109.705 15.2196 109.567 15.1934 109.439 15.1412C109.311 15.089 109.195 15.0119 109.099 14.9148C108.998 14.8218 108.918 14.7094 108.865 14.5847C108.811 14.46 108.784 14.3257 108.787 14.1905C108.786 14.0573 108.812 13.9251 108.863 13.8015C108.914 13.678 108.99 13.5655 109.086 13.4704C109.182 13.3754 109.297 13.2997 109.423 13.2476C109.549 13.1956 109.684 13.1682 109.821 13.1671H109.843Z" fill="white"/>
<path d="M122.434 14.5809V19.9844H125.528C126.089 20.0463 126.656 19.9226 127.137 19.6331C127.342 19.4122 127.5 19.1541 127.603 18.8735C127.705 18.593 127.75 18.2955 127.734 17.9982H128.122V22.7685H127.734C127.696 22.3241 127.597 21.8865 127.44 21.4675C127.307 21.2209 127.092 21.0263 126.829 20.9168C126.416 20.7568 125.972 20.6857 125.528 20.7086H122.434V25.2101C122.408 25.5795 122.438 25.9507 122.523 26.3116C122.579 26.4455 122.68 26.5571 122.809 26.6282C123.059 26.7241 123.329 26.7627 123.598 26.7409H125.982C126.563 26.763 127.145 26.7105 127.711 26.5848C128.106 26.4572 128.462 26.2384 128.75 25.9473C129.282 25.3835 129.725 24.7464 130.065 24.0565H130.479L129.267 27.4912H118.414V27.1139H118.918C119.246 27.1119 119.568 27.033 119.858 26.8841C119.963 26.8365 120.057 26.7685 120.133 26.6842C120.21 26.5999 120.268 26.5011 120.304 26.394C120.408 25.9682 120.45 25.5302 120.429 25.093V16.2158C120.496 15.6667 120.401 15.1104 120.157 14.6112C119.991 14.463 119.795 14.3508 119.581 14.282C119.368 14.2133 119.142 14.1895 118.918 14.2123H118.414V13.835H129.267L129.423 16.8403H129.035C128.959 16.3251 128.796 15.8256 128.554 15.3615C128.363 15.0804 128.087 14.8638 127.765 14.7413C127.291 14.6151 126.799 14.5639 126.307 14.5895L122.434 14.5809Z" fill="white"/>
<path d="M139.888 24.6768L139.772 27.513H131.397V27.1531L137.695 18.9828H134.575C134.133 18.9527 133.688 18.9952 133.261 19.1085C133.04 19.2059 132.86 19.3724 132.748 19.5812C132.55 19.9717 132.442 20.3994 132.431 20.8345H132.017L132.079 18.2759H140.04V18.6445L133.679 26.8365H137.174C137.674 26.8666 138.176 26.8063 138.654 26.6587C138.928 26.5248 139.148 26.3047 139.278 26.0342C139.439 25.5977 139.532 25.1402 139.554 24.6768H139.888Z" fill="white"/>
<path d="M144.327 17.9982V25.4226C144.303 25.8115 144.347 26.2016 144.457 26.5762C144.53 26.7588 144.665 26.9116 144.84 27.0099C145.133 27.1277 145.45 27.1782 145.767 27.1573V27.5173H141.154V27.1573C141.472 27.1782 141.791 27.1324 142.09 27.0229C142.26 26.9219 142.391 26.7696 142.464 26.5892C142.585 26.2136 142.633 25.8196 142.607 25.427V21.8709C142.625 21.2205 142.594 20.5697 142.513 19.9237C142.484 19.7602 142.405 19.609 142.286 19.4901C142.163 19.4035 142.014 19.3592 141.863 19.3643C141.628 19.3776 141.398 19.4289 141.181 19.5161L141.038 19.1561L143.895 18.0199L144.327 17.9982ZM143.467 13.1672C143.605 13.1646 143.742 13.1899 143.869 13.2414C143.997 13.2929 144.112 13.3695 144.207 13.4664C144.402 13.6595 144.512 13.9196 144.512 14.1906C144.512 14.4616 144.402 14.7218 144.207 14.9149C144.113 15.0132 143.998 15.091 143.87 15.1433C143.743 15.1956 143.605 15.2212 143.467 15.2184C143.188 15.2162 142.92 15.1071 142.723 14.9149C142.525 14.7226 142.413 14.4625 142.411 14.1906C142.41 13.9211 142.518 13.6621 142.713 13.4702C142.908 13.2784 143.172 13.1695 143.449 13.1672H143.467Z" fill="white"/>
<path d="M151.593 17.9984C152.258 17.979 152.918 18.1136 153.52 18.391C154.121 18.6685 154.646 19.0809 155.051 19.5943C155.786 20.4798 156.181 21.5873 156.166 22.7254C156.156 23.5947 155.947 24.451 155.555 25.232C155.215 26.0041 154.647 26.66 153.922 27.1158C153.197 27.5716 152.349 27.8066 151.486 27.7907C150.823 27.8079 150.167 27.6652 149.575 27.3754C148.983 27.0856 148.474 26.6576 148.094 26.1297C147.39 25.2241 147.015 24.1166 147.029 22.9813C147.045 22.102 147.274 21.2388 147.697 20.4617C148.047 19.7347 148.6 19.1182 149.292 18.6826C149.985 18.2469 150.79 18.0099 151.615 17.9984H151.593ZM151.263 18.6576C150.872 18.6652 150.49 18.7745 150.158 18.9742C149.741 19.2385 149.427 19.6308 149.266 20.0887C149.013 20.7422 148.895 21.4377 148.918 22.1356C148.888 23.3417 149.174 24.5355 149.747 25.605C149.927 26.0258 150.227 26.3876 150.612 26.6474C150.997 26.9073 151.45 27.0542 151.918 27.0708C152.24 27.0728 152.557 27.0008 152.844 26.8606C153.132 26.7204 153.381 26.516 153.572 26.2641C154.097 25.4335 154.335 24.4605 154.249 23.4887C154.329 22.1151 153.946 20.7536 153.157 19.6117C152.949 19.3112 152.666 19.0665 152.335 18.8998C152.004 18.7331 151.635 18.6499 151.263 18.6576Z" fill="white"/>
<path d="M29.4873 4.18161C28.5651 2.92258 27.2902 1.94813 25.8146 1.37442C24.3391 0.800707 22.7251 0.65193 21.1651 0.945821C19.605 1.23971 18.1648 1.96387 17.0159 3.03199C15.8671 4.10011 15.0581 5.46712 14.6855 6.9701L13.5979 5.48695V5.44792L13.5088 5.49996L11.2803 7.04816L16.027 13.5532C17.3374 15.2044 19.2549 16.2967 21.3762 16.6004C23.4974 16.904 25.657 16.3954 27.4006 15.1814C29.1443 13.9674 30.336 12.1427 30.7252 10.0912C31.1144 8.03968 30.6706 5.92127 29.4873 4.18161ZM25.8281 12.7596C25.0127 13.3281 24.0424 13.6487 23.0398 13.6807C22.0372 13.7127 21.0473 13.4547 20.1954 12.9394C19.3435 12.424 18.6677 11.6744 18.2537 10.7854C17.8396 9.89639 17.7057 8.90786 17.869 7.94483C18.0323 6.98179 18.4854 6.0875 19.1711 5.37502C19.8567 4.66255 20.7441 4.1639 21.721 3.94213C22.6979 3.72036 23.7205 3.78543 24.6594 4.1291C25.5983 4.47278 26.4114 5.07963 26.9958 5.87292C27.7764 6.9386 28.09 8.26231 27.8677 9.55294C27.6453 10.8436 26.9053 11.9954 25.8103 12.7552L25.8281 12.7596Z" fill="white"/>
<path d="M16.299 16.1987L16.2143 15.9732L13.2058 18.0591C13.3757 18.9772 13.2746 19.9233 12.914 20.7876C12.5535 21.652 11.9484 22.3991 11.1689 22.9422C10.2467 23.5556 9.14631 23.8644 8.03003 23.8231C6.91375 23.7817 5.84069 23.3923 4.96914 22.7124C4.78617 22.5544 4.62039 22.3786 4.47441 22.1876L15.4967 14.5464C15.4031 14.3903 15.3006 14.2428 15.1936 14.091C13.96 12.4089 12.1099 11.2516 10.025 10.8578C7.94013 10.464 5.77941 10.8638 3.98859 11.9747L3.31112 12.4431C1.64639 13.7271 0.551785 15.584 0.253214 17.6305C-0.0453575 19.6769 0.474888 21.7568 1.70658 23.4409L1.7779 23.5537C2.9495 25.106 4.65354 26.1989 6.58159 26.6347C8.50965 27.0704 10.5343 26.8202 12.2892 25.9292C14.044 25.0383 15.4131 23.5655 16.1486 21.7775C16.8841 19.9895 16.9374 18.0043 16.299 16.1813V16.1987ZM11.3115 14.5551L3.17295 20.1928C3.12796 20.0895 3.08926 19.9838 3.05707 19.8762C2.86074 18.8968 2.95794 17.8831 3.33709 16.956C3.71624 16.0288 4.36135 15.2273 5.19556 14.6468C6.02976 14.0664 7.01789 13.7316 8.04218 13.6823C9.06647 13.6329 10.0837 13.8712 10.9728 14.3686C11.0898 14.4235 11.2029 14.4858 11.3115 14.5551Z" fill="white"/>
<path d="M25.1773 27.5996C25.106 27.4999 25.0346 27.4088 24.9633 27.3221L20.3993 21.0859L18.0192 22.7426L19.1068 24.2127H19.0533C17.4767 24.1017 15.9005 24.432 14.5107 25.1646C13.1209 25.8973 11.9756 27.0016 11.2101 28.3472C10.4447 29.6928 10.091 31.2235 10.1909 32.7584C10.2908 34.2933 10.84 35.7683 11.7738 37.0092C12.7076 38.2502 13.9869 39.2051 15.4605 39.7614C16.9342 40.3176 18.5407 40.4518 20.0903 40.1482C21.6398 39.8446 23.0677 39.1159 24.2053 38.048C25.3428 36.9802 26.1425 35.6179 26.5099 34.122L27.6019 35.6052V35.6442L27.6866 35.5965L29.9151 34.0396L25.1773 27.5996ZM21.2952 36.3554C20.4783 36.9216 19.5072 37.2395 18.5047 37.2688C17.5022 37.2981 16.5132 37.0375 15.6629 36.5201C14.8125 36.0026 14.1389 35.2514 13.7272 34.3616C13.3155 33.4717 13.1842 32.483 13.3499 31.5205C13.5156 30.5581 13.9709 29.665 14.6581 28.9542C15.3454 28.2434 16.2338 27.7469 17.211 27.5273C18.1883 27.3077 19.2105 27.3749 20.1485 27.7205C21.0865 28.066 21.8981 28.6744 22.4808 29.4688C22.8679 29.9966 23.1444 30.5935 23.2944 31.2253C23.4444 31.8572 23.4649 32.5116 23.3548 33.1511C23.2447 33.7907 23.0061 34.4029 22.6527 34.9527C22.2993 35.5025 21.838 35.9792 21.2952 36.3554Z" fill="white"/>
<path d="M37.1625 20.0498C37.7447 21.1568 37.8769 22.4366 37.5325 23.6342C37.1882 24.8317 36.3926 25.8591 35.3045 26.5113C34.2163 27.1636 32.9155 27.3929 31.6613 27.1535C30.4072 26.9141 29.2918 26.2237 28.5375 25.2198C27.7833 24.2159 27.4455 22.9723 27.5917 21.7369C27.7378 20.5015 28.3571 19.365 29.326 18.5541C30.2949 17.7432 31.5424 17.3173 32.8196 17.3614C34.0969 17.4055 35.3102 17.9164 36.2176 18.7921L38.8428 16.9707L38.7224 16.8103C37.2755 15.2856 35.281 14.3611 33.1525 14.2284C31.024 14.0958 28.9246 14.7652 27.2896 16.0979C25.6546 17.4306 24.6094 19.3243 24.3706 21.3866C24.1318 23.4488 24.7177 25.5214 26.0069 27.1747C27.2962 28.8279 29.1898 29.9351 31.2953 30.2666C33.4008 30.5982 35.5566 30.1287 37.316 28.9555C39.0753 27.7823 40.3033 25.9954 40.7452 23.9651C41.1871 21.9349 40.8091 19.817 39.6896 18.0506L37.0377 19.8763L37.1625 20.0498Z" fill="white"/>
</g>
<defs>
<clipPath id="clip0_522_775">
<rect width="156" height="41" fill="white" transform="translate(0.166016)"/>
</clipPath>
</defs>
</svg>
