<svg width="26" height="29" viewBox="0 0 26 29" fill="none" xmlns="http://www.w3.org/2000/svg">
<path d="M17 23.5724C17 25.7815 15.2091 27.5724 13 27.5724C10.7909 27.5724 9 25.7815 9 23.5724L9 22.5724L17 22.5724L17 23.5724Z" stroke="white" stroke-width="2"/>
<path d="M1.00042 22.5811C1.00271 20.7349 1.01762 19.3307 1.11448 18.192C1.22706 16.8684 1.44487 15.9954 1.82655 15.2813C2.47919 14.0603 3.47923 13.0602 4.70022 12.4076C5.41431 12.0259 6.28733 11.8081 7.61092 11.6955C8.94693 11.5819 10.6482 11.5811 13 11.5811C15.3518 11.5811 17.0531 11.5819 18.3891 11.6955C19.7127 11.8081 20.5857 12.0259 21.2998 12.4076C22.5208 13.0602 23.5208 14.0603 24.1734 15.2813C24.5551 15.9954 24.7729 16.8684 24.8855 18.192C24.9824 19.3307 24.9973 20.7349 24.9996 22.5811H1.00042Z" stroke="#A3A3A3" stroke-width="2"/>
<path d="M8 10.5811C8 7.81963 10.2386 5.58105 13 5.58105C15.7614 5.58105 18 7.81963 18 10.5811V11.5811H8V10.5811Z" stroke="#A3A3A3" stroke-width="2"/>
<mask id="path-4-inside-1_1302_6508" fill="white">
<path d="M12 1.08093C12 0.528648 12.4477 0.0809326 13 0.0809326C13.5523 0.0809326 14 0.528648 14 1.08093V6.08093H12V1.08093Z"/>
</mask>
<path d="M14 6.08093V8.08093H16V6.08093H14ZM12 6.08093H10V8.08093H12V6.08093ZM12 1.08093V6.08093H16V1.08093H12ZM14 4.08093H12V8.08093H14V4.08093ZM14 6.08093V1.08093H10V6.08093H14ZM13 2.08093C12.4477 2.08093 12 1.63322 12 1.08093H16C16 -0.575922 14.6569 -1.91907 13 -1.91907V2.08093ZM13 -1.91907C11.3431 -1.91907 10 -0.575921 10 1.08093H14C14 1.63322 13.5523 2.08093 13 2.08093V-1.91907Z" fill="#A3A3A3" mask="url(#path-4-inside-1_1302_6508)"/>
</svg>
