<svg width="30" height="35" viewBox="0 0 30 35" fill="none" xmlns="http://www.w3.org/2000/svg">
<rect x="1.97852" y="3.67761" width="1" height="22" rx="0.5" stroke="white"/>
<rect x="24.1011" y="16.6776" width="1" height="22" rx="0.5" transform="rotate(90 24.1011 16.6776)" stroke="white"/>
<rect x="24.1011" y="20.6776" width="1" height="22" rx="0.5" transform="rotate(90 24.1011 20.6776)" stroke="white"/>
<rect x="18.9785" y="6.67761" width="1" height="10" rx="0.5" stroke="white"/>
<rect x="14.9785" y="6.67761" width="1" height="10" rx="0.5" stroke="white"/>
<rect x="10.9785" y="6.67761" width="1" height="10" rx="0.5" stroke="white"/>
<rect x="6.97852" y="6.67761" width="1" height="10" rx="0.5" stroke="white"/>
<rect x="24.1011" y="6.67761" width="1" height="22" rx="0.5" transform="rotate(90 24.1011 6.67761)" stroke="white"/>
<rect x="23.9785" y="3.67761" width="1" height="22" rx="0.5" stroke="white"/>
<circle cx="2.47852" cy="2.17761" r="1" stroke="white" stroke-width="2"/>
<circle cx="24.4785" cy="2.17761" r="1" stroke="white" stroke-width="2"/>
<mask id="path-12-outside-1_454_528" maskUnits="userSpaceOnUse" x="8.60938" y="9.17761" width="21" height="26" fill="black">
<rect fill="white" x="8.60938" y="9.17761" width="21" height="26"/>
<path d="M26.8691 26.9223C27.1502 26.5881 27.3486 26.1923 27.4479 25.767C27.5473 25.3416 27.5449 24.8989 27.4409 24.4747C27.0292 22.6447 25.2373 20.9138 23.0641 20.1208C23.4726 19.3224 23.667 18.4318 23.6284 17.5359C23.6286 17.2412 23.5979 16.9473 23.5369 16.659C23.8973 16.5525 24.226 16.3589 24.4938 16.0952C24.7617 15.8315 24.9604 15.5059 25.0724 15.1471C25.1845 14.7884 25.2064 14.4076 25.1363 14.0383C25.0662 13.6691 24.9061 13.3228 24.6704 13.0301C24.4346 12.7374 24.1303 12.5073 23.7845 12.3602C23.4386 12.2131 23.0619 12.1534 22.6875 12.1865C22.3131 12.2196 21.9526 12.3444 21.638 12.55C21.3233 12.7555 21.0641 13.0354 20.8834 13.3649C20.3045 13.1196 19.6821 12.9931 19.0533 12.9931C18.4246 12.9931 17.8022 13.1196 17.2233 13.3649C17.0426 13.0354 16.7834 12.7555 16.4687 12.55C16.1541 12.3444 15.7936 12.2196 15.4192 12.1865C15.0448 12.1534 14.6681 12.2131 14.3222 12.3602C13.9764 12.5073 13.6721 12.7374 13.4363 13.0301C13.2006 13.3228 13.0405 13.6691 12.9704 14.0383C12.9003 14.4076 12.9222 14.7884 13.0343 15.1471C13.1463 15.5059 13.345 15.8315 13.6129 16.0952C13.8807 16.3589 14.2093 16.5525 14.5698 16.659C14.5088 16.9473 14.4781 17.2412 14.4783 17.5359C14.4491 18.4345 14.654 19.3253 15.0731 20.1208C12.8999 20.8833 11.108 22.6447 10.6963 24.4747C10.5882 24.8965 10.5808 25.3379 10.6749 25.7631C10.7689 26.1883 10.9617 26.5854 11.2376 26.9223C11.1979 27.0087 11.1648 27.0979 11.1385 27.1892C11.0589 27.4784 11.0382 27.7805 11.0775 28.0778C11.1167 28.3752 11.2153 28.6616 11.3673 28.9201L12.5873 31.0323C12.7374 31.2927 12.9373 31.5211 13.1757 31.7042C13.4141 31.8874 13.6862 32.0217 13.9766 32.0996C14.2669 32.1775 14.5698 32.1974 14.8678 32.1582C15.1659 32.119 15.4533 32.0214 15.7136 31.871L16.1939 31.5889C16.5018 31.4178 16.7635 31.1744 16.9564 30.8798C17.6268 31.1321 18.3371 31.2612 19.0533 31.261C19.7745 31.2614 20.4899 31.1322 21.1655 30.8798C21.3646 31.1712 21.6248 31.4157 21.928 31.5965L22.4008 31.8634C22.7501 32.0676 23.1474 32.1755 23.5521 32.176C23.9539 32.1763 24.3487 32.0707 24.6967 31.8699C25.0448 31.6691 25.3338 31.3802 25.5347 31.0323L26.7471 28.9201C26.9002 28.6621 26.9995 28.3756 27.0388 28.0781C27.0781 27.7806 27.0567 27.4782 26.9758 27.1892C26.947 27.0977 26.9114 27.0085 26.8691 26.9223ZM25.9159 24.8102C25.9996 25.1243 25.9643 25.4583 25.8168 25.7481L25.4203 25.5193C25.3245 25.4708 25.2251 25.4301 25.1229 25.3973C25.1229 25.3134 25.1229 25.2372 25.1229 25.1609C25.1224 24.3953 24.9749 23.6368 24.6883 22.9268C25.2661 23.4269 25.6916 24.0796 25.9159 24.8102ZM22.8659 13.7233C23.0681 13.7001 23.2713 13.7581 23.4307 13.8846C23.5902 14.0112 23.6928 14.1959 23.7161 14.3981C23.7393 14.6004 23.6813 14.8036 23.5548 14.963C23.4282 15.1224 23.2435 15.2251 23.0413 15.2483H23.0031V15.2102C22.8951 15.0322 22.7753 14.8615 22.6448 14.6993C22.515 14.5403 22.3749 14.39 22.2254 14.2494C22.27 14.1093 22.3543 13.9851 22.4679 13.8918C22.5815 13.7984 22.7198 13.7399 22.8659 13.7233ZM20.8757 15.0958C21.2904 15.4058 21.6207 15.8147 21.8365 16.2853C22.0107 16.6793 22.1015 17.1051 22.1034 17.5359C22.1432 17.9795 22.0853 18.4266 21.9338 18.8455C21.7823 19.2644 21.5409 19.645 21.2265 19.9606C20.8191 20.2784 20.33 20.4741 19.8159 20.5249V19.6099C20.1066 19.442 20.3338 19.1829 20.4623 18.8728C20.5907 18.5626 20.6133 18.2187 20.5264 17.8945C20.4395 17.5702 20.2481 17.2837 19.9817 17.0793C19.7154 16.8749 19.3891 16.7642 19.0533 16.7642C18.7176 16.7642 18.3913 16.8749 18.125 17.0793C17.8586 17.2837 17.6672 17.5702 17.5803 17.8945C17.4934 18.2187 17.5159 18.5626 17.6444 18.8728C17.7729 19.1829 18.0001 19.442 18.2908 19.6099V20.5249C17.7767 20.4741 17.2875 20.2784 16.8802 19.9606C16.5658 19.645 16.3244 19.2644 16.1729 18.8455C16.0214 18.4266 15.9635 17.9795 16.0033 17.5359C16.0043 17.105 16.0952 16.6791 16.2702 16.2853C16.3236 16.1696 16.3848 16.0575 16.4532 15.9498C16.6512 15.6196 16.9099 15.3298 17.2157 15.0958C17.7423 14.7035 18.3814 14.4915 19.0381 14.4915C19.6948 14.4915 20.3339 14.7035 20.8605 15.0958H20.8757ZM15.2408 13.7233C15.3905 13.7234 15.5368 13.7676 15.6616 13.8503C15.7863 13.933 15.8839 14.0506 15.9423 14.1884C15.7955 14.3266 15.6579 14.4744 15.5306 14.6307C15.3957 14.7924 15.2757 14.9659 15.1722 15.1492C14.998 15.1349 14.8341 15.0612 14.7077 14.9404C14.5814 14.8197 14.5004 14.6592 14.4783 14.4858C14.4783 14.2836 14.5586 14.0897 14.7016 13.9467C14.8446 13.8037 15.0386 13.7233 15.2408 13.7233ZM12.1908 24.8102C12.4014 24.0829 12.817 23.4317 13.3879 22.9344C13.1013 23.6418 12.9538 24.3977 12.9533 25.1609C12.9533 25.2372 12.9533 25.3134 12.9533 25.3897C12.9533 25.4659 12.7474 25.4659 12.6559 25.5193L12.2594 25.7481C12.1221 25.4545 12.0977 25.1206 12.1908 24.8102ZM15.4314 30.2697L14.9511 30.5519C14.8642 30.6021 14.7683 30.6346 14.6689 30.6477C14.5695 30.6608 14.4684 30.6542 14.3715 30.6281C14.2742 30.6021 14.1829 30.557 14.1031 30.4955C14.0233 30.434 13.9564 30.3573 13.9064 30.2697L12.6864 28.15C12.5891 27.9788 12.5618 27.7766 12.6102 27.5857C12.6335 27.4882 12.6758 27.3963 12.7346 27.3152C12.7935 27.2341 12.8678 27.1653 12.9533 27.113L13.4337 26.8308C13.5351 26.7694 13.6506 26.7352 13.7692 26.7317H13.8607H13.9903L14.0818 26.7698L14.1733 26.808C14.2236 26.8373 14.2697 26.8732 14.3105 26.9147C14.3595 26.9612 14.4007 27.0153 14.4325 27.0748L15.6526 29.1717C15.7401 29.3239 15.7724 29.5017 15.7441 29.675C15.7452 29.7922 15.7172 29.9079 15.6627 30.0117C15.6081 30.1155 15.5287 30.2042 15.4314 30.2697ZM17.3301 29.4005C17.3258 29.3752 17.3258 29.3495 17.3301 29.3242C17.3301 29.2251 17.292 29.126 17.2691 29.0269C17.2462 28.9277 17.2691 28.9354 17.231 28.8896C17.1846 28.7414 17.1233 28.5984 17.0479 28.4626L15.8279 26.3581C15.7283 26.1954 15.6106 26.0445 15.4772 25.9082L15.4086 25.8472C15.1485 25.5998 14.8356 25.4147 14.4935 25.3058V25.1609C14.4938 24.4397 14.6645 23.7287 14.9918 23.086C15.3191 22.4433 15.7937 21.8871 16.3769 21.4628L16.4761 21.5085L16.6972 21.6153C16.8443 21.6911 16.9973 21.7549 17.1547 21.8059L17.414 21.8898C17.5914 21.9429 17.7723 21.9837 17.9553 22.0118L18.207 22.0575C18.7792 22.1287 19.358 22.1287 19.9302 22.0575L20.1819 22.0118C20.3649 21.9837 20.5458 21.9429 20.7232 21.8898L20.9825 21.8059C21.1399 21.7549 21.2929 21.6911 21.44 21.6153L21.6611 21.5085L21.7602 21.4628C22.3407 21.8887 22.8123 22.4457 23.1369 23.0883C23.4616 23.7309 23.6299 24.441 23.6284 25.1609V25.3058C23.2911 25.4075 22.9827 25.5879 22.7286 25.8319L22.6371 25.9234C22.5062 26.0573 22.3911 26.2056 22.294 26.3657L21.074 28.4702C21.0021 28.605 20.9409 28.7452 20.891 28.8896C20.8947 28.9327 20.8947 28.9761 20.891 29.0192C20.8633 29.1245 20.8429 29.2315 20.83 29.3395C20.8264 29.3622 20.8264 29.3854 20.83 29.4081C19.7067 29.8605 18.4514 29.8578 17.3301 29.4005ZM25.4203 28.1576L24.2003 30.2697C24.1503 30.3573 24.0834 30.434 24.0036 30.4955C23.9238 30.557 23.8325 30.6021 23.7351 30.6281C23.6378 30.653 23.5365 30.6584 23.437 30.644C23.3376 30.6296 23.2419 30.5957 23.1556 30.5442L22.6905 30.2774C22.5904 30.2216 22.5041 30.144 22.438 30.0502C22.372 29.9565 22.328 29.8491 22.3093 29.736C22.2791 29.5602 22.3115 29.3795 22.4008 29.2251L23.6284 27.1206C23.7233 26.9573 23.8755 26.835 24.0554 26.7775H24.1011H24.1926H24.3146C24.4345 26.787 24.5513 26.8208 24.6578 26.8766L25.1458 27.1663C25.2333 27.2163 25.31 27.2832 25.3715 27.363C25.4331 27.4429 25.4781 27.5341 25.5042 27.6315C25.5448 27.8111 25.5148 27.9995 25.4203 28.1576Z"/>
</mask>
<path d="M26.8691 26.9223C27.1502 26.5881 27.3486 26.1923 27.4479 25.767C27.5473 25.3416 27.5449 24.8989 27.4409 24.4747C27.0292 22.6447 25.2373 20.9138 23.0641 20.1208C23.4726 19.3224 23.667 18.4318 23.6284 17.5359C23.6286 17.2412 23.5979 16.9473 23.5369 16.659C23.8973 16.5525 24.226 16.3589 24.4938 16.0952C24.7617 15.8315 24.9604 15.5059 25.0724 15.1471C25.1845 14.7884 25.2064 14.4076 25.1363 14.0383C25.0662 13.6691 24.9061 13.3228 24.6704 13.0301C24.4346 12.7374 24.1303 12.5073 23.7845 12.3602C23.4386 12.2131 23.0619 12.1534 22.6875 12.1865C22.3131 12.2196 21.9526 12.3444 21.638 12.55C21.3233 12.7555 21.0641 13.0354 20.8834 13.3649C20.3045 13.1196 19.6821 12.9931 19.0533 12.9931C18.4246 12.9931 17.8022 13.1196 17.2233 13.3649C17.0426 13.0354 16.7834 12.7555 16.4687 12.55C16.1541 12.3444 15.7936 12.2196 15.4192 12.1865C15.0448 12.1534 14.6681 12.2131 14.3222 12.3602C13.9764 12.5073 13.6721 12.7374 13.4363 13.0301C13.2006 13.3228 13.0405 13.6691 12.9704 14.0383C12.9003 14.4076 12.9222 14.7884 13.0343 15.1471C13.1463 15.5059 13.345 15.8315 13.6129 16.0952C13.8807 16.3589 14.2093 16.5525 14.5698 16.659C14.5088 16.9473 14.4781 17.2412 14.4783 17.5359C14.4491 18.4345 14.654 19.3253 15.0731 20.1208C12.8999 20.8833 11.108 22.6447 10.6963 24.4747C10.5882 24.8965 10.5808 25.3379 10.6749 25.7631C10.7689 26.1883 10.9617 26.5854 11.2376 26.9223C11.1979 27.0087 11.1648 27.0979 11.1385 27.1892C11.0589 27.4784 11.0382 27.7805 11.0775 28.0778C11.1167 28.3752 11.2153 28.6616 11.3673 28.9201L12.5873 31.0323C12.7374 31.2927 12.9373 31.5211 13.1757 31.7042C13.4141 31.8874 13.6862 32.0217 13.9766 32.0996C14.2669 32.1775 14.5698 32.1974 14.8678 32.1582C15.1659 32.119 15.4533 32.0214 15.7136 31.871L16.1939 31.5889C16.5018 31.4178 16.7635 31.1744 16.9564 30.8798C17.6268 31.1321 18.3371 31.2612 19.0533 31.261C19.7745 31.2614 20.4899 31.1322 21.1655 30.8798C21.3646 31.1712 21.6248 31.4157 21.928 31.5965L22.4008 31.8634C22.7501 32.0676 23.1474 32.1755 23.5521 32.176C23.9539 32.1763 24.3487 32.0707 24.6967 31.8699C25.0448 31.6691 25.3338 31.3802 25.5347 31.0323L26.7471 28.9201C26.9002 28.6621 26.9995 28.3756 27.0388 28.0781C27.0781 27.7806 27.0567 27.4782 26.9758 27.1892C26.947 27.0977 26.9114 27.0085 26.8691 26.9223ZM25.9159 24.8102C25.9996 25.1243 25.9643 25.4583 25.8168 25.7481L25.4203 25.5193C25.3245 25.4708 25.2251 25.4301 25.1229 25.3973C25.1229 25.3134 25.1229 25.2372 25.1229 25.1609C25.1224 24.3953 24.9749 23.6368 24.6883 22.9268C25.2661 23.4269 25.6916 24.0796 25.9159 24.8102ZM22.8659 13.7233C23.0681 13.7001 23.2713 13.7581 23.4307 13.8846C23.5902 14.0112 23.6928 14.1959 23.7161 14.3981C23.7393 14.6004 23.6813 14.8036 23.5548 14.963C23.4282 15.1224 23.2435 15.2251 23.0413 15.2483H23.0031V15.2102C22.8951 15.0322 22.7753 14.8615 22.6448 14.6993C22.515 14.5403 22.3749 14.39 22.2254 14.2494C22.27 14.1093 22.3543 13.9851 22.4679 13.8918C22.5815 13.7984 22.7198 13.7399 22.8659 13.7233ZM20.8757 15.0958C21.2904 15.4058 21.6207 15.8147 21.8365 16.2853C22.0107 16.6793 22.1015 17.1051 22.1034 17.5359C22.1432 17.9795 22.0853 18.4266 21.9338 18.8455C21.7823 19.2644 21.5409 19.645 21.2265 19.9606C20.8191 20.2784 20.33 20.4741 19.8159 20.5249V19.6099C20.1066 19.442 20.3338 19.1829 20.4623 18.8728C20.5907 18.5626 20.6133 18.2187 20.5264 17.8945C20.4395 17.5702 20.2481 17.2837 19.9817 17.0793C19.7154 16.8749 19.3891 16.7642 19.0533 16.7642C18.7176 16.7642 18.3913 16.8749 18.125 17.0793C17.8586 17.2837 17.6672 17.5702 17.5803 17.8945C17.4934 18.2187 17.5159 18.5626 17.6444 18.8728C17.7729 19.1829 18.0001 19.442 18.2908 19.6099V20.5249C17.7767 20.4741 17.2875 20.2784 16.8802 19.9606C16.5658 19.645 16.3244 19.2644 16.1729 18.8455C16.0214 18.4266 15.9635 17.9795 16.0033 17.5359C16.0043 17.105 16.0952 16.6791 16.2702 16.2853C16.3236 16.1696 16.3848 16.0575 16.4532 15.9498C16.6512 15.6196 16.9099 15.3298 17.2157 15.0958C17.7423 14.7035 18.3814 14.4915 19.0381 14.4915C19.6948 14.4915 20.3339 14.7035 20.8605 15.0958H20.8757ZM15.2408 13.7233C15.3905 13.7234 15.5368 13.7676 15.6616 13.8503C15.7863 13.933 15.8839 14.0506 15.9423 14.1884C15.7955 14.3266 15.6579 14.4744 15.5306 14.6307C15.3957 14.7924 15.2757 14.9659 15.1722 15.1492C14.998 15.1349 14.8341 15.0612 14.7077 14.9404C14.5814 14.8197 14.5004 14.6592 14.4783 14.4858C14.4783 14.2836 14.5586 14.0897 14.7016 13.9467C14.8446 13.8037 15.0386 13.7233 15.2408 13.7233ZM12.1908 24.8102C12.4014 24.0829 12.817 23.4317 13.3879 22.9344C13.1013 23.6418 12.9538 24.3977 12.9533 25.1609C12.9533 25.2372 12.9533 25.3134 12.9533 25.3897C12.9533 25.4659 12.7474 25.4659 12.6559 25.5193L12.2594 25.7481C12.1221 25.4545 12.0977 25.1206 12.1908 24.8102ZM15.4314 30.2697L14.9511 30.5519C14.8642 30.6021 14.7683 30.6346 14.6689 30.6477C14.5695 30.6608 14.4684 30.6542 14.3715 30.6281C14.2742 30.6021 14.1829 30.557 14.1031 30.4955C14.0233 30.434 13.9564 30.3573 13.9064 30.2697L12.6864 28.15C12.5891 27.9788 12.5618 27.7766 12.6102 27.5857C12.6335 27.4882 12.6758 27.3963 12.7346 27.3152C12.7935 27.2341 12.8678 27.1653 12.9533 27.113L13.4337 26.8308C13.5351 26.7694 13.6506 26.7352 13.7692 26.7317H13.8607H13.9903L14.0818 26.7698L14.1733 26.808C14.2236 26.8373 14.2697 26.8732 14.3105 26.9147C14.3595 26.9612 14.4007 27.0153 14.4325 27.0748L15.6526 29.1717C15.7401 29.3239 15.7724 29.5017 15.7441 29.675C15.7452 29.7922 15.7172 29.9079 15.6627 30.0117C15.6081 30.1155 15.5287 30.2042 15.4314 30.2697ZM17.3301 29.4005C17.3258 29.3752 17.3258 29.3495 17.3301 29.3242C17.3301 29.2251 17.292 29.126 17.2691 29.0269C17.2462 28.9277 17.2691 28.9354 17.231 28.8896C17.1846 28.7414 17.1233 28.5984 17.0479 28.4626L15.8279 26.3581C15.7283 26.1954 15.6106 26.0445 15.4772 25.9082L15.4086 25.8472C15.1485 25.5998 14.8356 25.4147 14.4935 25.3058V25.1609C14.4938 24.4397 14.6645 23.7287 14.9918 23.086C15.3191 22.4433 15.7937 21.8871 16.3769 21.4628L16.4761 21.5085L16.6972 21.6153C16.8443 21.6911 16.9973 21.7549 17.1547 21.8059L17.414 21.8898C17.5914 21.9429 17.7723 21.9837 17.9553 22.0118L18.207 22.0575C18.7792 22.1287 19.358 22.1287 19.9302 22.0575L20.1819 22.0118C20.3649 21.9837 20.5458 21.9429 20.7232 21.8898L20.9825 21.8059C21.1399 21.7549 21.2929 21.6911 21.44 21.6153L21.6611 21.5085L21.7602 21.4628C22.3407 21.8887 22.8123 22.4457 23.1369 23.0883C23.4616 23.7309 23.6299 24.441 23.6284 25.1609V25.3058C23.2911 25.4075 22.9827 25.5879 22.7286 25.8319L22.6371 25.9234C22.5062 26.0573 22.3911 26.2056 22.294 26.3657L21.074 28.4702C21.0021 28.605 20.9409 28.7452 20.891 28.8896C20.8947 28.9327 20.8947 28.9761 20.891 29.0192C20.8633 29.1245 20.8429 29.2315 20.83 29.3395C20.8264 29.3622 20.8264 29.3854 20.83 29.4081C19.7067 29.8605 18.4514 29.8578 17.3301 29.4005ZM25.4203 28.1576L24.2003 30.2697C24.1503 30.3573 24.0834 30.434 24.0036 30.4955C23.9238 30.557 23.8325 30.6021 23.7351 30.6281C23.6378 30.653 23.5365 30.6584 23.437 30.644C23.3376 30.6296 23.2419 30.5957 23.1556 30.5442L22.6905 30.2774C22.5904 30.2216 22.5041 30.144 22.438 30.0502C22.372 29.9565 22.328 29.8491 22.3093 29.736C22.2791 29.5602 22.3115 29.3795 22.4008 29.2251L23.6284 27.1206C23.7233 26.9573 23.8755 26.835 24.0554 26.7775H24.1011H24.1926H24.3146C24.4345 26.787 24.5513 26.8208 24.6578 26.8766L25.1458 27.1663C25.2333 27.2163 25.31 27.2832 25.3715 27.363C25.4331 27.4429 25.4781 27.5341 25.5042 27.6315C25.5448 27.8111 25.5148 27.9995 25.4203 28.1576Z" fill="#A3A3A3"/>
<path d="M26.8691 26.9223C27.1502 26.5881 27.3486 26.1923 27.4479 25.767C27.5473 25.3416 27.5449 24.8989 27.4409 24.4747C27.0292 22.6447 25.2373 20.9138 23.0641 20.1208C23.4726 19.3224 23.667 18.4318 23.6284 17.5359C23.6286 17.2412 23.5979 16.9473 23.5369 16.659C23.8973 16.5525 24.226 16.3589 24.4938 16.0952C24.7617 15.8315 24.9604 15.5059 25.0724 15.1471C25.1845 14.7884 25.2064 14.4076 25.1363 14.0383C25.0662 13.6691 24.9061 13.3228 24.6704 13.0301C24.4346 12.7374 24.1303 12.5073 23.7845 12.3602C23.4386 12.2131 23.0619 12.1534 22.6875 12.1865C22.3131 12.2196 21.9526 12.3444 21.638 12.55C21.3233 12.7555 21.0641 13.0354 20.8834 13.3649C20.3045 13.1196 19.6821 12.9931 19.0533 12.9931C18.4246 12.9931 17.8022 13.1196 17.2233 13.3649C17.0426 13.0354 16.7834 12.7555 16.4687 12.55C16.1541 12.3444 15.7936 12.2196 15.4192 12.1865C15.0448 12.1534 14.6681 12.2131 14.3222 12.3602C13.9764 12.5073 13.6721 12.7374 13.4363 13.0301C13.2006 13.3228 13.0405 13.6691 12.9704 14.0383C12.9003 14.4076 12.9222 14.7884 13.0343 15.1471C13.1463 15.5059 13.345 15.8315 13.6129 16.0952C13.8807 16.3589 14.2093 16.5525 14.5698 16.659C14.5088 16.9473 14.4781 17.2412 14.4783 17.5359C14.4491 18.4345 14.654 19.3253 15.0731 20.1208C12.8999 20.8833 11.108 22.6447 10.6963 24.4747C10.5882 24.8965 10.5808 25.3379 10.6749 25.7631C10.7689 26.1883 10.9617 26.5854 11.2376 26.9223C11.1979 27.0087 11.1648 27.0979 11.1385 27.1892C11.0589 27.4784 11.0382 27.7805 11.0775 28.0778C11.1167 28.3752 11.2153 28.6616 11.3673 28.9201L12.5873 31.0323C12.7374 31.2927 12.9373 31.5211 13.1757 31.7042C13.4141 31.8874 13.6862 32.0217 13.9766 32.0996C14.2669 32.1775 14.5698 32.1974 14.8678 32.1582C15.1659 32.119 15.4533 32.0214 15.7136 31.871L16.1939 31.5889C16.5018 31.4178 16.7635 31.1744 16.9564 30.8798C17.6268 31.1321 18.3371 31.2612 19.0533 31.261C19.7745 31.2614 20.4899 31.1322 21.1655 30.8798C21.3646 31.1712 21.6248 31.4157 21.928 31.5965L22.4008 31.8634C22.7501 32.0676 23.1474 32.1755 23.5521 32.176C23.9539 32.1763 24.3487 32.0707 24.6967 31.8699C25.0448 31.6691 25.3338 31.3802 25.5347 31.0323L26.7471 28.9201C26.9002 28.6621 26.9995 28.3756 27.0388 28.0781C27.0781 27.7806 27.0567 27.4782 26.9758 27.1892C26.947 27.0977 26.9114 27.0085 26.8691 26.9223ZM25.9159 24.8102C25.9996 25.1243 25.9643 25.4583 25.8168 25.7481L25.4203 25.5193C25.3245 25.4708 25.2251 25.4301 25.1229 25.3973C25.1229 25.3134 25.1229 25.2372 25.1229 25.1609C25.1224 24.3953 24.9749 23.6368 24.6883 22.9268C25.2661 23.4269 25.6916 24.0796 25.9159 24.8102ZM22.8659 13.7233C23.0681 13.7001 23.2713 13.7581 23.4307 13.8846C23.5902 14.0112 23.6928 14.1959 23.7161 14.3981C23.7393 14.6004 23.6813 14.8036 23.5548 14.963C23.4282 15.1224 23.2435 15.2251 23.0413 15.2483H23.0031V15.2102C22.8951 15.0322 22.7753 14.8615 22.6448 14.6993C22.515 14.5403 22.3749 14.39 22.2254 14.2494C22.27 14.1093 22.3543 13.9851 22.4679 13.8918C22.5815 13.7984 22.7198 13.7399 22.8659 13.7233ZM20.8757 15.0958C21.2904 15.4058 21.6207 15.8147 21.8365 16.2853C22.0107 16.6793 22.1015 17.1051 22.1034 17.5359C22.1432 17.9795 22.0853 18.4266 21.9338 18.8455C21.7823 19.2644 21.5409 19.645 21.2265 19.9606C20.8191 20.2784 20.33 20.4741 19.8159 20.5249V19.6099C20.1066 19.442 20.3338 19.1829 20.4623 18.8728C20.5907 18.5626 20.6133 18.2187 20.5264 17.8945C20.4395 17.5702 20.2481 17.2837 19.9817 17.0793C19.7154 16.8749 19.3891 16.7642 19.0533 16.7642C18.7176 16.7642 18.3913 16.8749 18.125 17.0793C17.8586 17.2837 17.6672 17.5702 17.5803 17.8945C17.4934 18.2187 17.5159 18.5626 17.6444 18.8728C17.7729 19.1829 18.0001 19.442 18.2908 19.6099V20.5249C17.7767 20.4741 17.2875 20.2784 16.8802 19.9606C16.5658 19.645 16.3244 19.2644 16.1729 18.8455C16.0214 18.4266 15.9635 17.9795 16.0033 17.5359C16.0043 17.105 16.0952 16.6791 16.2702 16.2853C16.3236 16.1696 16.3848 16.0575 16.4532 15.9498C16.6512 15.6196 16.9099 15.3298 17.2157 15.0958C17.7423 14.7035 18.3814 14.4915 19.0381 14.4915C19.6948 14.4915 20.3339 14.7035 20.8605 15.0958H20.8757ZM15.2408 13.7233C15.3905 13.7234 15.5368 13.7676 15.6616 13.8503C15.7863 13.933 15.8839 14.0506 15.9423 14.1884C15.7955 14.3266 15.6579 14.4744 15.5306 14.6307C15.3957 14.7924 15.2757 14.9659 15.1722 15.1492C14.998 15.1349 14.8341 15.0612 14.7077 14.9404C14.5814 14.8197 14.5004 14.6592 14.4783 14.4858C14.4783 14.2836 14.5586 14.0897 14.7016 13.9467C14.8446 13.8037 15.0386 13.7233 15.2408 13.7233ZM12.1908 24.8102C12.4014 24.0829 12.817 23.4317 13.3879 22.9344C13.1013 23.6418 12.9538 24.3977 12.9533 25.1609C12.9533 25.2372 12.9533 25.3134 12.9533 25.3897C12.9533 25.4659 12.7474 25.4659 12.6559 25.5193L12.2594 25.7481C12.1221 25.4545 12.0977 25.1206 12.1908 24.8102ZM15.4314 30.2697L14.9511 30.5519C14.8642 30.6021 14.7683 30.6346 14.6689 30.6477C14.5695 30.6608 14.4684 30.6542 14.3715 30.6281C14.2742 30.6021 14.1829 30.557 14.1031 30.4955C14.0233 30.434 13.9564 30.3573 13.9064 30.2697L12.6864 28.15C12.5891 27.9788 12.5618 27.7766 12.6102 27.5857C12.6335 27.4882 12.6758 27.3963 12.7346 27.3152C12.7935 27.2341 12.8678 27.1653 12.9533 27.113L13.4337 26.8308C13.5351 26.7694 13.6506 26.7352 13.7692 26.7317H13.8607H13.9903L14.0818 26.7698L14.1733 26.808C14.2236 26.8373 14.2697 26.8732 14.3105 26.9147C14.3595 26.9612 14.4007 27.0153 14.4325 27.0748L15.6526 29.1717C15.7401 29.3239 15.7724 29.5017 15.7441 29.675C15.7452 29.7922 15.7172 29.9079 15.6627 30.0117C15.6081 30.1155 15.5287 30.2042 15.4314 30.2697ZM17.3301 29.4005C17.3258 29.3752 17.3258 29.3495 17.3301 29.3242C17.3301 29.2251 17.292 29.126 17.2691 29.0269C17.2462 28.9277 17.2691 28.9354 17.231 28.8896C17.1846 28.7414 17.1233 28.5984 17.0479 28.4626L15.8279 26.3581C15.7283 26.1954 15.6106 26.0445 15.4772 25.9082L15.4086 25.8472C15.1485 25.5998 14.8356 25.4147 14.4935 25.3058V25.1609C14.4938 24.4397 14.6645 23.7287 14.9918 23.086C15.3191 22.4433 15.7937 21.8871 16.3769 21.4628L16.4761 21.5085L16.6972 21.6153C16.8443 21.6911 16.9973 21.7549 17.1547 21.8059L17.414 21.8898C17.5914 21.9429 17.7723 21.9837 17.9553 22.0118L18.207 22.0575C18.7792 22.1287 19.358 22.1287 19.9302 22.0575L20.1819 22.0118C20.3649 21.9837 20.5458 21.9429 20.7232 21.8898L20.9825 21.8059C21.1399 21.7549 21.2929 21.6911 21.44 21.6153L21.6611 21.5085L21.7602 21.4628C22.3407 21.8887 22.8123 22.4457 23.1369 23.0883C23.4616 23.7309 23.6299 24.441 23.6284 25.1609V25.3058C23.2911 25.4075 22.9827 25.5879 22.7286 25.8319L22.6371 25.9234C22.5062 26.0573 22.3911 26.2056 22.294 26.3657L21.074 28.4702C21.0021 28.605 20.9409 28.7452 20.891 28.8896C20.8947 28.9327 20.8947 28.9761 20.891 29.0192C20.8633 29.1245 20.8429 29.2315 20.83 29.3395C20.8264 29.3622 20.8264 29.3854 20.83 29.4081C19.7067 29.8605 18.4514 29.8578 17.3301 29.4005ZM25.4203 28.1576L24.2003 30.2697C24.1503 30.3573 24.0834 30.434 24.0036 30.4955C23.9238 30.557 23.8325 30.6021 23.7351 30.6281C23.6378 30.653 23.5365 30.6584 23.437 30.644C23.3376 30.6296 23.2419 30.5957 23.1556 30.5442L22.6905 30.2774C22.5904 30.2216 22.5041 30.144 22.438 30.0502C22.372 29.9565 22.328 29.8491 22.3093 29.736C22.2791 29.5602 22.3115 29.3795 22.4008 29.2251L23.6284 27.1206C23.7233 26.9573 23.8755 26.835 24.0554 26.7775H24.1011H24.1926H24.3146C24.4345 26.787 24.5513 26.8208 24.6578 26.8766L25.1458 27.1663C25.2333 27.2163 25.31 27.2832 25.3715 27.363C25.4331 27.4429 25.4781 27.5341 25.5042 27.6315C25.5448 27.8111 25.5148 27.9995 25.4203 28.1576Z" stroke="#131313" stroke-width="4" mask="url(#path-12-outside-1_454_528)"/>
</svg>
