<svg width="28" height="29" viewBox="0 0 28 29" fill="none" xmlns="http://www.w3.org/2000/svg">
<path d="M1.51563 26.0167L1.51562 18.7667C1.51562 18.3525 1.85141 18.0167 2.26562 18.0167L3.16356 18.0167C3.6861 18.0167 4.12054 18.419 4.16062 18.94L4.21678 19.6701C4.29693 20.7121 5.16581 21.5167 6.21089 21.5167L8.91873 21.5167C9.9934 21.5167 10.876 20.6675 10.9173 19.5936L10.9409 18.9783C10.9616 18.4414 11.4028 18.0167 11.9402 18.0167L12.7656 18.0167C13.1798 18.0167 13.5156 18.3525 13.5156 18.7667L13.5156 26.0167L1.51563 26.0167Z" stroke="white" stroke-width="2"/>
<path d="M12 18.8223V15.9723C12 14.2326 10.5897 12.8223 8.85 12.8223V12.8223H7.5H6.15V12.8223C4.4103 12.8223 3 14.2326 3 15.9723V18.1794" stroke="white" stroke-width="2"/>
<path d="M16.1276 9.82227L16.9702 2.82227H26.0298L26.8724 9.82227H16.1276Z" stroke="#A3A3A3" stroke-width="2"/>
<mask id="path-4-inside-1_454_575" fill="white">
<path d="M20.5 10.8223C20.5 10.27 20.9477 9.82227 21.5 9.82227C22.0523 9.82227 22.5 10.27 22.5 10.8223V26.8223H20.5V10.8223Z"/>
</mask>
<path d="M22.5 26.8223V28.8223H24.5V26.8223H22.5ZM20.5 26.8223H18.5V28.8223H20.5V26.8223ZM20.5 10.8223V26.8223H24.5V10.8223H20.5ZM22.5 24.8223H20.5V28.8223H22.5V24.8223ZM22.5 26.8223V10.8223H18.5V26.8223H22.5ZM21.5 11.8223C20.9477 11.8223 20.5 11.3746 20.5 10.8223H24.5C24.5 9.16541 23.1569 7.82227 21.5 7.82227V11.8223ZM21.5 7.82227C19.8431 7.82227 18.5 9.16541 18.5 10.8223H22.5C22.5 11.3746 22.0523 11.8223 21.5 11.8223V7.82227Z" fill="#A3A3A3" mask="url(#path-4-inside-1_454_575)"/>
<mask id="path-6-inside-2_454_575" fill="white">
<path d="M19.5 28.2418C18.9477 28.2418 18.5 27.7941 18.5 27.2418C18.5 26.6895 18.9477 26.2418 19.5 26.2418L23.5 26.2418C24.0523 26.2418 24.5 26.6895 24.5 27.2418C24.5 27.7941 24.0523 28.2418 23.5 28.2418L19.5 28.2418Z"/>
</mask>
<path d="M19.5 28.2418L23.5 28.2418L23.5 24.2418L19.5 24.2418L19.5 28.2418ZM23.5 26.2418L19.5 26.2418L19.5 30.2418L23.5 30.2418L23.5 26.2418ZM22.5 27.2418C22.5 26.6895 22.9477 26.2418 23.5 26.2418L23.5 30.2418C25.1569 30.2418 26.5 28.8987 26.5 27.2418L22.5 27.2418ZM23.5 28.2418C22.9477 28.2418 22.5 27.7941 22.5 27.2418L26.5 27.2418C26.5 25.585 25.1569 24.2418 23.5 24.2418L23.5 28.2418ZM20.5 27.2418C20.5 27.7941 20.0523 28.2418 19.5 28.2418L19.5 24.2418C17.8431 24.2418 16.5 25.585 16.5 27.2418L20.5 27.2418ZM16.5 27.2418C16.5 28.8987 17.8431 30.2418 19.5 30.2418L19.5 26.2418C20.0523 26.2418 20.5 26.6895 20.5 27.2418L16.5 27.2418Z" fill="#A3A3A3" mask="url(#path-6-inside-2_454_575)"/>
<path d="M2.57715 26.4362V26.4362C2.57715 26.9884 3.02486 27.4362 3.57715 27.4362V27.4362C4.12943 27.4362 4.57715 26.9884 4.57715 26.4362V26.4362" stroke="white" stroke-width="2"/>
<path d="M10.5771 26.4362V26.4362C10.5771 26.9884 11.0249 27.4362 11.5771 27.4362V27.4362C12.1294 27.4362 12.5771 26.9884 12.5771 26.4362V26.4362" stroke="white" stroke-width="2"/>
</svg>
