<svg width="30" height="30" viewBox="0 0 30 30" fill="none" xmlns="http://www.w3.org/2000/svg">
<path d="M11.926 3.70696C12.3017 3.27754 12.4762 2.70808 12.4054 2.14188L12.3515 1.71094L18.0293 1.71094L17.9964 2.23758C17.9635 2.76411 18.1399 3.28231 18.4873 3.67934L19.2399 3.02084L18.4873 3.67934L22.015 7.71094L8.42252 7.71094L11.926 3.70696Z" stroke="#A3A3A3" stroke-width="2"/>
<rect x="8.09619" y="14.7109" width="14" height="14" rx="1" stroke="white" stroke-width="2"/>
<rect x="16.9736" y="17.7109" width="2" height="2" rx="1" fill="white"/>
<rect x="13.9736" y="17.7109" width="2" height="2" rx="1" fill="white"/>
<rect x="10.9736" y="17.7109" width="2" height="2" rx="1" fill="white"/>
<rect x="1.8418" y="22.2109" width="5" height="1" rx="0.5" stroke="white"/>
<rect x="1.5" y="15" width="6" height="14" rx="1" stroke="white" stroke-width="2"/>
<rect x="22.8418" y="22.2109" width="5" height="1" rx="0.5" stroke="white"/>
<rect x="22.5" y="15" width="6" height="14" rx="1" stroke="white" stroke-width="2"/>
<rect x="8.59619" y="22.2109" width="13" height="1" rx="0.5" stroke="white"/>
</svg>
