<svg width="26" height="21" viewBox="0 0 26 21" fill="none" xmlns="http://www.w3.org/2000/svg">
<path d="M1 16L1 9.25C1 8.00736 2.00736 7 3.25 7C4.59068 7 5.71696 8.00807 5.86502 9.34055L5.90728 9.72086C6.01982 10.7337 6.87595 11.5 7.89504 11.5L18.3486 11.5C19.3851 11.5 20.241 10.6903 20.2985 9.65547L20.3232 9.2104C20.3921 7.97028 21.4178 7 22.6598 7C23.9523 7 25 8.04775 25 9.34021L25 16L1 16Z" stroke="white" stroke-width="2"/>
<path d="M13 11V4.5C13 2.567 11.433 1 9.5 1V1H8H6.5V1C4.567 1 3 2.56701 3 4.5V8.14286" stroke="white" stroke-width="2"/>
<path d="M13 11V4.5C13 2.567 14.567 1 16.5 1V1H18H19.5V1C21.433 1 23 2.56701 23 4.5V8.14286" stroke="white" stroke-width="2"/>
<path d="M3.12305 18.6208V18.6208C3.12305 19.1731 3.57076 19.6208 4.12305 19.6208L6.12305 19.6208C6.67533 19.6208 7.12305 19.1731 7.12305 18.6208V18.6208" stroke="#A3A3A3" stroke-width="2"/>
<path d="M19.123 18.6208V18.6208C19.123 19.1731 19.5708 19.6208 20.123 19.6208L22.123 19.6208C22.6753 19.6208 23.123 19.1731 23.123 18.6208V18.6208" stroke="#A3A3A3" stroke-width="2"/>
</svg>
