<svg width="26" height="28" viewBox="0 0 26 28" fill="none" xmlns="http://www.w3.org/2000/svg">
<mask id="path-1-inside-1_1302_6518" fill="white">
<path d="M0 7.45978L12 0.959778L26 7.45978V20.9598L13 27.4598L9 25.9595V21.9595L5.5 23.4598L0 20.4598V7.45978Z"/>
</mask>
<path d="M0 7.45978L-0.952566 5.70119L-2 6.26855V7.45978H0ZM26 7.45978H28V6.1833L26.8422 5.64576L26 7.45978ZM13 27.4598L12.2977 29.3324L13.1143 29.6387L13.8944 29.2486L13 27.4598ZM0 20.4598H-2V21.647L-0.957704 22.2156L0 20.4598ZM26 20.9598L26.8944 22.7486L28 22.1958V20.9598H26ZM12 0.959778L12.8422 -0.85424L11.9309 -1.27735L11.0474 -0.798806L12 0.959778ZM5.5 23.4598L4.5423 25.2156L5.3951 25.6807L6.28795 25.298L5.5 23.4598ZM9 21.9595H11V18.9263L8.21205 20.1213L9 21.9595ZM9 25.9595H7V27.3455L8.29765 27.8322L9 25.9595ZM2 20.4598V7.45978H-2V20.4598H2ZM24 7.45978V20.9598H28V7.45978H24ZM25.1056 19.1709L12.1056 25.6709L13.8944 29.2486L26.8944 22.7486L25.1056 19.1709ZM0.952566 9.21836L12.9526 2.71836L11.0474 -0.798806L-0.952566 5.70119L0.952566 9.21836ZM11.1578 2.7738L25.1578 9.2738L26.8422 5.64576L12.8422 -0.85424L11.1578 2.7738ZM6.4577 21.704L0.957704 18.704L-0.957704 22.2156L4.5423 25.2156L6.4577 21.704ZM8.21205 20.1213L4.71205 21.6215L6.28795 25.298L9.78795 23.7978L8.21205 20.1213ZM13.7023 25.5872L9.70235 24.0869L8.29765 27.8322L12.2977 29.3324L13.7023 25.5872ZM11 25.9595V21.9595H7V25.9595H11Z" fill="#A3A3A3" mask="url(#path-1-inside-1_1302_6518)"/>
<path d="M4.5 16.9598V21.7752L1 19.8661V8.05539L12.0345 2.07834L25 8.09802V20.3417L12.9428 26.3703L10 25.2666V21.9595V18.4595V17.8001L9.39387 17.5404L5.89387 16.0406L4.5 15.4433V16.9598Z" stroke="#A3A3A3" stroke-width="2"/>
<path d="M15 20.8413V17.0773L21 14.0773V17.8413L15 20.8413Z" stroke="white" stroke-width="2"/>
</svg>
