<svg width="25" height="27" viewBox="0 0 25 27" fill="none" xmlns="http://www.w3.org/2000/svg">
<rect x="7.56445" y="12.0807" width="1" height="16" rx="0.5" transform="rotate(-90 7.56445 12.0807)" stroke="white"/>
<mask id="path-2-inside-1_1302_6501" fill="white">
<path d="M4.77789 16.8692C4.86956 16.4109 5.27201 16.0809 5.73943 16.0809C6.35822 16.0809 6.82232 16.647 6.70097 17.2538L5.0932 25.2927C5.00153 25.751 4.59909 26.0809 4.13166 26.0809C3.51287 26.0809 3.04877 25.5148 3.17012 24.908L4.77789 16.8692Z"/>
</mask>
<path d="M5.0932 25.2927L3.13204 24.9004L5.0932 25.2927ZM4.77789 16.8692L2.81673 16.477L4.77789 16.8692ZM4.73981 16.8616L3.13204 24.9004L7.05436 25.6849L8.66213 17.6461L4.73981 16.8616ZM5.13129 25.3003L6.73905 17.2614L2.81673 16.477L1.20896 24.5158L5.13129 25.3003ZM4.13166 24.0809C4.77496 24.0809 5.25745 24.6695 5.13129 25.3003L1.20896 24.5158C0.840091 26.3602 2.25078 28.0809 4.13166 28.0809V24.0809ZM3.13204 24.9004C3.22734 24.4239 3.64572 24.0809 4.13166 24.0809V28.0809C5.55245 28.0809 6.77572 27.0781 7.05436 25.6849L3.13204 24.9004ZM5.73943 18.0809C5.09613 18.0809 4.61365 17.4924 4.73981 16.8616L8.66213 17.6461C9.031 15.8017 7.62032 14.0809 5.73943 14.0809V18.0809ZM5.73943 14.0809C4.31864 14.0809 3.09537 15.0838 2.81673 16.477L6.73905 17.2614C6.64375 17.7379 6.22537 18.0809 5.73943 18.0809V14.0809Z" fill="#A3A3A3" mask="url(#path-2-inside-1_1302_6501)"/>
<path d="M13.431 17.0577L13.4119 17.0615M13.431 17.0577L13.4119 17.0615M13.431 17.0577L13.4119 17.0615M13.431 17.0577L13.4119 17.0615" stroke="#A3A3A3" stroke-width="2"/>
<path d="M1.93555 1.08093L4.62966 15.4495C4.80702 16.3955 5.63297 17.0809 6.5954 17.0809H10.4355H13.9355" stroke="#A3A3A3" stroke-width="2" stroke-linecap="round"/>
<mask id="path-6-inside-2_1302_6501" fill="white">
<path d="M9.1187 11.9412C9.18436 11.4487 9.60443 11.0809 10.1012 11.0809C10.7007 11.0809 11.163 11.6089 11.0838 12.2032L9.34809 25.2207C9.28244 25.7132 8.86237 26.0809 8.36556 26.0809C7.76608 26.0809 7.3038 25.5529 7.38303 24.9587L9.1187 11.9412Z"/>
</mask>
<path d="M11.0838 12.2032L9.10131 11.9388L11.0838 12.2032ZM9.10131 11.9388L7.36564 24.9564L11.3306 25.485L13.0662 12.4675L9.10131 11.9388ZM9.36549 25.223L11.1012 12.2055L7.13625 11.6768L5.40057 24.6944L9.36549 25.223ZM8.36556 24.0809C8.97566 24.0809 9.44612 24.6183 9.36549 25.223L5.40057 24.6944C5.16148 26.4876 6.5565 28.0809 8.36556 28.0809L8.36556 24.0809ZM7.36564 24.9564C7.43246 24.4552 7.85996 24.0809 8.36556 24.0809L8.36556 28.0809C9.86477 28.0809 11.1324 26.9711 11.3306 25.485L7.36564 24.9564ZM10.1012 13.0809C9.49114 13.0809 9.02068 12.5436 9.10131 11.9388L13.0662 12.4675C13.3053 10.6743 11.9103 9.08093 10.1012 9.08093V13.0809ZM10.1012 9.08093C8.60203 9.08093 7.33439 10.1908 7.13625 11.6768L11.1012 12.2055C11.0343 12.7066 10.6068 13.0809 10.1012 13.0809V9.08093Z" fill="white" mask="url(#path-6-inside-2_1302_6501)"/>
<mask id="path-8-inside-3_1302_6501" fill="white">
<path d="M20.1643 12.2032C20.085 11.6089 20.5473 11.0809 21.1468 11.0809C21.6436 11.0809 22.0637 11.4487 22.1293 11.9412L23.865 24.9587C23.9442 25.5529 23.482 26.0809 22.8825 26.0809C22.3857 26.0809 21.9656 25.7132 21.9 25.2207L20.1643 12.2032Z"/>
</mask>
<path d="M23.865 24.9587L21.8826 25.223L23.865 24.9587ZM22.1293 11.9412L20.1469 12.2055L22.1293 11.9412ZM20.1469 12.2055L21.8826 25.223L25.8475 24.6944L24.1118 11.6768L20.1469 12.2055ZM23.8824 24.9564L22.1467 11.9388L18.1818 12.4675L19.9175 25.485L23.8824 24.9564ZM22.8825 24.0809C23.3881 24.0809 23.8156 24.4552 23.8824 24.9564L19.9175 25.485C20.1156 26.9711 21.3833 28.0809 22.8825 28.0809V24.0809ZM21.8826 25.223C21.8019 24.6183 22.2724 24.0809 22.8825 24.0809V28.0809C24.6915 28.0809 26.0866 26.4876 25.8475 24.6944L21.8826 25.223ZM21.1468 13.0809C20.6412 13.0809 20.2137 12.7066 20.1469 12.2055L24.1118 11.6768C23.9137 10.1908 22.646 9.08093 21.1468 9.08093V13.0809ZM21.1468 9.08093C19.3378 9.08093 17.9427 10.6743 18.1818 12.4675L22.1467 11.9388C22.2274 12.5436 21.7569 13.0809 21.1468 13.0809V9.08093Z" fill="white" mask="url(#path-8-inside-3_1302_6501)"/>
</svg>
