<svg width="29" height="30" viewBox="0 0 29 30" fill="none" xmlns="http://www.w3.org/2000/svg">
<path d="M21.5918 5.07239C21.5918 5.62467 22.0395 6.07239 22.5918 6.07239C23.1441 6.07239 23.5918 5.62467 23.5918 5.07239L21.5918 5.07239ZM23.5918 12.6108C23.5918 12.0586 23.1441 11.6108 22.5918 11.6108C22.0395 11.6108 21.5918 12.0586 21.5918 12.6108L23.5918 12.6108ZM20.5918 21.5724L3.5918 21.5724L3.5918 23.5724L20.5918 23.5724L20.5918 21.5724ZM2.5918 20.5724L2.5918 3.57239L0.591797 3.57239L0.591796 20.5724L2.5918 20.5724ZM3.5918 2.57239L20.5918 2.57239L20.5918 0.572388L3.5918 0.572387L3.5918 2.57239ZM21.5918 3.57239L21.5918 5.07239L23.5918 5.07239L23.5918 3.57239L21.5918 3.57239ZM21.5918 12.6108L21.5918 20.5724L23.5918 20.5724L23.5918 12.6108L21.5918 12.6108ZM2.5918 3.57239C2.5918 3.0201 3.03951 2.57239 3.5918 2.57239L3.5918 0.572387C1.93494 0.572387 0.591797 1.91553 0.591797 3.57239L2.5918 3.57239ZM3.5918 21.5724C3.03951 21.5724 2.5918 21.1247 2.5918 20.5724L0.591796 20.5724C0.591796 22.2292 1.93494 23.5724 3.5918 23.5724L3.5918 21.5724ZM20.5918 23.5724C22.2486 23.5724 23.5918 22.2292 23.5918 20.5724L21.5918 20.5724C21.5918 21.1247 21.1441 21.5724 20.5918 21.5724L20.5918 23.5724ZM20.5918 2.57239C21.1441 2.57239 21.5918 3.0201 21.5918 3.57239L23.5918 3.57239C23.5918 1.91553 22.2487 0.572388 20.5918 0.572388L20.5918 2.57239Z" fill="white"/>
<rect x="6.53027" y="21.9598" width="1" height="7" rx="0.5" transform="rotate(180 6.53027 21.9598)" stroke="white"/>
<rect x="1.03027" y="6.95959" width="1" height="15" rx="0.5" transform="rotate(-90 1.03027 6.95959)" stroke="white"/>
<path d="M23.7197 27.9598L12.7596 16.9996L11.6442 12.2687L16.5091 13.2502L27.4692 24.2103L26.8924 24.7872L23.7197 27.9598Z" fill="#131313"/>
<path d="M12.7596 16.9996L23.7197 27.9598L26.8924 24.7872L27.4692 24.2103L16.5091 13.2502M12.7596 16.9996L11.6442 12.2687L16.5091 13.2502M12.7596 16.9996L16.5091 13.2502" stroke="#A3A3A3" stroke-width="2"/>
</svg>
