<svg width="24" height="32" viewBox="0 0 24 32" fill="none" xmlns="http://www.w3.org/2000/svg">
<path d="M22.75 3.49222C22.75 3.49096 22.75 3.48991 22.7499 3.48906C22.7453 3.48342 22.7306 3.46897 22.7018 3.45701C22.6705 3.44401 22.6417 3.44208 22.6237 3.44456C22.6109 3.44633 22.6035 3.44956 22.5931 3.45911C20.85 5.06053 18.013 7.38125 15.1049 8.48506C13.0965 9.24734 10.6784 9.72566 8.36562 9.93221C6.05825 10.1383 3.78023 10.0805 2.0534 9.72433C1.98753 9.71074 1.89166 9.72716 1.81326 9.78302C1.77825 9.80796 1.761 9.83112 1.75428 9.84299C1.74915 9.85205 1.75 9.85382 1.75 9.85436V30.5268C3.73895 30.6416 8.64771 30.8736 14.0115 30.7436C17.1813 30.6668 18.9412 30.177 20.0653 29.5418C21.177 28.9137 21.7704 28.094 22.5479 27.0151C22.6804 26.8313 22.75 26.6156 22.75 26.4011V3.49222Z" stroke="#A3A3A3" stroke-width="2"/>
<path d="M17.75 3.50161C17.75 3.50036 17.75 3.49933 17.7499 3.49848C17.7452 3.49281 17.7305 3.47832 17.7016 3.46635C17.6701 3.45332 17.6411 3.45143 17.6231 3.45395C17.6103 3.45574 17.6029 3.45898 17.5925 3.46856C15.8495 5.07757 13.0136 7.40828 10.1064 8.5172C6.49341 9.89533 4.29559 10.4633 1.96968 9.83658C1.90306 9.81863 1.82908 9.83327 1.77895 9.86673C1.76077 9.87887 1.75266 9.88897 1.75002 9.89275C1.75001 9.89312 1.75 9.89353 1.75 9.89399V30.6615C3.48013 30.7142 7.25888 30.7089 10.8178 29.9145C13.0451 29.4173 14.283 29.0605 15.1705 28.6566C16.0197 28.2702 16.5821 27.8257 17.4345 27.0472C17.6333 26.8656 17.75 26.6019 17.75 26.3208V3.50161Z" fill="#131313" stroke="#A3A3A3" stroke-width="2"/>
<path d="M13.25 3.63227C13.25 3.63209 13.25 3.63191 13.25 3.63173C13.2422 3.62307 13.2193 3.6031 13.1766 3.58833C13.1304 3.57235 13.0883 3.57212 13.062 3.5777C13.0424 3.58186 13.0342 3.58766 13.0249 3.59826C11.679 5.13216 9.7257 7.08311 7.69375 8.08926C5.20547 9.32138 3.44732 9.98763 1.68194 9.60993C1.5535 9.58245 1.40675 9.61164 1.31012 9.67154C1.27149 9.69549 1.25497 9.7156 1.25 9.72266V30.6077C1.98406 30.7045 3.11831 30.8062 4.32176 30.7376C5.57542 30.6662 6.80838 30.4148 7.74261 29.8647C7.8026 29.8294 7.86171 29.7946 7.91997 29.7603C9.2799 28.9599 10.1791 28.4307 10.9436 27.7795C11.7099 27.1267 12.3647 26.3269 13.1376 24.9446C13.2092 24.8166 13.25 24.6612 13.25 24.4942V3.63227Z" fill="#131313" stroke="white" stroke-width="2"/>
</svg>
