<svg width="24" height="29" viewBox="0 0 24 29" fill="none" xmlns="http://www.w3.org/2000/svg">
<rect x="8.15918" y="9.08093" width="1" height="4" rx="0.5" stroke="#A3A3A3"/>
<rect x="8.65918" y="19.5809" width="1" height="4" rx="0.5" transform="rotate(90 8.65918 19.5809)" stroke="#A3A3A3"/>
<rect x="1.65918" y="24.5809" width="1" height="3" rx="0.5" stroke="white"/>
<rect x="1" y="16.2418" width="11" height="8" rx="1" stroke="white" stroke-width="2"/>
<rect x="1" y="1.24182" width="11" height="23" rx="1" stroke="white" stroke-width="2"/>
<rect x="15.1592" y="9.08093" width="1" height="4" rx="0.5" stroke="#A3A3A3"/>
<rect x="19.6592" y="19.5809" width="1" height="4" rx="0.5" transform="rotate(90 19.6592 19.5809)" stroke="#A3A3A3"/>
<rect x="21.6592" y="24.5809" width="1" height="3" rx="0.5" stroke="white"/>
<rect x="11.6592" y="24.5809" width="1" height="3" rx="0.5" stroke="white"/>
<rect x="12" y="16.2418" width="11" height="8" rx="1" stroke="white" stroke-width="2"/>
<rect x="12" y="1.24182" width="11" height="23" rx="1" stroke="white" stroke-width="2"/>
</svg>
