<svg width="183" height="25" viewBox="0 0 183 25" fill="none" xmlns="http://www.w3.org/2000/svg">
<path d="M9.81 15.2H9.99L14.67 4.4H18.54V17H15.93V6.92H15.75L11.43 17H8.37L4.05 6.92H3.87V17H1.26V4.4H5.13L9.81 15.2ZM23.663 5.75V9.89H30.233V11.24H23.663V15.65H32.033V17H21.053V4.4H32.033V5.75H23.663ZM40.4923 9.44C41.4163 9.44 42.2263 9.53 42.9223 9.71C43.6183 9.89 44.2003 10.148 44.6683 10.484C45.1363 10.82 45.4843 11.222 45.7123 11.69C45.9523 12.146 46.0723 12.656 46.0723 13.22C46.0723 13.784 45.9523 14.3 45.7123 14.768C45.4843 15.224 45.1363 15.62 44.6683 15.956C44.2003 16.292 43.6183 16.55 42.9223 16.73C42.2263 16.91 41.4163 17 40.4923 17H33.8323V4.4H44.6323V5.75H36.4423V9.44H40.4923ZM36.4423 10.79V15.65H40.4923C41.3563 15.65 42.0343 15.44 42.5263 15.02C43.0303 14.588 43.2823 13.988 43.2823 13.22C43.2823 12.452 43.0303 11.858 42.5263 11.438C42.0343 11.006 41.3563 10.79 40.4923 10.79H36.4423ZM50.5751 5.75V9.89H57.1451V11.24H50.5751V15.65H58.9451V17H47.9651V4.4H58.9451V5.75H50.5751ZM59.8444 15.92H60.3844C60.7444 15.92 61.0624 15.77 61.3384 15.47C61.6144 15.17 61.7764 14.66 61.8244 13.94L62.4544 4.4H73.1644V17H70.5544V5.75H64.8844L64.3444 13.94C64.2604 15.116 63.9304 15.968 63.3544 16.496C62.7904 17.012 62.0104 17.27 61.0144 17.27C60.7024 17.27 60.4264 17.24 60.1864 17.18C60.0544 17.156 59.9404 17.126 59.8444 17.09V15.92ZM82.3458 9.08C84.1938 9.08 85.5858 9.44 86.5218 10.16C87.4578 10.868 87.9258 11.828 87.9258 13.04C87.9258 14.252 87.4578 15.218 86.5218 15.938C85.5858 16.646 84.1938 17 82.3458 17H75.6858V4.4H78.2958V9.08H82.3458ZM78.2958 10.43V15.65H82.3458C83.2098 15.65 83.8878 15.434 84.3798 15.002C84.8838 14.558 85.1358 13.904 85.1358 13.04C85.1358 12.176 84.8838 11.528 84.3798 11.096C83.8878 10.652 83.2098 10.43 82.3458 10.43H78.2958ZM106.549 17V6.74H106.369L99.6195 17H96.1995V4.4H98.8095V14.66H98.9895L105.739 4.4H109.159V17H106.549ZM122.936 5.75H118.076V17H115.466V5.75H110.606V4.4H122.936V5.75ZM126.266 12.59H131.846L129.146 5.93H128.966L126.266 12.59ZM131.126 4.4L136.256 17H133.664L132.476 13.94H125.636L124.448 17H121.856L126.986 4.4H131.126ZM136.801 15.92H137.341C137.701 15.92 138.019 15.77 138.295 15.47C138.571 15.17 138.733 14.66 138.781 13.94L139.411 4.4H150.121V17H147.511V5.75H141.841L141.301 13.94C141.217 15.116 140.887 15.968 140.311 16.496C139.747 17.012 138.967 17.27 137.971 17.27C137.659 17.27 137.383 17.24 137.143 17.18C137.011 17.156 136.897 17.126 136.801 17.09V15.92ZM162.993 17V6.74H162.813L156.063 17H152.643V4.4H155.253V14.66H155.433L162.183 4.4H165.603V17H162.993ZM178.479 17V6.74H178.299L171.549 17H168.129V4.4H170.739V14.66H170.919L177.669 4.4H181.089V17H178.479Z" fill="white"/>
<rect x="1" y="23" width="181" height="2" fill="white"/>
<rect x="1" y="23" width="59" height="2" fill="#009846"/>
<rect x="123" y="23" width="59" height="2" fill="#B6000B"/>
</svg>
