<svg width="130" height="20" viewBox="0 0 130 20" fill="none" xmlns="http://www.w3.org/2000/svg">
<g opacity="0.25" clip-path="url(#clip0_441_639)">
<path d="M4.54991 12.4344C4.54991 10.8313 5.259 8.575 7.68173 8.575C10.1045 8.575 11.109 10.7719 11.109 12.4344C11.109 14.1563 10.2817 16.3531 7.74082 16.3531C5.259 16.3531 4.54991 14.0969 4.54991 12.4344ZM11.2272 18.55H14.8908V0.796875H11.109V7.74375H11.0499C9.92718 6.61562 8.56809 6.02188 6.67718 6.02188C2.24537 6.08125 0.59082 9.05 0.59082 12.4344C0.59082 15.7594 2.24537 18.8469 6.73627 18.8469C8.509 18.8469 10.1045 18.3719 11.2272 17.1844V18.55Z" fill="white"/>
<path d="M16.1904 12.5532C16.1904 16.0563 18.9677 18.8469 23.8132 18.8469C28.6586 18.8469 31.4359 16.0563 31.4359 12.5532C31.4359 8.51567 28.1268 6.0813 23.8132 6.0813C19.4995 6.0813 16.1904 8.51567 16.1904 12.5532ZM20.1495 12.1375C20.1495 10.2969 21.3313 8.51567 23.8132 8.51567C26.295 8.51567 27.4768 10.2375 27.4768 12.1375C27.4768 14.1563 26.7086 16.3532 23.8132 16.3532C20.9177 16.3532 20.1495 14.1563 20.1495 12.1375Z" fill="white"/>
<path d="M32.7959 18.55H36.6368V6.37812H32.855V18.55H32.7959ZM32.7959 4.12187H36.6368V1.09375H32.855V4.12187H32.7959Z" fill="white"/>
<path d="M37.7002 18.55H41.482V12.6719C41.482 11.0688 41.7775 8.57505 44.3184 8.57505C46.5047 8.57505 46.5047 10.1782 46.5047 11.3063V18.55H50.2866V12.6719C50.2866 11.0688 50.582 8.57505 53.1229 8.57505C55.3093 8.57505 55.3093 10.1782 55.3093 11.3063V18.55H59.0911V10.8313C59.0911 8.10005 58.0866 6.0813 54.482 6.0813C52.7093 6.0813 50.8184 6.7938 49.932 8.2188C49.1047 6.73442 47.6866 6.0813 45.6184 6.0813C44.2002 6.0813 42.4866 6.5563 41.3047 8.04067H41.2457V6.37817H37.7002C37.7002 6.37817 37.7002 18.55 37.7002 18.55Z" fill="white"/>
<path d="M60.0361 12.5532C60.0361 16.0563 62.8134 18.8469 67.6589 18.8469C72.5043 18.8469 75.2816 16.0563 75.2816 12.5532C75.2816 8.51567 71.9725 6.0813 67.6589 6.0813C63.3452 6.0813 60.0361 8.51567 60.0361 12.5532ZM63.9952 12.1375C63.9952 10.2969 65.177 8.51567 67.6589 8.51567C70.1407 8.51567 71.3225 10.2375 71.3225 12.1375C71.3225 14.1563 70.5543 16.3532 67.6589 16.3532C64.7634 16.3532 63.9952 14.1563 63.9952 12.1375Z" fill="white"/>
<path d="M85.1506 6.67507C84.737 6.55632 83.7916 6.20007 82.4325 6.20007C79.1234 6.20007 76.8779 8.81257 76.8779 12.4938C76.8779 15.8188 78.6507 18.7876 82.2552 18.7876C83.3188 18.7876 84.2052 18.7282 85.1506 18.3719L85.0325 17.0063C84.2052 17.3626 83.3779 17.5407 82.4916 17.5407C79.9507 17.5407 78.4143 15.2251 78.4143 12.4938C78.4143 9.58445 79.9507 7.44695 82.6097 7.44695C83.3779 7.44695 84.2643 7.68445 85.0325 8.0407L85.1506 6.67507Z" fill="white"/>
<path d="M95.1366 6.49695H93.7775V13.1469C93.7775 15.1657 93.0093 17.5407 90.4684 17.5407C88.5775 17.5407 87.8093 16.0563 87.8093 13.8001V6.49695H86.4502V14.2157C86.4502 16.8876 87.5138 18.8469 90.2911 18.8469C92.5956 18.8469 93.482 17.4813 93.8956 16.4126H93.9547V18.5501H95.3138C95.2547 17.6001 95.2547 16.6501 95.2547 15.7001L95.1366 6.49695Z" fill="white"/>
<path d="M104.946 6.67507C104.532 6.55632 103.586 6.20007 102.227 6.20007C98.9183 6.20007 96.6729 8.81257 96.6729 12.4938C96.6729 15.8188 98.4456 18.7876 102.05 18.7876C103.114 18.7876 104 18.7282 104.946 18.3719L104.827 17.0063C104 17.3626 103.173 17.5407 102.286 17.5407C99.7456 17.5407 98.2092 15.2251 98.2092 12.4938C98.2092 9.58445 99.7456 7.44695 102.405 7.44695C103.173 7.44695 104.059 7.68445 104.827 8.0407L104.946 6.67507Z" fill="white"/>
<path d="M106.187 18.55H107.546V6.49685H106.187V18.55ZM107.546 1.27185H106.187V3.23123H107.546V1.27185Z" fill="white"/>
<path d="M109.968 18.55H111.327V11.8406C111.327 9.82188 112.096 7.44687 114.636 7.44687C116.527 7.44687 117.296 8.93125 117.296 11.1875V18.4906H118.655V10.7719C118.655 8.1 117.591 6.14062 114.814 6.14062C112.509 6.14062 111.623 7.50625 111.209 8.575H111.15V6.4375H109.791C109.85 7.3875 109.85 8.3375 109.85 9.2875L109.968 18.55Z" fill="white"/>
<path d="M128.346 16.65C127.696 17.125 126.219 17.5406 125.214 17.5406C122.791 17.5406 121.551 15.4625 121.551 12.9094H129.232V12.1375C129.232 8.93125 127.932 6.14062 124.801 6.14062C121.964 6.14062 120.073 8.75313 120.073 12.4344C120.073 16.0562 121.432 18.7281 125.155 18.7281C126.16 18.7281 127.46 18.4906 128.405 18.075L128.346 16.65ZM121.491 11.6625C121.491 9.70312 122.732 7.50625 124.801 7.50625C126.869 7.50625 127.637 9.58437 127.637 11.6625H121.491Z" fill="white"/>
</g>
<defs>
<clipPath id="clip0_441_639">
<rect width="130" height="19" fill="white" transform="translate(0 0.5)"/>
</clipPath>
</defs>
</svg>
