<svg width="116" height="27" viewBox="0 0 116 27" fill="none" xmlns="http://www.w3.org/2000/svg">
<g opacity="0.26">
<path d="M14.675 19.4266C14.6448 19.988 14.3766 26.0609 10.1319 26.0609C9.36123 26.0609 5.68819 25.9309 5.60514 19.0345C5.60514 19.0345 5.12258 11.0847 10.0874 11.1186C15.0494 11.1511 14.7084 18.8711 14.675 19.4266ZM10.1528 10.4955C7.13913 10.4955 5.77775 13.1987 5.58797 13.6149L5.70118 0.543091H0.0960487V1.19224H2.52973V25.6377H0V26.2608H5.47383L5.49703 23.951C6.18143 25.2261 7.42913 26.6525 9.7329 26.6525C13.7595 26.6525 17.3458 24.3004 17.3458 18.6178C17.3462 12.848 13.418 10.4955 10.1528 10.4955Z" fill="white"/>
<path d="M33.5883 25.5815C32.7925 25.9587 31.7457 26.078 31.2636 25.0451C30.7764 24.0113 31.2432 17.3747 31.2813 16.5177C31.3198 15.6644 31.9216 10.3168 25.587 10.3168C19.2502 10.3168 20.4125 15.9836 21.8268 16.0017C23.2406 16.0207 23.5515 14.251 23.2406 13.0428C22.9325 11.8285 23.1241 10.932 25.1402 10.8541C27.1563 10.7738 28.4151 11.8475 28.4151 14.5299C28.4151 17.2132 25.877 18.0777 25.877 18.0777C25.4682 18.2554 24.6182 18.6414 23.0476 19.1722C20.4329 20.0548 18.9207 21.7164 19.2497 23.5441C19.581 25.3731 20.5675 26.5248 24.0155 26.5452C27.5103 26.5661 28.3149 24.3537 28.4054 24.0656C28.3599 24.2317 28.2086 25.0864 29.4624 26.1253C30.8966 27.3196 33.7822 25.9016 33.7822 25.9016L33.5883 25.5815ZM26.187 25.587C23.8707 26.3916 22.6026 25.1996 22.2523 23.3728C21.9047 21.5474 22.778 20.0835 24.4247 19.3713C25.9309 18.7133 28.1061 17.6304 28.1061 17.6304C28.4351 19.1801 28.5297 24.7746 26.187 25.587Z" fill="white"/>
<path d="M81.1111 25.5702L73.6346 15.9811L78.4542 11.4446H81.1194L81.0127 10.7583H75.5816V11.4506H77.7712L71.006 17.5082L70.9188 17.8622L77.0923 25.5976H74.8336V26.2551H82.4307L82.4455 25.572H81.1124V25.5707H81.1111V25.5702ZM70.8408 0.347534H65.457V1.0027H67.9348L67.9209 25.4709H65.496L65.5206 26.1771L72.7586 26.1706V25.4853H70.8408V0.347534Z" fill="white"/>
<path d="M83.3877 25.568L83.4086 26.2524H90.9973V25.5958H88.7404L94.9172 17.8623L94.83 17.5046L88.0639 11.4512H90.254V10.7589H84.8201L84.7171 11.4452H87.3781L92.2009 15.9785L84.7231 25.5694H83.3891V25.5684H83.3877V25.568ZM94.9947 25.49H93.0761V26.1716L100.31 26.1795L100.337 25.4742H97.9128L97.9026 1.00141H100.377V0.349487H94.9938V25.4909L94.9947 25.49Z" fill="white"/>
<path d="M58.6234 25.9411C54.7601 26.2631 53.6581 22.8198 53.5157 19.5036C53.3481 15.5767 53.5639 9.49367 59.0182 10.753C62.4078 11.5408 62.5576 15.9275 62.5447 18.7797C62.5247 21.5456 62.0194 25.6604 58.6234 25.9411ZM65.7695 17.5757C65.4456 13.4962 61.7206 10.0208 57.7107 10.1911C53.5393 10.3683 49.8046 14.4269 50.0732 18.7426C50.334 22.9335 54.1611 26.5759 58.2805 26.3815C62.3734 26.1871 66.1035 21.7428 65.7695 17.5757Z" fill="white"/>
<path d="M108.83 25.9411C104.964 26.2632 103.862 22.8198 103.723 19.5036C103.552 15.5767 103.771 9.49368 109.225 10.753C112.613 11.5409 112.766 15.9275 112.75 18.7797C112.731 21.5457 112.229 25.6604 108.83 25.9411ZM115.98 17.5757C115.656 13.4915 111.929 10.0208 107.918 10.1911C103.745 10.3683 100.009 14.4269 100.278 18.7426C100.539 22.9335 104.372 26.5759 108.486 26.3815C112.574 26.1871 116.309 21.7429 115.98 17.5757Z" fill="white"/>
<path d="M79.1743 16.149L79.062 16.1973C78.7594 15.7175 78.5553 15.459 78.2592 15.459C77.9428 15.459 77.6115 15.8205 77.6115 16.8366C77.6115 17.8394 77.8672 18.2157 78.2333 18.2157C78.5929 18.2157 78.6527 17.8909 78.6527 17.5197C78.6527 17.1921 78.5831 17.1652 78.3284 17.1447V16.9884H79.4494V17.1447C79.1766 17.1819 79.1497 17.2733 79.1497 17.5753V18.1656C78.9172 18.1711 78.9033 18.1786 78.6931 18.2542C78.5228 18.3173 78.3725 18.3669 78.192 18.3669C77.483 18.3669 77.0361 17.7934 77.0361 16.9387C77.0361 16.1281 77.5099 15.299 78.2337 15.299C78.3312 15.299 78.4179 15.331 78.4922 15.3565C78.5655 15.3894 78.6337 15.4177 78.6917 15.4177C78.7766 15.4177 78.8986 15.3565 78.9706 15.2999L79.1743 16.149Z" fill="white"/>
<path d="M50.3755 25.5702L42.8986 15.9802L47.7168 11.4437H50.3815L50.2757 10.7574H44.8409V11.4492H47.0287L40.2691 17.5068L40.1795 17.8608L46.3563 25.5967H44.0962V26.2537H51.69L51.7063 25.5707L50.3755 25.5702ZM40.1016 0.347534H34.7178V1.0027H37.1974L37.1816 25.4709H34.7586L34.7837 26.1771L42.0202 26.1706V25.4853H40.1016V0.347534Z" fill="white"/>
<path d="M82.5778 16.8302C82.5778 17.8329 82.8145 18.212 83.1685 18.212C83.7726 18.212 83.8214 17.3772 83.8214 16.8329C83.8214 15.8061 83.5606 15.4572 83.2079 15.4572C82.8289 15.4572 82.5778 15.866 82.5778 16.8302ZM82.0029 16.8682C82.0029 16.0182 82.4525 15.3036 83.1871 15.3036C83.9313 15.3036 84.393 15.9267 84.393 16.806C84.393 17.6125 83.9443 18.3646 83.1834 18.3646C82.4651 18.3674 82.0029 17.747 82.0029 16.8682Z" fill="white"/>
<path d="M85.4491 17.2797C85.4379 18.0007 85.6333 18.2132 85.9892 18.2132C86.4643 18.2132 86.6151 17.8555 86.6151 17.2746V15.8714C86.6151 15.5939 86.5335 15.5053 86.2945 15.5053V15.374H87.1074V15.5053C86.8661 15.5053 86.7863 15.5939 86.7863 15.8714V17.3061C86.7863 18.0016 86.5367 18.3668 85.8931 18.3668C85.2329 18.3668 84.9067 18.0091 84.9067 17.3906V15.8705C84.9067 15.593 84.8227 15.5044 84.5879 15.5044V15.3735H85.7678V15.5044C85.5293 15.5044 85.4491 15.593 85.4491 15.8705V17.2797Z" fill="white"/>
<path d="M80.4328 16.7137C80.9785 16.7137 81.1423 16.4975 81.1423 16.0762C81.1423 15.6711 80.9511 15.5268 80.5971 15.5268C80.3781 15.5268 80.3711 15.627 80.3711 15.8539V16.7137H80.4328V16.7137ZM81.4745 17.6213C81.5961 17.8919 81.7084 18.1382 81.99 18.1633V18.2946H81.1715C81.1154 18.1883 81.0768 18.0728 81.0309 17.96L80.8397 17.4608C80.6412 16.943 80.5108 16.8994 80.3739 16.8994V17.7986C80.3739 18.077 80.4537 18.1633 80.6931 18.1633V18.2946H79.5127V18.1633C79.747 18.1633 79.8315 18.0761 79.8315 17.7986V15.8688C79.8315 15.5899 79.747 15.5046 79.5127 15.5046V15.3723H80.9298C81.4221 15.3723 81.72 15.6906 81.72 16.1119C81.72 16.5518 81.4016 16.7634 81.0852 16.8316C81.1864 16.9174 81.2416 17.0548 81.2921 17.1898L81.4745 17.6213Z" fill="white"/>
<path d="M88.0765 16.7996H88.2728C88.6681 16.7996 88.8477 16.6219 88.8477 16.156C88.8477 15.7189 88.6556 15.5278 88.3424 15.5278C88.0751 15.5278 88.0751 15.6512 88.0751 15.9254V16.7987L88.0765 16.7996ZM88.0765 16.9546V17.7986C88.0765 18.077 88.1614 18.1633 88.4004 18.1633V18.2946H87.2158V18.1633C87.4562 18.1633 87.5341 18.0761 87.5341 17.7986V15.8688C87.5341 15.5899 87.4543 15.5046 87.2158 15.5046V15.3723H88.4027C89.1456 15.3723 89.4245 15.7477 89.4245 16.1444C89.4245 16.8766 88.8343 16.9527 88.3638 16.9527H88.077L88.0765 16.9546Z" fill="white"/>
</g>
</svg>
