<svg width="146" height="39" viewBox="0 0 146 39" fill="none" xmlns="http://www.w3.org/2000/svg">
<g opacity="0.5" clip-path="url(#clip0_441_598)">
<g opacity="0.6">
<path d="M54.8899 19.5294C55.646 19.6477 56.3554 19.9671 56.9422 20.4534C57.2438 20.7289 57.4832 21.0641 57.645 21.4373C57.8067 21.8105 57.887 22.2132 57.8807 22.6191C57.8769 23.2969 57.6548 23.9557 57.2467 24.5002C56.8294 25.0975 56.2347 25.5516 55.5448 25.7996C54.4762 26.1197 53.3607 26.2592 52.2452 26.2121H46.0508V25.8532H46.5388C46.7647 25.8733 46.992 25.836 47.1992 25.7451C47.4065 25.6541 47.5869 25.5125 47.7235 25.3335C47.9144 24.8828 47.9917 24.393 47.9487 23.9062V15.462C48.0081 14.9385 47.9109 14.4093 47.6693 13.9398C47.523 13.7932 47.3459 13.6803 47.1505 13.609C46.9552 13.5377 46.7463 13.5098 46.5388 13.5273H46.0508V13.1684H51.728C52.5794 13.1524 53.43 13.2299 54.2642 13.3995C55.1207 13.5677 55.9008 14.0011 56.4916 14.637C56.9923 15.1902 57.2673 15.9076 57.2633 16.6501C57.2592 17.2894 57.034 17.908 56.6251 18.4032C56.1743 18.9426 55.5696 19.335 54.8899 19.5294ZM49.8133 19.0096C50.0889 19.0625 50.3675 19.0983 50.6476 19.1169C50.9521 19.1169 51.2816 19.1499 51.6571 19.1499C52.3807 19.183 53.1042 19.0794 53.7886 18.8446C54.2462 18.6624 54.6303 18.3362 54.8815 17.9165C55.1229 17.5031 55.2455 17.0324 55.2361 16.5552C55.2354 16.1821 55.1508 15.8139 54.9885 15.4772C54.8261 15.1404 54.5901 14.8436 54.2975 14.6081C53.5107 14.0217 52.5355 13.7374 51.5528 13.8078C50.9622 13.8003 50.3731 13.8697 49.8008 14.0141L49.8133 19.0096ZM49.8133 25.2304C50.542 25.4 51.2881 25.4858 52.0367 25.4861C52.996 25.5553 53.9479 25.2767 54.7147 24.7023C55.0057 24.4714 55.2397 24.1779 55.3987 23.844C55.5577 23.5102 55.6376 23.1449 55.6324 22.7759C55.6299 22.2607 55.4857 21.7559 55.2152 21.3156C54.8914 20.8103 54.4095 20.4235 53.8429 20.2142C53.103 19.9231 52.3113 19.7828 51.5152 19.8017H50.4849C50.2542 19.8105 50.0243 19.834 49.7966 19.8718L49.8133 25.2304Z" fill="white"/>
<path d="M61.0799 20.6928C61.0082 21.7982 61.3513 22.891 62.0434 23.7619C62.3145 24.105 62.6606 24.3831 63.0558 24.5752C63.4509 24.7674 63.8848 24.8687 64.3252 24.8716C64.8685 24.8842 65.4009 24.7188 65.8394 24.4013C66.3483 23.972 66.7231 23.4083 66.9197 22.776L67.2242 22.9657C67.0718 23.864 66.6521 24.697 66.0187 25.3583C65.7148 25.7037 65.3381 25.9791 64.9151 26.1651C64.4921 26.3511 64.033 26.4432 63.5702 26.435C63.0492 26.4384 62.5337 26.3295 62.0597 26.1158C61.5856 25.902 61.1644 25.5887 60.8254 25.1975C60.0326 24.2819 59.6237 23.1013 59.6825 21.8973C59.6073 20.6218 60.0248 19.3655 60.8504 18.3827C61.2186 17.981 61.67 17.6624 62.1739 17.4489C62.6778 17.2353 63.2223 17.1317 63.7704 17.1452C64.2252 17.1226 64.6798 17.1942 65.1051 17.3555C65.5303 17.5167 65.9168 17.7641 66.2398 18.0816C66.5686 18.4296 66.8237 18.8392 66.9899 19.2863C67.1561 19.7333 67.2301 20.2088 67.2076 20.6845L61.0799 20.6928ZM61.0799 20.1318H65.1928C65.1914 19.729 65.1238 19.3291 64.9926 18.9479C64.8436 18.5939 64.5908 18.2921 64.2668 18.0816C63.9695 17.8871 63.622 17.7811 63.2656 17.7763C62.9947 17.7788 62.7271 17.8357 62.479 17.9435C62.2309 18.0512 62.0075 18.2077 61.8224 18.4033C61.3701 18.8757 61.1063 19.4942 61.0799 20.1442V20.1318Z" fill="white"/>
<path d="M71.4582 12.5249V24.1826C71.4378 24.551 71.4787 24.9203 71.5792 25.2757C71.6541 25.4509 71.7863 25.5961 71.9546 25.6882C72.2558 25.8041 72.579 25.8534 72.9015 25.8326V26.175H68.5592V25.8326C68.8434 25.8516 69.1284 25.8079 69.3934 25.7047C69.5521 25.6092 69.6739 25.464 69.7396 25.2922C69.8469 24.9338 69.8907 24.5598 69.869 24.1867V16.2045C69.885 15.5945 69.8613 14.9841 69.7981 14.3771C69.7777 14.2029 69.7017 14.0396 69.5811 13.9109C69.472 13.8232 69.3336 13.7791 69.1932 13.7872C68.9741 13.7987 68.7591 13.8505 68.5592 13.9398L68.3965 13.6057L71.0495 12.5249H71.4582Z" fill="white"/>
<path d="M76.9815 12.5249V24.1826C76.9569 24.5511 76.9979 24.9211 77.1025 25.2757C77.1757 25.452 77.3083 25.5977 77.4779 25.6882C77.7762 25.8041 78.0967 25.8534 78.4164 25.8326V26.175H74.0616V25.8326C74.3459 25.8532 74.6312 25.8094 74.8958 25.7047C75.056 25.6099 75.1794 25.4646 75.2462 25.2922C75.3556 24.9343 75.3994 24.5599 75.3755 24.1867V16.2045C75.3957 15.5945 75.3721 14.9838 75.3046 14.3771C75.286 14.2024 75.2098 14.0386 75.0877 13.9109C74.9817 13.8234 74.846 13.7791 74.7081 13.7872C74.489 13.7983 74.2739 13.85 74.0741 13.9398L73.9072 13.6057L76.556 12.5249H76.9815Z" fill="white"/>
<path d="M83.7928 17.1203C84.4154 17.1018 85.0334 17.2298 85.5962 17.4937C86.1589 17.7576 86.6503 18.1499 87.0298 18.6383C87.7178 19.4806 88.0866 20.534 88.0726 21.6167C88.0608 22.4442 87.8627 23.2587 87.4928 24.001C87.1773 24.7371 86.6457 25.3626 85.9667 25.7965C85.2877 26.2304 84.4926 26.4528 83.6844 26.4348C83.0645 26.4513 82.4501 26.3156 81.8962 26.0399C81.3422 25.7642 80.866 25.3571 80.51 24.8549C79.8512 23.9935 79.5005 22.94 79.513 21.8601C79.5335 21.0233 79.7506 20.2028 80.1471 19.4634C80.4825 18.7421 81.0213 18.132 81.6988 17.706C82.3301 17.3265 83.054 17.124 83.7928 17.1203V17.1203ZM83.4883 17.7473C83.1239 17.7552 82.7682 17.8592 82.458 18.0484C82.0708 18.3028 81.778 18.675 81.6237 19.1086C81.3938 19.7318 81.2862 20.3926 81.3067 21.0557C81.2759 22.2022 81.54 23.3377 82.0742 24.3558C82.244 24.7558 82.5257 25.0996 82.8864 25.3466C83.247 25.5936 83.6715 25.7336 84.1098 25.7501C84.4114 25.7524 84.7092 25.684 84.9789 25.5507C85.2486 25.4173 85.4825 25.2227 85.6616 24.9828C86.1491 24.1909 86.371 23.2668 86.2956 22.3427C86.37 21.0368 86.0128 19.7423 85.2778 18.6548C85.0811 18.3667 84.8138 18.1323 84.501 17.9737C84.1881 17.815 83.8398 17.7371 83.4883 17.7473V17.7473Z" fill="white"/>
<path d="M91.9566 14.4967V17.3843H94.0423V18.0567H91.9566V23.7494C91.9158 24.1503 92.0018 24.5539 92.2027 24.9044C92.2789 24.9978 92.3756 25.0726 92.4855 25.1234C92.5953 25.1742 92.7155 25.1994 92.8367 25.1973C93.0648 25.2004 93.288 25.1326 93.475 25.0034C93.6843 24.8583 93.8465 24.6563 93.9421 24.4218H94.3176C94.142 24.9861 93.8043 25.4877 93.3456 25.8656C92.9921 26.1541 92.5523 26.3193 92.0942 26.3359C91.7869 26.3327 91.486 26.2487 91.2224 26.0925C90.9418 25.9323 90.7198 25.6882 90.5884 25.3953C90.4315 24.9433 90.3622 24.4661 90.384 23.9887V18.0567H88.9824V17.7349C89.3876 17.5649 89.758 17.323 90.0753 17.0213C90.4563 16.6685 90.7887 16.2677 91.0639 15.8291C91.3079 15.4009 91.5199 14.9556 91.698 14.4967H91.9566Z" fill="white"/>
<path d="M97.4791 14.4967V17.3843H99.5648V18.0567H97.4791V23.7494C97.4383 24.1503 97.5243 24.5539 97.7252 24.9044C97.8008 24.9985 97.8974 25.0739 98.0074 25.1247C98.1174 25.1755 98.2379 25.2004 98.3593 25.1973C98.5861 25.2009 98.8082 25.133 98.9933 25.0034C99.2056 24.8614 99.3687 24.6584 99.4605 24.4218H99.8401C99.6641 24.9869 99.3248 25.4887 98.864 25.8656C98.5099 26.1526 98.0702 26.3164 97.6126 26.3317C97.3041 26.3281 97.0019 26.2442 96.7366 26.0884C96.4531 25.9317 96.2302 25.6865 96.1026 25.3912C95.931 24.9395 95.853 24.4584 95.8732 23.9763V18.0567H94.4424V17.7349C94.8452 17.565 95.2128 17.3231 95.5269 17.0213C95.9126 16.6707 96.2481 16.2696 96.5239 15.8291C96.7654 15.3997 96.9773 14.9545 97.1579 14.4967H97.4791Z" fill="white"/>
<path d="M103.452 17.1203V24.1825C103.428 24.5524 103.469 24.9238 103.573 25.2798C103.643 25.4541 103.771 25.5996 103.936 25.6923C104.209 25.8046 104.505 25.8527 104.8 25.8326V26.175H100.499V25.8326C100.797 25.8543 101.096 25.8106 101.375 25.7047C101.533 25.6065 101.657 25.4624 101.73 25.2922C101.837 24.9338 101.881 24.5598 101.859 24.1866V20.804C101.886 20.1843 101.861 19.5633 101.784 18.9477C101.76 18.792 101.687 18.6476 101.575 18.5352C101.457 18.4445 101.307 18.4018 101.158 18.4156C100.94 18.4283 100.726 18.4771 100.524 18.5599L100.391 18.2176L103.069 17.1368L103.452 17.1203ZM102.647 12.5249C102.776 12.5232 102.904 12.5476 103.023 12.5965C103.142 12.6454 103.25 12.7179 103.34 12.8095C103.523 12.9932 103.625 13.2406 103.625 13.4984C103.625 13.7562 103.523 14.0036 103.34 14.1873C103.251 14.2808 103.144 14.3549 103.025 14.4046C102.905 14.4544 102.777 14.4787 102.647 14.4761C102.517 14.4773 102.389 14.4523 102.269 14.4027C102.149 14.353 102.041 14.2797 101.951 14.1873C101.856 14.0989 101.781 13.9919 101.731 13.8733C101.681 13.7547 101.656 13.627 101.659 13.4984C101.658 13.3716 101.682 13.2459 101.73 13.1284C101.778 13.0108 101.849 12.9038 101.939 12.8134C102.029 12.723 102.136 12.651 102.254 12.6015C102.372 12.552 102.498 12.5259 102.626 12.5249H102.647Z" fill="white"/>
<path d="M114.432 13.8697V19.0096H117.326C117.852 19.0685 118.382 18.9508 118.832 18.6755C119.024 18.4653 119.172 18.2198 119.268 17.9529C119.364 17.6861 119.406 17.4031 119.391 17.1203H119.754V21.6579H119.391C119.356 21.2351 119.263 20.8189 119.116 20.4204C118.992 20.1858 118.79 20.0007 118.544 19.8965C118.158 19.7443 117.742 19.6767 117.326 19.6985H114.432V23.9804C114.407 24.3318 114.435 24.6849 114.515 25.0282C114.567 25.1556 114.661 25.2617 114.782 25.3293C115.016 25.4206 115.269 25.4573 115.52 25.4366H117.752C118.296 25.4576 118.84 25.4077 119.37 25.2881C119.739 25.1667 120.073 24.9586 120.342 24.6817C120.84 24.1454 121.254 23.5393 121.573 22.8831H121.961L120.826 26.1502H110.669V25.7913H111.14C111.447 25.7894 111.749 25.7144 112.02 25.5727C112.119 25.5275 112.206 25.4628 112.278 25.3826C112.35 25.3024 112.404 25.2084 112.438 25.1066C112.535 24.7015 112.574 24.2849 112.554 23.869V15.4249C112.617 14.9025 112.529 14.3733 112.3 13.8986C112.145 13.7576 111.961 13.6509 111.761 13.5854C111.561 13.52 111.35 13.4974 111.14 13.519H110.669V13.1602H120.826L120.972 16.0189H120.609C120.538 15.5288 120.386 15.0536 120.159 14.6122C119.98 14.3449 119.722 14.1388 119.42 14.0223C118.976 13.9022 118.516 13.8535 118.056 13.8779L114.432 13.8697Z" fill="white"/>
<path d="M130.767 23.4731L130.658 26.1709H122.82V25.8286L128.714 18.0568H125.794C125.38 18.0282 124.964 18.0686 124.564 18.1764C124.358 18.2691 124.189 18.4274 124.084 18.6261C123.899 18.9975 123.798 19.4043 123.788 19.8182H123.4L123.459 17.3844H130.909V17.735L124.956 25.5274H128.226C128.695 25.5561 129.164 25.4987 129.611 25.3583C129.868 25.2309 130.074 25.0216 130.195 24.7643C130.346 24.349 130.433 23.9138 130.454 23.4731H130.767Z" fill="white"/>
<path d="M134.921 17.1204V24.1826C134.898 24.5525 134.939 24.9235 135.042 25.2799C135.111 25.4535 135.238 25.599 135.401 25.6924C135.675 25.8045 135.972 25.8525 136.269 25.8326V26.175H131.951V25.8326C132.249 25.8525 132.548 25.8089 132.827 25.7048C132.986 25.6087 133.109 25.4639 133.178 25.2923C133.29 24.935 133.336 24.5602 133.311 24.1867V20.8041C133.328 20.1854 133.299 19.5664 133.223 18.9519C133.196 18.7964 133.122 18.6526 133.011 18.5394C132.896 18.4571 132.756 18.415 132.614 18.4198C132.395 18.4324 132.179 18.4812 131.976 18.5642L131.843 18.2218L134.517 17.141L134.921 17.1204ZM134.116 12.5249C134.245 12.5225 134.373 12.5466 134.493 12.5956C134.612 12.6445 134.719 12.7174 134.809 12.8096C134.992 12.9933 135.094 13.2407 135.094 13.4985C135.094 13.7563 134.992 14.0037 134.809 14.1874C134.72 14.2809 134.613 14.3549 134.493 14.4047C134.374 14.4545 134.246 14.4788 134.116 14.4761C133.855 14.474 133.604 14.3703 133.42 14.1874C133.235 14.0045 133.13 13.7571 133.128 13.4985C133.126 13.2421 133.228 12.9957 133.41 12.8132C133.592 12.6308 133.84 12.5271 134.099 12.5249H134.116Z" fill="white"/>
<path d="M141.72 17.1203C142.343 17.1018 142.961 17.2298 143.523 17.4937C144.086 17.7576 144.577 18.1499 144.957 18.6383C145.645 19.4806 146.014 20.534 146 21.6167C145.991 22.4436 145.796 23.2581 145.428 24.001C145.111 24.7354 144.578 25.3594 143.9 25.7929C143.221 26.2265 142.428 26.45 141.62 26.4348C141 26.4513 140.386 26.3156 139.832 26.0399C139.278 25.7642 138.802 25.3571 138.446 24.8549C137.787 23.9935 137.436 22.94 137.449 21.8601C137.464 21.0237 137.678 20.2026 138.074 19.4634C138.401 18.7719 138.919 18.1854 139.567 17.771C140.216 17.3567 140.969 17.1312 141.741 17.1203H141.72ZM141.411 17.7473C141.045 17.7545 140.688 17.8585 140.377 18.0484C139.987 18.2999 139.693 18.673 139.543 19.1086C139.306 19.7302 139.195 20.3918 139.217 21.0557C139.189 22.2029 139.456 23.3384 139.993 24.3558C140.161 24.7561 140.442 25.1002 140.802 25.3474C141.162 25.5945 141.586 25.7343 142.025 25.7501C142.325 25.752 142.622 25.6835 142.891 25.5502C143.16 25.4168 143.394 25.2224 143.572 24.9828C144.064 24.1926 144.286 23.2672 144.206 22.3427C144.281 21.0361 143.922 19.7411 143.184 18.6548C142.989 18.369 142.724 18.1362 142.415 17.9777C142.105 17.8191 141.76 17.7399 141.411 17.7473Z" fill="white"/>
</g>
<g opacity="0.5">
<path d="M27.4423 3.97765C26.5791 2.78004 25.386 1.85313 24.005 1.3074C22.624 0.761675 21.1135 0.620155 19.6535 0.89971C18.1935 1.17926 16.8455 1.8681 15.7703 2.88411C14.6951 3.90013 13.938 5.20046 13.5892 6.63012L12.5714 5.21932V5.18219L12.488 5.2317L10.4023 6.70437L14.8448 12.8921C16.0712 14.4627 17.8658 15.5018 19.8511 15.7906C21.8363 16.0795 23.8575 15.5956 25.4893 14.4408C27.1212 13.2861 28.2366 11.5504 28.6008 9.59896C28.965 7.64753 28.5497 5.63246 27.4423 3.97765V3.97765ZM24.0176 12.1372C23.2545 12.678 22.3464 12.9829 21.408 13.0134C20.4697 13.0438 19.5433 12.7984 18.746 12.3082C17.9487 11.818 17.3163 11.105 16.9287 10.2593C16.5412 9.41367 16.4159 8.47336 16.5687 7.5573C16.7215 6.64124 17.1456 5.79057 17.7873 5.11285C18.429 4.43514 19.2595 3.96081 20.1738 3.74986C21.0881 3.53891 22.0451 3.6008 22.9238 3.92771C23.8025 4.25462 24.5635 4.83187 25.1105 5.58646V5.58646C25.841 6.60016 26.1345 7.8593 25.9264 9.08697C25.7184 10.3146 25.0258 11.4103 24.0009 12.1331L24.0176 12.1372Z" fill="white"/>
<path d="M15.0991 15.4085L15.0198 15.194L12.2042 17.1782C12.3633 18.0514 12.2686 18.9514 11.9312 19.7736C11.5937 20.5958 11.0274 21.3064 10.2979 21.8231C9.43481 22.4066 8.40495 22.7003 7.36022 22.6609C6.3155 22.6216 5.31122 22.2512 4.49555 21.6044C4.32431 21.4542 4.16915 21.2869 4.03253 21.1053L14.3483 13.8368C14.2607 13.6883 14.1647 13.548 14.0646 13.4037C12.9101 11.8036 11.1786 10.7027 9.22735 10.3281C7.27609 9.95355 5.25388 10.3339 3.57785 11.3906L2.94381 11.8361C1.38579 13.0575 0.361354 14.8238 0.0819215 16.7704C-0.197511 18.7171 0.289386 20.6955 1.44213 22.2975L1.50887 22.4047C2.60537 23.8813 4.20017 24.9209 6.00463 25.3354C7.8091 25.7499 9.70398 25.5118 11.3463 24.6644C12.9887 23.8169 14.27 22.416 14.9584 20.7151C15.6467 19.0143 15.6966 17.126 15.0991 15.392V15.4085ZM10.4314 13.845L2.8145 19.2077C2.77239 19.1095 2.73617 19.009 2.70604 18.9066C2.5223 17.975 2.61327 17.0107 2.96811 16.1288C3.32296 15.2469 3.92672 14.4844 4.70745 13.9323C5.48818 13.3802 6.41296 13.0617 7.37159 13.0148C8.33023 12.9679 9.28229 13.1945 10.1143 13.6677C10.2238 13.7199 10.3297 13.7791 10.4314 13.845V13.845Z" fill="white"/>
<path d="M23.4084 26.2533C23.3417 26.1585 23.2749 26.0718 23.2082 25.9893L18.9367 20.0574L16.7092 21.6332L17.727 23.0316H17.677C16.2015 22.926 14.7263 23.2402 13.4256 23.9371C12.1249 24.634 11.053 25.6845 10.3366 26.9644C9.62021 28.2444 9.2892 29.7004 9.38268 31.1604C9.47616 32.6205 9.99022 34.0235 10.8641 35.2039C11.7381 36.3843 12.9353 37.2927 14.3145 37.8218C15.6937 38.3509 17.1973 38.4786 18.6475 38.1898C20.0977 37.901 21.4341 37.2078 22.4987 36.192C23.5634 35.1763 24.3118 33.8804 24.6556 32.4575L25.6776 33.8683V33.9055L25.7569 33.8601L27.8425 32.3792L23.4084 26.2533ZM19.7752 34.582C19.0106 35.1206 18.1018 35.4229 17.1636 35.4508C16.2253 35.4787 15.2998 35.2308 14.5039 34.7386C13.7081 34.2464 13.0776 33.5319 12.6923 32.6854C12.307 31.8389 12.1842 30.8985 12.3392 29.983C12.4943 29.0674 12.9204 28.2179 13.5636 27.5418C14.2068 26.8657 15.0382 26.3934 15.9528 26.1845C16.8674 25.9756 17.8241 26.0396 18.702 26.3683C19.5798 26.697 20.3394 27.2757 20.8848 28.0313V28.0313C21.2471 28.5333 21.5059 29.1011 21.6462 29.7021C21.7866 30.3032 21.8058 30.9257 21.7028 31.534C21.5997 32.1424 21.3764 32.7247 21.0457 33.2477C20.7149 33.7707 20.2832 34.2241 19.7752 34.582V34.582Z" fill="white"/>
<path d="M34.6253 19.0715C35.1702 20.1245 35.2939 21.3419 34.9716 22.4811C34.6493 23.6202 33.9047 24.5974 32.8864 25.2179C31.868 25.8383 30.6505 26.0564 29.4768 25.8287C28.303 25.601 27.2591 24.9443 26.5532 23.9893C25.8473 23.0344 25.5312 21.8514 25.668 20.6763C25.8047 19.5012 26.3843 18.4202 27.2911 17.6488C28.198 16.8774 29.3654 16.4723 30.5608 16.5143C31.7562 16.5563 32.8917 17.0422 33.7409 17.8752L36.1978 16.1427L36.0852 15.99C34.731 14.5397 32.8644 13.6603 30.8724 13.5342C28.8803 13.408 26.9155 14.0448 25.3853 15.3124C23.8551 16.5801 22.8769 18.3815 22.6534 20.3431C22.4299 22.3048 22.9783 24.2762 24.1848 25.8488C25.3914 27.4215 27.1636 28.4746 29.1342 28.79C31.1047 29.1054 33.1224 28.6588 34.7689 27.5428C36.4155 26.4269 37.5647 24.7271 37.9783 22.7959C38.3919 20.8646 38.0381 18.8501 36.9904 17.1698L34.5085 18.9065L34.6253 19.0715Z" fill="white"/>
</g>
</g>
<defs>
<clipPath id="clip0_441_598">
<rect width="146" height="39" fill="white"/>
</clipPath>
</defs>
</svg>
