<svg width="92" height="32" viewBox="0 0 92 32" fill="none" xmlns="http://www.w3.org/2000/svg">
<g opacity="0.2" clip-path="url(#clip0_441_661)">
<path d="M9.67429 0.196289C11.5346 0.196289 13.0073 0.353344 14.17 0.706718C15.294 1.02083 16.1854 1.53126 16.8055 2.12022C17.4256 2.74844 17.8519 3.49445 18.0844 4.35825C18.317 5.22206 18.4332 6.20365 18.4332 7.26377C18.4332 8.55948 18.2782 9.65886 18.0069 10.6012C17.7356 11.5435 17.2318 12.3288 16.5342 12.9178C15.8366 13.546 14.9064 13.9779 13.7437 14.292C12.581 14.6061 11.1083 14.7239 9.32548 14.7239H0.954102V0.196289H9.67429ZM8.62787 12.6036C9.55802 12.6036 10.3331 12.5251 10.9145 12.3288C11.4958 12.1717 11.9222 11.8576 12.271 11.465C12.6198 11.0724 12.8136 10.5227 12.9298 9.85518C13.0461 9.1877 13.0848 8.36316 13.0848 7.38156C13.0848 6.55702 13.0461 5.81101 12.9298 5.18279C12.8136 4.55457 12.6198 4.04414 12.3097 3.61224C11.9997 3.18034 11.5346 2.86623 10.9532 2.66991C10.3719 2.47359 9.55802 2.3558 8.55035 2.3558H6.30248V12.6036H8.62787Z" fill="white"/>
<path d="M25.9912 0.353394H20.9141V14.7632H25.9912V0.353394Z" fill="white"/>
<path d="M35.7958 0.353394H38.7413V2.86628H35.7958V10.6798C35.7958 11.2687 35.9121 11.6614 36.1446 11.897C36.3772 12.1325 36.881 12.2503 37.6174 12.2503C37.8112 12.2503 38.0049 12.2503 38.1987 12.2503C38.3925 12.2503 38.5863 12.2111 38.7413 12.2111V14.7632C38.16 14.7632 37.6174 14.7632 37.1136 14.8025C36.571 14.8417 36.0284 14.8417 35.447 14.8417C34.4781 14.8417 33.6642 14.8025 33.0441 14.6847C32.424 14.6062 31.9202 14.4098 31.6101 14.0957C31.2613 13.8209 31.0676 13.4282 30.9125 12.9178C30.7963 12.4466 30.7188 11.8184 30.7188 11.1117V2.86628H28.1221V0.353394H30.7188H35.7958Z" fill="white"/>
<path d="M45.4461 0.353374V2.31656H45.5236C46.0275 1.60982 46.6863 1.06012 47.4227 0.628221C48.1591 0.196319 49.0505 0 50.1356 0C50.2907 0 50.4457 0 50.6007 0C50.7557 0 50.9108 0 51.0658 0.0392638V3.61227C50.7945 3.57301 50.5232 3.57301 50.2519 3.57301C49.9806 3.57301 49.7093 3.57301 49.438 3.57301C49.0117 3.57301 48.5466 3.61227 48.1203 3.6908C47.694 3.76932 47.2677 3.92638 46.9189 4.1227C46.5313 4.31902 46.26 4.59386 46.0275 4.90798C45.7949 5.22209 45.6787 5.65399 45.6787 6.12515V14.7632H40.6016V0.353374H45.4461Z" fill="white"/>
<path d="M59.8251 15.0381C57.9648 15.0381 56.5308 14.8025 55.4844 14.3706C54.438 13.9387 53.6629 13.3498 53.1978 12.6038C52.694 11.8577 52.3839 11.0725 52.3064 10.1301C52.1901 9.22707 52.1514 8.32401 52.1514 7.42094C52.1514 6.43934 52.2289 5.53628 52.4227 4.63321C52.6164 3.73014 52.9652 2.94486 53.5466 2.23812C54.0892 1.53137 54.9031 0.981674 55.9495 0.589036C56.9959 0.196398 58.3524 -0.0391846 60.0964 -0.0391846C61.5692 -0.0391846 62.8094 0.117871 63.7395 0.471245C64.6697 0.824619 65.4448 1.29578 65.9874 1.92401C66.53 2.55223 66.9176 3.3375 67.1113 4.24057C67.3051 5.14364 67.4214 6.12523 67.4214 7.26388V8.08842H57.306V9.22707C57.306 9.65897 57.3447 10.0516 57.4222 10.4835C57.4997 10.8762 57.6548 11.2295 57.8486 11.5436C58.0423 11.8577 58.3136 12.0933 58.6237 12.2896C58.9337 12.486 59.3601 12.5645 59.8251 12.5645V15.0381ZM62.3055 4.47615C62.228 4.04425 62.1118 3.69088 61.918 3.41603C61.7242 3.14118 61.4529 2.9056 61.1429 2.74855C60.794 2.59149 60.3677 2.51296 59.8639 2.51296C59.3601 2.51296 58.9337 2.59149 58.5849 2.74855C58.2361 2.9056 57.9648 3.14118 57.771 3.41603C57.5773 3.69088 57.4222 4.00499 57.3447 4.3191C57.2672 4.67247 57.2285 4.98658 57.2285 5.33996V5.88965H62.4606C62.4218 5.37922 62.3831 4.90805 62.3055 4.47615Z" fill="white"/>
<path d="M31.1845 17.2761H26.1074V31.6859H31.1845V17.2761Z" fill="white"/>
<path d="M40.4853 17.2761H43.4308V19.789H40.4853V27.5632C40.4853 28.1522 40.6016 28.5448 40.8341 28.7804C41.0666 29.016 41.5705 29.1338 42.3068 29.1338C42.5006 29.1338 42.6944 29.1338 42.8882 29.1338C43.082 29.1338 43.2758 29.0945 43.4308 29.0945V31.6467C42.8494 31.6467 42.3068 31.6467 41.803 31.6859C41.2604 31.7252 40.7178 31.7252 40.1365 31.7252C39.1676 31.7252 38.3537 31.6859 37.7336 31.5682C37.1135 31.4896 36.6097 31.2933 36.2996 30.9792C35.9508 30.7043 35.757 30.3117 35.602 29.8013C35.4857 29.3301 35.4082 28.7019 35.4082 27.9951V19.7497H32.8115V17.2761H35.4082H40.4853Z" fill="white"/>
<path d="M52.1897 16.9227C53.7012 16.9227 54.9414 17.0405 55.8715 17.2368C56.8017 17.4332 57.5381 17.7473 58.0419 18.1399C58.5457 18.5325 58.8945 19.0037 59.0883 19.5534C59.2821 20.1031 59.3596 20.6921 59.3596 21.3203V28.8982C59.3596 29.5657 59.3984 30.1154 59.4759 30.4687C59.5534 30.8614 59.7472 31.254 59.9797 31.6859H55.0964C54.9414 31.4503 54.7864 31.2148 54.7089 30.9399C54.6313 30.6651 54.5538 30.4295 54.4763 30.1546H54.4376C53.8562 30.9006 53.1586 31.4111 52.3835 31.6074C51.6083 31.843 50.6007 31.9608 49.3605 31.9608C48.4691 31.9608 47.7327 31.843 47.1126 31.6467C46.4925 31.4111 45.9887 31.097 45.6399 30.7436C45.2523 30.351 44.981 29.9191 44.826 29.4086C44.671 28.9375 44.5547 28.427 44.5547 27.9559C44.5547 27.2884 44.671 26.6994 44.8647 26.189C45.0585 25.7178 45.3686 25.2859 45.7561 24.9325C46.1437 24.5792 46.6863 24.3043 47.3064 24.0687C47.9265 23.8332 48.7016 23.6368 49.593 23.4405L52.461 22.8908C53.2361 22.7338 53.7399 22.5375 54.05 22.3019C54.3601 22.0663 54.4763 21.6737 54.4763 21.2025C54.4763 20.6528 54.2825 20.2209 53.9337 19.9068C53.5849 19.5927 52.9648 19.4356 52.1122 19.4356L52.1897 16.9227ZM53.3911 24.9718C53.0036 25.0896 52.6548 25.1681 52.306 25.2074C51.2595 25.3644 50.5232 25.6393 50.0969 25.9927C49.6705 26.3853 49.438 26.8565 49.438 27.524C49.438 28.0737 49.593 28.5448 49.8643 28.9375C50.1356 29.3301 50.6394 29.5264 51.3371 29.5264C51.6859 29.5264 52.0347 29.4872 52.4222 29.4086C52.8098 29.3301 53.1198 29.2123 53.4299 29.016C53.7399 28.8197 53.9725 28.6233 54.205 28.3092C54.3988 28.0344 54.5151 27.681 54.5151 27.2884V24.4614C54.1663 24.697 53.7787 24.854 53.3911 24.9718Z" fill="white"/>
<path d="M67.2275 12.5645H62.1504V31.6859H67.2275V12.5645Z" fill="white"/>
<path d="M75.0947 17.2761H70.0176V31.6859H75.0947V17.2761Z" fill="white"/>
<path d="M84.1249 16.9227C85.6364 16.9227 86.8766 17.0405 87.8068 17.2368C88.737 17.4332 89.4733 17.7473 89.9772 18.1399C90.481 18.5325 90.8298 19.0037 91.0236 19.5534C91.2174 20.1031 91.2949 20.6921 91.2949 21.3203V28.8982C91.2949 29.5657 91.3336 30.1154 91.4111 30.4687C91.4886 30.8614 91.6824 31.254 91.915 31.6859H87.0317C86.8766 31.4503 86.7216 31.2148 86.6441 30.9399C86.5666 30.6651 86.4891 30.4295 86.4116 30.1546H86.3341C85.7527 30.9006 85.0551 31.4111 84.28 31.6074C83.5048 31.843 82.4972 31.9608 81.257 31.9608C80.3656 31.9608 79.6292 31.843 79.0091 31.6467C78.389 31.4111 77.8852 31.097 77.5364 30.7436C77.1488 30.351 76.8775 29.9191 76.7225 29.4086C76.5674 28.9375 76.4512 28.427 76.4512 27.9559C76.4512 27.2884 76.5674 26.6994 76.7612 26.189C76.955 25.7178 77.2651 25.2859 77.6526 24.9325C78.0402 24.5792 78.5828 24.3043 79.2029 24.0687C79.823 23.8332 80.5981 23.6368 81.4895 23.4405L84.3575 22.8908C85.1326 22.7338 85.6364 22.5375 85.9465 22.3019C86.2565 22.0663 86.3728 21.6737 86.3728 21.2025C86.3728 20.6528 86.179 20.2209 85.8302 19.9068C85.4814 19.5927 84.8613 19.4356 84.0087 19.4356L84.1249 16.9227ZM85.3264 24.9718C84.9388 25.0896 84.59 25.1681 84.2412 25.2074C83.1948 25.3644 82.4584 25.6393 82.0321 25.9927C81.6058 26.3853 81.3732 26.8565 81.3732 27.524C81.3732 28.0737 81.5283 28.5448 81.7996 28.9375C82.1096 29.3301 82.5747 29.5264 83.2723 29.5264C83.6211 29.5264 83.9699 29.4872 84.3575 29.4086C84.745 29.3301 85.0551 29.2123 85.3651 29.016C85.6752 28.8197 85.9077 28.6233 86.1403 28.3092C86.3341 28.0344 86.4503 27.681 86.4503 27.2884V24.4614C86.1015 24.697 85.7527 24.854 85.3264 24.9718Z" fill="white"/>
</g>
<defs>
<clipPath id="clip0_441_661">
<rect width="91" height="32" fill="white" transform="translate(0.954102)"/>
</clipPath>
</defs>
</svg>
