<svg width="110" height="18" viewBox="0 0 110 18" fill="none" xmlns="http://www.w3.org/2000/svg">
<g opacity="0.2">
<path fill-rule="evenodd" clip-rule="evenodd" d="M71.144 9.76325V0.747234H75.9739L75.9926 6.84592L71.144 9.76325ZM0 0.730347H8.63876C10.0783 0.730347 11.1826 1.13138 11.9521 1.93281C12.7216 2.73488 13.1064 3.72776 13.1064 4.91021C13.1064 5.90309 12.8324 6.75458 12.285 7.46467C11.9202 7.93828 11.3834 8.31241 10.6764 8.58706C11.7513 8.87673 12.5402 9.37348 13.0438 10.0786C13.5469 10.783 13.799 11.6689 13.799 12.735C13.799 13.604 13.6194 14.3842 13.2616 15.0774C12.9025 15.77 12.4113 16.3193 11.7863 16.7228C11.3978 16.9743 10.8147 17.1564 10.0377 17.2715C8.99412 17.4241 8.30404 17.4992 7.9687 17.4992H0V0.730347ZM4.6397 7.32453H6.65988C7.37873 7.32453 7.88049 7.18564 8.16327 6.90723C8.44606 6.62945 8.58808 6.22779 8.58808 5.70226C8.58808 5.21489 8.44606 4.8345 8.16327 4.5611C7.88049 4.28707 7.39124 4.14943 6.69429 4.14943H4.6397V7.32453ZM4.6397 13.8774H6.99021C7.78101 13.8774 8.3397 13.7204 8.66691 13.4057C8.99349 13.0916 9.15803 12.6681 9.15803 12.1375C9.15803 11.6452 8.99599 11.2485 8.67317 10.9495C8.34971 10.6498 7.78539 10.4996 6.97957 10.4996H4.6397V13.8774ZM30.6423 0.730347H34.9748L40.6143 10.0035V0.730347H44.97V17.4998H40.6143L34.9973 8.26548V17.4998H30.6423V0.730347Z" fill="white"/>
<path fill-rule="evenodd" clip-rule="evenodd" d="M44.79 0.730347H58.8731V4.88205H54.1514V17.4998H49.5111V4.88205H44.79V0.730347Z" fill="white"/>
<path fill-rule="evenodd" clip-rule="evenodd" d="M58.779 0.730358H71.1521V4.31211H63.4187V6.99921H70.6235V10.4177H63.4187V13.7148H71.3968V17.4999H58.779V0.730358V0.730358ZM92.1797 0.730358H99.84C101.513 0.730358 102.765 1.17768 103.594 2.07359C104.423 2.96887 104.839 4.24267 104.839 5.89497C104.839 7.59419 104.385 8.92116 103.481 9.87775C102.577 10.8337 101.196 11.3123 99.3414 11.3123H96.8207V17.4992H92.1797V0.730358V0.730358ZM96.8207 7.89387H97.9387C98.8114 7.89387 99.4271 7.72057 99.7837 7.37271C100.142 7.02549 100.321 6.58066 100.321 6.03823C100.321 5.51208 100.166 5.06537 99.8581 4.69938C99.5491 4.33276 98.9697 4.14882 98.1195 4.14882H96.8207V7.89387V7.89387ZM105.314 0.730358H109.954V17.4999H105.314V0.730358ZM30.5616 8.98873C30.5616 13.6766 26.7346 17.4773 22.0142 17.4773C17.2938 17.4773 13.4668 13.6766 13.4668 8.98873C13.4668 4.30085 17.2938 0.500122 22.0142 0.500122C26.7346 0.500122 30.5616 4.30085 30.5616 8.98873ZM22.0142 4.97278C21.4809 4.96337 20.951 5.06028 20.4555 5.25788C19.96 5.45547 19.5089 5.74978 19.1284 6.12363C18.7478 6.49747 18.4456 6.94337 18.2393 7.43529C18.033 7.92721 17.9268 8.4553 17.9268 8.98873C17.9268 9.52216 18.033 10.0502 18.2393 10.5422C18.4456 11.0341 18.7478 11.48 19.1284 11.8538C19.5089 12.2277 19.96 12.522 20.4555 12.7196C20.951 12.9172 21.4809 13.0141 22.0142 13.0047C23.067 12.9861 24.0704 12.5548 24.8084 11.8037C25.5464 11.0526 25.9599 10.0417 25.9599 8.98873C25.9599 7.93574 25.5464 6.92487 24.8084 6.17375C24.0704 5.42264 23.067 4.99137 22.0142 4.97278V4.97278Z" fill="white"/>
<path fill-rule="evenodd" clip-rule="evenodd" d="M71.1523 15.2739V10.3971L86.3277 1.39795V6.15152L71.1523 15.2739ZM91.2277 8.95186V17.4154H86.4954L86.4735 11.8523L91.2277 8.95186V8.95186ZM91.2277 3.54012V8.41569L76.0523 17.4154V12.6619L91.2277 3.54012V3.54012Z" fill="white"/>
</g>
</svg>
