<svg width="20" height="21" viewBox="0 0 20 21" fill="none" xmlns="http://www.w3.org/2000/svg">
<path d="M18.3909 1.58782C20.5364 3.70505 20.5364 7.14828 18.3909 9.26537L7.64706 19.8679C6.11742 21.3774 3.61963 21.3774 2.09012 19.8679C0.560621 18.3583 0.56048 15.8934 2.09012 14.384L12.834 3.78154C13.748 2.87954 15.2543 2.87954 16.1683 3.78154C17.0823 4.68354 17.0823 6.16997 16.1683 7.07197L5.79492 17.3089L5.79474 17.3087C5.64819 17.4576 5.44718 17.5424 5.23666 17.544C5.02633 17.5454 4.82405 17.4636 4.6753 17.3168C4.52638 17.17 4.4436 16.9704 4.44506 16.7626C4.44652 16.5551 4.53241 16.3567 4.68335 16.2119L15.0567 5.97502C15.3741 5.66161 15.3741 5.19148 15.0567 4.87825C14.7393 4.56502 14.2627 4.56502 13.9453 4.87825L3.20146 15.4808C2.26826 16.4017 2.26826 17.8503 3.20146 18.7712C4.13467 19.6921 5.60256 19.6921 6.53577 18.7712L17.2796 8.16869C18.8286 6.64024 18.8286 4.21317 17.2796 2.68486C15.7306 1.15642 13.2714 1.15642 11.7227 2.68486L1.34932 12.9217H1.34914C1.20259 13.0703 1.00158 13.1549 0.791248 13.1563C0.580922 13.1578 0.378821 13.0759 0.230081 12.9291C0.0813358 12.7823 -0.00144054 12.5829 1.89783e-05 12.3755C0.00129812 12.168 0.0870008 11.9696 0.237752 11.8248L10.6111 1.58792C12.7566 -0.529305 16.2457 -0.529305 18.391 1.58792L18.3909 1.58782Z" fill="#131313"/>
</svg>
