<?xml version="1.0" encoding="utf-8"?><svg xmlns="http://www.w3.org/2000/svg" xmlns:xlink="http://www.w3.org/1999/xlink"><symbol viewBox="0 0 10 6" id="arrow-small-bottom" xmlns="http://www.w3.org/2000/svg"><path d="M9 1L5 5 1 1"/></symbol><symbol viewBox="0 0 15 15" id="bookmark" xmlns="http://www.w3.org/2000/svg"><path d="M6.986 9.643L1 13.233V1h13v12.234L8.014 9.643l-.514-.31-.514.31z"/></symbol><symbol viewBox="0 0 17 16" id="cart" xmlns="http://www.w3.org/2000/svg"><path d="M.5 4.5h16v11H.5v-11z"/><path d="M12 7V4a3 3 0 00-3-3H8a3 3 0 00-3 3v3"/></symbol><symbol viewBox="0 0 13 13" id="cart-item-close" xmlns="http://www.w3.org/2000/svg"><path d="M1 1l5.5 5.5M12 12L6.5 6.5m0 0L1 12 12 1"/></symbol><symbol viewBox="0 0 15 14" id="catalog-open" xmlns="http://www.w3.org/2000/svg"><rect x="1.5" y="1" width="4" height="4" rx="1"/><rect x="1.5" y="9" width="4" height="4" rx="1"/><rect x="9.5" y="1" width="4" height="4" rx="1"/><rect x="9.5" y="9" width="4" height="4" rx="1"/></symbol><symbol viewBox="0 0 11 9" id="check" xmlns="http://www.w3.org/2000/svg"><path d="M1 4.158L3.893 7 10 1" stroke-width="2"/></symbol><symbol viewBox="0 0 10 22" id="choice-arrows" xmlns="http://www.w3.org/2000/svg"><path d="M1 5l4-4 4 4M9 17l-4 4-4-4"/></symbol><symbol viewBox="0 0 12 12" id="close" xmlns="http://www.w3.org/2000/svg"><path d="M1 1l5 5m0 0l-5 5m5-5l5 5M6 6l5-5" stroke-width="2" stroke-linecap="round" stroke-linejoin="round"/></symbol><symbol viewBox="0 0 14 14" id="download" xmlns="http://www.w3.org/2000/svg"><path d="M1 11v1a1 1 0 001 1h10a1 1 0 001-1v-1M7 1v7m0 0l2-2M7 8L5 6" stroke-width="2" stroke-linecap="round" stroke-linejoin="round"/></symbol><symbol viewBox="0 0 9 15" id="facebook" xmlns="http://www.w3.org/2000/svg"><path d="M5.6 14.6V8.079h2.27l.34-2.542H5.6V3.913c0-.736.211-1.238 1.306-1.238H8.3V.4A19.34 19.34 0 006.267.3c-2.012 0-3.39 1.184-3.39 3.36v1.875H.601v2.542h2.276V14.6H5.6z"/></symbol><symbol viewBox="0 0 16 14" id="favorite" xmlns="http://www.w3.org/2000/svg"><path d="M2.103 7.055l-.001-.002a3.528 3.528 0 01-.167-4.95c.31-.334.684-.604 1.097-.793a3.422 3.422 0 013.784.634l.001.001.5.471.686.648.686-.648.5-.47a3.432 3.432 0 012.47-.939c.914.03 1.779.426 2.406 1.102.627.676.964 1.578.933 2.507a3.512 3.512 0 01-1.095 2.439h0l-5.9 5.57-5.9-5.57z"/></symbol><symbol viewBox="0 0 16 16" id="filter-close" xmlns="http://www.w3.org/2000/svg"><path d="M1 1l14.142 14.142M15.142 1L1 15.142"/></symbol><symbol viewBox="0 0 18 16" id="filters-open" xmlns="http://www.w3.org/2000/svg"><path d="M0 4h12.5M18 12H5.5" stroke-width="2"/><circle cx="14.5" cy="4" r="2.5" stroke-width="2"/><circle cx="3.5" cy="12" r="2.5" transform="rotate(-180 3.5 12)" stroke-width="2"/></symbol><symbol viewBox="0 0 17 16" id="home" xmlns="http://www.w3.org/2000/svg"><path d="M8.5.612l8 5.647V15.5H.5V6.26l8-5.648z"/></symbol><symbol viewBox="0 0 15 2" id="icon-minus" xmlns="http://www.w3.org/2000/svg"><path d="M14.5.5v1H.5v-1z"/></symbol><symbol viewBox="0 0 14 14" id="icon-plus" xmlns="http://www.w3.org/2000/svg"><path d="M14 6.5v1H0v-1z"/><path d="M6.5 0h1v14h-1z"/></symbol><symbol viewBox="0 0 26 27" id="icon-sale" xmlns="http://www.w3.org/2000/svg"><rect y=".178" width="26" height="26" rx="11"/><rect x="15.123" y="15.178" width="5" height="5" rx="2.5" stroke-width="2"/><rect x="6.123" y="6.178" width="5" height="5" rx="2.5" stroke-width="2"/><path d="M19.123 7.178l-12 12" stroke-width="2"/></symbol><symbol viewBox="0 0 18 18" id="instagram" xmlns="http://www.w3.org/2000/svg"><path d="M12.556.2H5.443A5.25 5.25 0 00.199 5.442v7.113A5.25 5.25 0 005.443 17.8h7.113a5.25 5.25 0 005.243-5.243V5.443A5.25 5.25 0 0012.556.199zm3.473 12.356a3.473 3.473 0 01-3.473 3.473H5.443a3.473 3.473 0 01-3.473-3.473V5.443A3.473 3.473 0 015.443 1.97h7.113a3.473 3.473 0 013.473 3.473v7.113z" stroke-width=".2"/><path d="M9.002 4.601a4.405 4.405 0 00-4.4 4.4c0 2.427 1.973 4.4 4.4 4.4 2.426 0 4.4-1.973 4.4-4.4 0-2.426-1.974-4.4-4.4-4.4zm0 7.089a2.689 2.689 0 110-5.377 2.689 2.689 0 010 5.377z" stroke-width=".2"/><path d="M13.4 5.7a1.1 1.1 0 100-2.2 1.1 1.1 0 000 2.2z"/></symbol><symbol viewBox="0 0 27 27" id="loop" xmlns="http://www.w3.org/2000/svg"><circle cx="11.5" cy="11.5" r="10.5" stroke-width="2"/><path d="M19 19l7 7" stroke-width="2"/></symbol><symbol viewBox="0 0 13 22" id="loop-next" xmlns="http://www.w3.org/2000/svg"><path d="M1 21l10-10L1 1" stroke-width="2"/></symbol><symbol viewBox="0 0 13 22" id="loop-prev" xmlns="http://www.w3.org/2000/svg"><path d="M12 21L2 11 12 1" stroke-width="2"/></symbol><symbol viewBox="0 0 15 14" id="menu-open" xmlns="http://www.w3.org/2000/svg"><rect x="1.5" y="1" width="4" height="4" rx="1" stroke-width="2"/><rect x="1.5" y="9" width="4" height="4" rx="1" stroke-width="2"/><rect x="9.5" y="1" width="4" height="4" rx="1" stroke-width="2"/><rect x="9.5" y="9" width="4" height="4" rx="1" stroke-width="2"/></symbol><symbol viewBox="0 0 7 10" id="navigation-arrow" xmlns="http://www.w3.org/2000/svg"><path d="M1 1l4 4-4 4" stroke-width="2"/></symbol><symbol viewBox="0 0 10 6" id="navigation-arrow-top" xmlns="http://www.w3.org/2000/svg"><path opacity=".5" d="M1 5l4-4 4 4"/></symbol><symbol viewBox="0 0 30 36" id="play" xmlns="http://www.w3.org/2000/svg"><path d="M30 18L0 35.32V.68L30 18z"/></symbol><symbol viewBox="0 0 10 16" id="preview-next" xmlns="http://www.w3.org/2000/svg"><path d="M1 1l7 7-7 7" stroke-width="2"/></symbol><symbol viewBox="0 0 10 16" id="preview-prev" xmlns="http://www.w3.org/2000/svg"><path d="M9 15L2 8l7-7" stroke-width="2"/></symbol><symbol viewBox="0 0 14 14" id="print" xmlns="http://www.w3.org/2000/svg"><rect x="4" y="1" width="6" height="4" rx="1" stroke-width="2"/><rect x="1" y="5" width="12" height="6" rx="1" stroke-width="2"/><rect x="4" y="8" width="6" height="5" rx="1" stroke-width="2"/></symbol><symbol viewBox="0 0 7 10" id="product-arrow-next" xmlns="http://www.w3.org/2000/svg"><path d="M1 9l4-4-4-4" stroke-width="2"/></symbol><symbol viewBox="0 0 7 10" id="product-arrow-prev" xmlns="http://www.w3.org/2000/svg"><path d="M6 9L2 5l4-4" stroke-width="2"/></symbol><symbol viewBox="0 0 16 10" id="return-arrow" xmlns="http://www.w3.org/2000/svg"><path d="M1 9l7-7 7 7" stroke-width="2"/></symbol><symbol viewBox="0 0 10 22" id="select-arrows" xmlns="http://www.w3.org/2000/svg"><path opacity=".5" d="M1 5l4-4 4 4M9 17l-4 4-4-4"/></symbol><symbol viewBox="0 0 15 15" id="telegram" xmlns="http://www.w3.org/2000/svg"><path d="M1.707 7.16l6.868-2.835c.677-.296 2.977-1.24 2.977-1.24s1.06-.414.972.59c-.03.414-.265 1.86-.5 3.426l-.738 4.637s-.059.68-.56.798c-.5.118-1.326-.414-1.474-.532-.117-.088-2.21-1.418-2.977-2.067-.206-.177-.442-.532.03-.945A112.725 112.725 0 009.4 6.038c.354-.354.707-1.181-.767-.177L4.477 8.667s-.471.295-1.355.03c-.885-.267-1.916-.621-1.916-.621s-.708-.443.5-.916z"/></symbol><symbol viewBox="0 0 16 16" id="time" xmlns="http://www.w3.org/2000/svg"><circle cx="8" cy="8" r="7" stroke-opacity=".8" stroke-width="2"/></symbol><symbol viewBox="0 0 14 14" id="view" xmlns="http://www.w3.org/2000/svg"><path d="M13 1H9.5M13 1v4-4zm0 0H9m4 0L8 6m-7 7l1-1 4-4m-5 5h4m-4 0V9" stroke-opacity=".8" stroke-width="2"/></symbol><symbol viewBox="0 0 18 10" id="vkontakte" xmlns="http://www.w3.org/2000/svg"><path fill-rule="evenodd" clip-rule="evenodd" d="M17.396 1.197c.122-.343 0-.596-.583-.596h-1.925c-.49 0-.715.218-.838.459 0 0-.979 2.009-2.366 3.314-.449.378-.653.498-.898.498-.122 0-.3-.12-.3-.463V1.197c0-.412-.141-.596-.55-.596H6.912c-.306 0-.49.191-.49.373 0 .39.694.48.765 1.58V4.94c0 .523-.112.618-.357.618-.653 0-2.24-2.018-3.182-4.328-.185-.448-.37-.63-.862-.63H.86C.31.601.2.82.2 1.06c0 .429.652 2.559 3.039 5.375 1.59 1.924 3.833 2.966 5.873 2.966 1.223 0 1.375-.231 1.375-.63V7.317c0-.463.116-.556.503-.556.286 0 .775.12 1.918 1.048 1.305 1.1 1.52 1.592 2.255 1.592h1.925c.55 0 .826-.231.667-.688-.174-.456-.797-1.117-1.624-1.9-.449-.447-1.122-.927-1.326-1.168-.286-.309-.204-.446 0-.721 0 0 2.346-2.782 2.59-3.727z"/></symbol><symbol viewBox="0 0 26 26" id="whatsapp" xmlns="http://www.w3.org/2000/svg"><path d="M7.554 21.306l.368.217a10.09 10.09 0 005.125 1.397h.004c5.55 0 10.066-4.496 10.068-10.02a9.937 9.937 0 00-2.946-7.09 10.025 10.025 0 00-7.119-2.939c-5.553 0-10.07 4.495-10.072 10.02a9.96 9.96 0 001.54 5.333l.239.379L3.743 22.3l3.811-.994zM.835 25.165l1.719-6.247A11.991 11.991 0 01.937 12.89C.94 6.242 6.373.835 13.051.835a12.064 12.064 0 018.569 3.536 11.957 11.957 0 013.545 8.53c-.003 6.646-5.438 12.055-12.114 12.055h-.005c-2.027 0-4.02-.507-5.789-1.468L.835 25.165z"/><path fill-rule="evenodd" clip-rule="evenodd" d="M10.53 8.729c-.188-.417-.386-.425-.566-.432-.146-.007-.314-.006-.48-.006a.924.924 0 00-.67.313c-.23.25-.88.855-.88 2.085s.9 2.419 1.026 2.586c.125.166 1.737 2.772 4.29 3.774 2.122.833 2.553.667 3.014.625.46-.041 1.486-.604 1.695-1.188.21-.584.21-1.084.147-1.189-.063-.104-.23-.167-.482-.292-.25-.125-1.486-.73-1.716-.813-.23-.083-.398-.125-.565.125-.168.25-.649.813-.795.98-.147.167-.293.188-.544.063-.252-.125-1.06-.39-2.02-1.24-.747-.664-1.25-1.482-1.397-1.732-.147-.25-.016-.386.11-.51.113-.113.251-.293.377-.438.125-.146.167-.25.25-.417.084-.167.043-.313-.02-.438-.063-.126-.551-1.362-.774-1.856"/></symbol></svg>